<?xml version="1.0" encoding="utf-8"?>
<!-- Generator: Adobe Illustrator 25.4.1, SVG Export Plug-In . SVG Version: 6.00 Build 0)  -->
<svg version="1.1" xmlns="http://www.w3.org/2000/svg" xmlns:xlink="http://www.w3.org/1999/xlink" x="0px" y="0px"
	 viewBox="0 0 3710 3710" style="enable-background:new 0 0 3710 3710;" xml:space="preserve">
<style type="text/css">
	.st0{fill:#FFFFFF;}
	.st1{fill:url(#SVGID_1_);}
	.st2{opacity:0.3;}
	.st3{fill:#91B3FA;}
	.st4{fill:url(#SVGID_00000041991428176225593330000009193752528508568766_);}
	.st5{fill:url(#SVGID_00000111159726902951393380000017765866547635419806_);}
	.st6{fill:url(#SVGID_00000183941565337702838880000008602795041487334839_);}
	.st7{fill:url(#SVGID_00000178200696315595193340000001569102638487039419_);}
	.st8{fill:url(#SVGID_00000161626550477316393540000008052309932143444647_);}
	.st9{fill:url(#SVGID_00000053547143398179874020000016711344365484556713_);}
	.st10{fill:url(#SVGID_00000056428839386315359490000001725652323224591285_);}
	.st11{opacity:0.72;fill:#FFFFFF;}
	.st12{fill:url(#SVGID_00000162324074163719501180000009162721647976751293_);}
	.st13{fill:#7D97F4;}
	.st14{fill:url(#SVGID_00000054252098790872690120000015208817516094375325_);}
	.st15{fill:url(#SVGID_00000104669376170795126640000000313072931176294845_);}
	.st16{fill:url(#SVGID_00000127005416317056631900000016271469869330154126_);}
	.st17{fill:url(#SVGID_00000150102566064476214610000016529959876207951251_);}
	.st18{fill:url(#SVGID_00000034783526298124623400000006795332149175840938_);}
	.st19{fill:url(#SVGID_00000112604216458993589670000017663348323021495992_);}
	.st20{fill:url(#SVGID_00000116235077243688247980000017404634708209599934_);}
	.st21{fill:url(#SVGID_00000041998683114214126730000017243380362869990839_);}
	.st22{fill:url(#SVGID_00000003076525434889650590000001600442258532417465_);}
	.st23{fill:url(#SVGID_00000134936170936158555360000011863194932001075381_);}
	.st24{fill:url(#SVGID_00000083052325256792713410000003326912513712233148_);}
	.st25{fill:url(#SVGID_00000009552028979064549020000002560326973655882128_);}
	.st26{fill:url(#SVGID_00000110438343216679930190000000932642777095165587_);}
	.st27{fill:url(#SVGID_00000006697510249794502840000017462192899431333258_);}
	.st28{fill:url(#SVGID_00000175310102077015707350000008551810068798688443_);}
	.st29{fill:url(#SVGID_00000080178822817277500010000007321410357434383248_);}
	.st30{fill:url(#SVGID_00000028289816020397695700000004255120489790222767_);}
	.st31{fill:url(#SVGID_00000035528884624226562990000007206364111274131338_);}
	.st32{fill:url(#SVGID_00000115511818927561689870000005852842046841433770_);}
	.st33{fill:url(#SVGID_00000153680446926179255960000013958578854899941259_);}
	.st34{fill:url(#SVGID_00000046341572021964637350000012966057800131641016_);}
	.st35{fill:url(#SVGID_00000177484822868829925100000010044837290954293903_);}
	.st36{fill:url(#SVGID_00000089536594539996097330000002879906463218913677_);}
	.st37{fill:url(#SVGID_00000099629717747175179110000007817623554515840160_);}
	.st38{fill:url(#SVGID_00000066481686412485163490000009235319680781587611_);}
	.st39{fill:url(#SVGID_00000080195384339115682300000006344771275191836830_);}
	.st40{fill:url(#SVGID_00000068663242031923669900000011147706113197915805_);}
	.st41{fill:url(#SVGID_00000078767039712212779760000011433972226546997933_);}
	.st42{fill:url(#SVGID_00000013910924560419782960000002554331669153513401_);}
	.st43{fill:url(#SVGID_00000157303845778004638560000016991773303310399125_);}
	.st44{fill:url(#SVGID_00000073715117491321310860000004642923300190776458_);}
	.st45{fill:url(#SVGID_00000132065422105565780020000002470600492765578927_);}
	.st46{fill:url(#SVGID_00000163762256460069508330000000268443150009976965_);}
	.st47{fill:url(#SVGID_00000096742976023238221680000006943853482775262085_);}
	.st48{fill:url(#SVGID_00000158713756495511417710000017253868369152015503_);}
	.st49{fill:url(#SVGID_00000181793857537957822660000014381815465208686728_);}
	.st50{fill:url(#SVGID_00000013912203060370589810000017531678385916958130_);}
	.st51{fill:url(#SVGID_00000114048639749924611410000001768451930453895862_);}
	.st52{fill:url(#SVGID_00000177465914708019453800000005469061407402764181_);}
	.st53{fill:url(#SVGID_00000137134167713424743540000007161070007293673858_);}
	.st54{fill:url(#SVGID_00000156555153111743862580000002769466476338973090_);}
	.st55{fill:url(#SVGID_00000035488541721898013870000018256300946814056079_);}
	.st56{fill:url(#SVGID_00000023961027661090127020000009498831347294140298_);}
	.st57{fill:url(#SVGID_00000083797935969639751030000017548959090265873540_);}
	.st58{fill:url(#SVGID_00000176011187300162398230000016473719918348617914_);}
	.st59{fill:url(#SVGID_00000000181031133003492540000002157190242447772053_);}
	.st60{fill:url(#SVGID_00000097496872477001878520000002671242803557141691_);}
	.st61{fill:url(#SVGID_00000004504306484203082240000005269747520189408938_);}
	.st62{fill:url(#SVGID_00000052798184396533580820000012753265662193789572_);}
</style>
<g id="Background">
	<g>
		<g>
			<rect class="st0" width="3710" height="3710"/>
		</g>
	</g>
</g>
<g id="Illustration">
	<g>
		<linearGradient id="SVGID_1_" gradientUnits="userSpaceOnUse" x1="3413.7266" y1="3591.4019" x2="1374.1101" y2="1389.9108">
			<stop  offset="0" style="stop-color:#DAE3FE"/>
			<stop  offset="1" style="stop-color:#E9EFFD"/>
		</linearGradient>
		<path class="st1" d="M3129.49,2336.85c-280.26,655.07-1020.05,936.44-1599.69,888.47c-158.26-13.1-476.7-39.45-725.33-274.58
			C326.99,2499.2,400.53,1555.35,857.62,999.66c58.86-71.56,466.31-551.01,1101.24-544.59c464.86,4.7,791.14,267.29,830.82,300.01
			c50.12,41.33,160.66,139.53,260.29,295.33C3284.05,1416.47,3304.63,1927.5,3129.49,2336.85z"/>
		<g>
			<g>
				<g class="st2">
					<path class="st3" d="M1319.03,1049.34c5.43,1.28,9.13,6.49,8.4,12.14c-1.58,12.37-3.73,24.85-6.38,37.1
						c-1.29,5.96-7.16,9.75-13.12,8.46c-0.07-0.02-0.14-0.03-0.21-0.05c-5.84-1.38-9.52-7.18-8.25-13.07
						c2.52-11.64,4.55-23.5,6.06-35.25c0.77-6.05,6.3-10.32,12.35-9.55C1318.28,1049.18,1318.66,1049.25,1319.03,1049.34z
						 M1296.25,1142.77c0.42,0.1,0.84,0.22,1.26,0.38c5.73,2.09,8.68,8.42,6.59,14.15c-4.29,11.76-9.13,23.46-14.37,34.77
						c-2.57,5.53-9.1,7.93-14.66,5.37c-5.53-2.57-7.93-9.13-5.36-14.66c4.99-10.75,9.58-21.86,13.66-33.04
						C1285.29,1144.43,1290.88,1141.51,1296.25,1142.77z M1253.45,1228.86c1.2,0.28,2.37,0.77,3.46,1.48
						c5.12,3.31,6.59,10.15,3.27,15.27c-6.78,10.49-14.11,20.82-21.78,30.7c-3.74,4.81-10.67,5.68-15.49,1.95
						c-4.81-3.74-5.69-10.67-1.95-15.49c7.28-9.38,14.24-19.19,20.68-29.15C1244.25,1229.59,1249.04,1227.82,1253.45,1228.86z
						 M1192.47,1303.23c1.98,0.47,3.85,1.48,5.37,3.05c4.25,4.37,4.15,11.36-0.22,15.61c-8.97,8.72-18.42,17.15-28.09,25.06
						c-4.72,3.85-11.67,3.16-15.53-1.55c-3.86-4.72-3.16-11.67,1.55-15.53c9.19-7.52,18.17-15.52,26.69-23.81
						C1185.04,1303.33,1188.92,1302.4,1192.47,1303.23z M1116.43,1362.14c2.77,0.65,5.29,2.37,6.89,5c3.17,5.21,1.53,12-3.68,15.17
						c-10.65,6.49-21.73,12.62-32.93,18.21c-5.45,2.73-12.08,0.51-14.81-4.94c-2.72-5.45-0.51-12.08,4.95-14.81
						c10.65-5.31,21.18-11.14,31.3-17.31C1110.73,1361.89,1113.71,1361.5,1116.43,1362.14z M1029.27,1402.76
						c3.59,0.85,6.67,3.47,7.94,7.23c1.94,5.78-1.17,12.04-6.94,13.98c-11.84,3.98-24.01,7.51-36.15,10.47
						c-5.93,1.45-11.9-2.18-13.34-8.11c-1.45-5.92,2.18-11.89,8.11-13.34c11.54-2.82,23.09-6.16,34.34-9.95
						C1025.25,1402.36,1027.33,1402.3,1029.27,1402.76z M629.54,1335.39c1.49,0.35,2.92,1.02,4.21,2.01
						c9.38,7.26,19.21,14.2,29.2,20.64c5.12,3.3,6.6,10.13,3.3,15.25c-3.3,5.13-10.13,6.61-15.26,3.31
						c-10.53-6.78-20.88-14.09-30.75-21.73c-4.82-3.73-5.71-10.66-1.98-15.49C621,1335.85,625.46,1334.43,629.54,1335.39z
						 M935.33,1423.03c4.46,1.05,7.96,4.83,8.45,9.64c0.61,6.07-3.81,11.48-9.88,12.09c-12.43,1.25-25.07,1.98-37.57,2.15
						c-6.09,0.06-11.11-4.78-11.2-10.88c-0.09-6.1,4.78-11.11,10.88-11.2c11.86-0.17,23.87-0.86,35.67-2.04
						C932.94,1422.67,934.17,1422.76,935.33,1423.03z M711.76,1385.27c0.71,0.17,1.41,0.4,2.1,0.72
						c10.77,4.98,21.91,9.55,33.09,13.6c5.73,2.08,8.69,8.41,6.62,14.14c-2.08,5.73-8.41,8.72-14.14,6.62
						c-11.76-4.27-23.48-9.08-34.81-14.31c-5.54-2.56-7.95-9.12-5.4-14.65C701.45,1386.55,706.76,1384.09,711.76,1385.27z
						 M839.22,1421.82c5.42,1.28,9.12,6.47,8.4,12.12c-0.76,6.05-6.29,10.33-12.34,9.57c-12.38-1.56-24.87-3.68-37.1-6.3
						c-0.08-0.01-0.15-0.03-0.23-0.05c-5.83-1.38-9.51-7.17-8.25-13.05c1.28-5.96,7.14-9.76,13.11-8.48
						c11.62,2.49,23.48,4.5,35.25,5.98C838.44,1421.66,838.84,1421.73,839.22,1421.82z"/>
					<path class="st3" d="M572.77,1282.61c2.12,0.5,4.11,1.63,5.67,3.37c3.8,4.24,7.75,8.46,11.75,12.57
						c4.25,4.37,4.16,11.36-0.21,15.61c-4.37,4.25-11.36,4.17-15.61-0.21c-4.2-4.32-8.36-8.76-12.36-13.22
						c-4.07-4.54-3.69-11.52,0.84-15.59C565.65,1282.63,569.37,1281.81,572.77,1282.61z"/>
				</g>
				<g class="st2">
					<path class="st3" d="M463.68,964.23c5.19,1.22,8.86,6.06,8.46,11.55c-0.42,5.67-0.72,11.46-0.9,17.18
						c-0.19,6.09-5.29,10.88-11.38,10.68c-6.12-0.2-10.88-5.29-10.68-11.38c0.19-6.02,0.51-12.11,0.95-18.09
						c0.44-6.08,5.73-10.65,11.82-10.21C462.53,964.01,463.11,964.1,463.68,964.23z"/>
					<path class="st3" d="M990.86,576.72c4.94,1.17,9.89,2.42,14.83,3.77c5.88,1.6,9.36,7.67,7.76,13.55
						c-1.6,5.88-7.7,9.37-13.55,7.76c-11.4-3.1-22.9-5.73-34.32-7.84c-6-1.12-9.96-6.87-8.85-12.86c1.11-6,6.87-9.96,12.86-8.85
						C976.65,573.55,983.8,575.06,990.86,576.72z M1060.75,599.59c0.6,0.14,1.2,0.34,1.79,0.59c11.34,4.81,22.6,10.15,33.47,15.88
						c5.39,2.84,7.46,9.52,4.62,14.91c-2.84,5.39-9.54,7.47-14.91,4.62c-10.32-5.44-21.02-10.51-31.8-15.09
						c-5.61-2.38-8.23-8.86-5.85-14.47C1050.19,601,1055.61,598.38,1060.75,599.59z M911.87,565.67c5.07,1.2,8.73,5.86,8.48,11.24
						c-0.28,6.09-5.44,10.8-11.53,10.52c-11.65-0.54-23.48-0.58-35.17-0.12c-6.09,0.23-11.22-4.51-11.46-10.6
						c-0.24-6.09,4.51-11.22,10.6-11.46c12.31-0.48,24.77-0.43,37.04,0.13C910.53,565.42,911.21,565.52,911.87,565.67z
						 M1143.29,645.92c1.36,0.32,2.69,0.91,3.89,1.78c10,7.18,19.81,14.87,29.16,22.86c4.63,3.96,5.18,10.93,1.22,15.56
						c-3.96,4.64-10.93,5.19-15.56,1.22c-8.88-7.59-18.19-14.89-27.69-21.7c-4.95-3.55-6.09-10.45-2.53-15.4
						C1134.47,646.49,1139.07,644.92,1143.29,645.92z M817.49,571.84c4.15,0.98,7.54,4.34,8.34,8.81c1.07,6-2.93,11.74-8.94,12.8
						c-11.48,2.04-23.03,4.6-34.33,7.61c-5.89,1.57-11.94-1.93-13.51-7.83c-1.57-5.89,1.94-11.94,7.83-13.5
						c11.9-3.17,24.06-5.87,36.15-8.02C814.56,571.44,816.07,571.5,817.49,571.84z M726.75,598.56c3.32,0.78,6.23,3.09,7.65,6.48
						c2.35,5.62-0.3,12.09-5.92,14.45c-10.78,4.52-21.51,9.54-31.86,14.93c-5.4,2.82-12.07,0.72-14.89-4.69
						c-2.81-5.41-0.71-12.07,4.7-14.89c10.9-5.67,22.18-10.96,33.53-15.71C722.19,598.19,724.56,598.04,726.75,598.56z
						 M643.99,644.43c2.53,0.6,4.85,2.08,6.47,4.37c3.52,4.97,2.34,11.86-2.63,15.39c-9.55,6.76-18.92,13.99-27.85,21.51
						c-4.66,3.92-11.62,3.33-15.55-1.34c-3.92-4.67-3.32-11.63,1.34-15.55c9.4-7.9,19.26-15.52,29.31-22.64
						C637.77,644.26,641.02,643.73,643.99,644.43z M573.21,707.25c1.75,0.41,3.42,1.26,4.85,2.55c4.53,4.09,4.88,11.06,0.79,15.59
						c-7.84,8.68-15.39,17.79-22.46,27.09c-3.69,4.85-10.62,5.8-15.47,2.11c-4.86-3.69-5.8-10.62-2.11-15.47
						c7.44-9.79,15.4-19.39,23.65-28.52C565.27,707.5,569.42,706.36,573.21,707.25z M517.93,784.11c0.98,0.23,1.95,0.61,2.88,1.13
						c5.31,2.99,7.2,9.72,4.21,15.03c-5.72,10.17-11.08,20.72-15.93,31.36c-2.53,5.55-9.09,7.98-14.62,5.46
						c-5.55-2.53-7.99-9.08-5.46-14.63c5.11-11.2,10.75-22.3,16.77-33.01C508.24,785.06,513.27,783.01,517.93,784.11z
						 M480.91,871.18c0.22,0.05,0.44,0.11,0.66,0.18c5.84,1.76,9.14,7.92,7.38,13.75c-2.48,8.24-4.74,16.65-6.72,25.01
						c-0.71,3.03-1.39,6.06-2.04,9.08c-1.27,5.96-7.14,9.77-13.1,8.49c-6.06-1.17-9.76-7.13-8.49-13.09
						c0.68-3.19,1.39-6.37,2.14-9.55c2.08-8.79,4.45-17.65,7.07-26.31C469.51,873.12,475.28,869.85,480.91,871.18z"/>
					<path class="st3" d="M1213.77,709.5c2.14,0.5,4.14,1.65,5.71,3.41c3.97,4.47,7.92,9.1,11.74,13.78
						c3.86,4.72,3.16,11.68-1.56,15.53c-4.72,3.86-11.67,3.16-15.53-1.56c-3.63-4.44-7.38-8.85-11.15-13.09
						c-4.05-4.55-3.64-11.53,0.92-15.58C1206.69,709.5,1210.4,708.7,1213.77,709.5z"/>
				</g>
				<g>
					<path class="st3" d="M1169.86,830.69c-0.96-1.98-3.08-3.13-5.26-2.87l-62.34,7.55c-18.5-22.75-40.76-42.72-66.28-58.82
						l0.05-62.75c0-2.2-1.39-4.16-3.47-4.88l-71.19-24.61c-2.08-0.72-4.39-0.04-5.75,1.69l-38.72,49.39
						c-30.02-3.09-59.86-1.14-88.46,5.34l-44.37-44.44c-1.56-1.56-3.93-1.96-5.91-0.99l-67.74,32.94c-1.98,0.96-3.13,3.08-2.87,5.26
						l7.55,62.34c-22.75,18.5-42.72,40.76-58.82,66.29l-62.75-0.05c-2.2,0-4.16,1.39-4.88,3.47l-24.61,71.19
						c-0.72,2.08-0.04,4.39,1.69,5.75l49.39,38.72c-3.09,30.02-1.14,59.86,5.34,88.46l-44.44,44.37c-1.56,1.55-1.96,3.93-0.99,5.91
						l32.94,67.74c0.96,1.98,3.08,3.13,5.26,2.87l62.34-7.55c18.5,22.75,40.76,42.72,66.28,58.82l-0.05,62.76
						c0,2.2,1.39,4.16,3.47,4.88l71.19,24.61c2.08,0.72,4.39,0.04,5.75-1.69l38.72-49.39c30.02,3.09,59.86,1.14,88.46-5.34
						l44.37,44.44c1.55,1.56,3.93,1.96,5.91,0.99l67.74-32.94c1.98-0.96,3.13-3.07,2.87-5.26l-7.55-62.34
						c22.75-18.5,42.72-40.76,58.82-66.28l62.75,0.05c2.2,0,4.16-1.39,4.88-3.47l24.61-71.19c0.72-2.08,0.04-4.39-1.69-5.75
						l-49.39-38.72c3.09-30.02,1.14-59.86-5.34-88.46l44.43-44.37c1.56-1.56,1.96-3.93,0.99-5.91L1169.86,830.69z"/>
					
						<linearGradient id="SVGID_00000178908903262080508830000016559917021130958216_" gradientUnits="userSpaceOnUse" x1="813.1935" y1="1009.1778" x2="964.6259" y2="1009.1778">
						<stop  offset="0" style="stop-color:#DAE3FE"/>
						<stop  offset="1" style="stop-color:#E9EFFD"/>
					</linearGradient>
					<path style="fill:url(#SVGID_00000178908903262080508830000016559917021130958216_);" d="M906.36,935.5
						c35.92,8.48,61.23,42.3,57.99,80.14c-3.57,41.6-40.31,72.53-81.9,68.97c-20.15-1.72-38.42-11.2-51.45-26.66
						c-13.03-15.47-19.25-35.08-17.52-55.23c3.57-41.6,40.31-72.53,81.9-68.97C899.13,934.07,902.8,934.66,906.36,935.5z
						 M875.45,1065.66c2.77,0.65,5.61,1.11,8.5,1.36c31.89,2.73,60.06-20.99,62.8-52.88c2.73-31.89-20.98-60.07-52.88-62.8
						c-31.89-2.74-60.06,20.99-62.8,52.88c-1.32,15.45,3.45,30.49,13.43,42.35C852.63,1056.21,863.41,1062.81,875.45,1065.66z"/>
					
						<linearGradient id="SVGID_00000013167203739220477720000015637643410132829329_" gradientUnits="userSpaceOnUse" x1="701.2731" y1="1009.953" x2="1073.7279" y2="1009.953">
						<stop  offset="0" style="stop-color:#DAE3FE"/>
						<stop  offset="1" style="stop-color:#E9EFFD"/>
					</linearGradient>
					<path style="fill:url(#SVGID_00000013167203739220477720000015637643410132829329_);" d="M929.98,828.72
						c6.17,1.46,12.3,3.23,18.37,5.33l0,0c1.91,0.66,3.81,1.35,5.7,2.07c9.32,3.56,18.34,7.86,26.92,12.82
						c0.12,0.07,0.23,0.14,0.35,0.2c0.33,0.19,0.66,0.39,0.99,0.58c0.64,0.38,1.28,0.76,1.92,1.15c1.68,1.02,2.44,2.97,2.01,4.79
						c-0.1,0.44-0.28,0.87-0.53,1.28c-1.26,2.09-3.98,2.74-6.06,1.48c-10.73-6.51-22.23-11.9-34.19-16.03
						c-59.39-20.54-122.39-7.55-168.31,28.87c-25.55,20.26-45.81,47.77-57.22,80.8c-2,5.79-3.7,11.64-5.09,17.53
						c-9.34,39.6-4.82,80.87,13.21,117.95c20.71,42.6,56.78,74.58,101.54,90.06c92.46,31.95,193.59-17.26,225.54-109.67
						c1.97-5.7,3.64-11.47,5.02-17.3c5.96-25.26,6.33-51.55,0.98-76.97c-0.14-0.66-0.12-1.31,0.02-1.92
						c0.38-1.61,1.66-2.94,3.39-3.31c2.39-0.49,4.73,1.02,5.23,3.41c5.61,26.69,5.23,54.29-1.03,80.81
						c-1.44,6.12-3.2,12.18-5.26,18.16c-33.54,97.03-139.78,148.66-236.77,115.13c-47-16.24-84.86-49.82-106.6-94.54
						c-18.93-38.93-23.68-82.25-13.87-123.83c1.46-6.18,3.24-12.32,5.34-18.4c16.25-47,49.82-84.86,94.54-106.6
						C845.06,823.64,888.4,818.9,929.98,828.72z"/>
				</g>
			</g>
			<g>
				<g class="st2">
					<path class="st3" d="M1768.21,801.83c2.87,0.68,5.07,3.17,5.24,6.27c0.31,5.78,0.45,11.65,0.41,17.44
						c-0.02,3.76-3.09,6.8-6.86,6.77c-3.77-0.01-6.8-3.1-6.77-6.86c0.03-5.52-0.1-11.11-0.39-16.63c-0.2-3.76,2.68-6.97,6.44-7.17
						C1766.94,801.62,1767.59,801.68,1768.21,801.83z"/>
					<path class="st3" d="M1766.2,854.24c3.36,0.79,5.65,4.02,5.19,7.52c-1.29,9.88-3.11,19.81-5.4,29.5
						c-0.48,2.04-0.99,4.08-1.52,6.13c-0.95,3.65-4.83,5.65-8.31,4.9c-3.65-0.94-5.84-4.66-4.9-8.31c0.51-1.95,0.99-3.91,1.45-5.86
						c2.18-9.25,3.92-18.72,5.15-28.14c0.49-3.74,3.91-6.36,7.64-5.88C1765.75,854.14,1765.98,854.18,1766.2,854.24z
						 M1748.48,922.77c0.31,0.07,0.63,0.17,0.94,0.29c3.51,1.38,5.23,5.34,3.85,8.84c-4.42,11.24-9.58,22.31-15.33,32.89
						c-1.8,3.31-5.95,4.52-9.25,2.74c-3.31-1.8-4.53-5.93-2.74-9.24c5.49-10.1,10.4-20.65,14.62-31.38
						C1741.84,923.72,1745.23,922.01,1748.48,922.77z M1714.67,984.97c0.84,0.2,1.66,0.56,2.41,1.1c3.06,2.19,3.76,6.46,1.56,9.52
						c-7.03,9.8-14.76,19.27-22.96,28.14c-2.56,2.77-6.86,2.94-9.64,0.37c-2.76-2.55-2.93-6.87-0.38-9.63
						c7.82-8.46,15.19-17.48,21.89-26.83C1709.22,985.32,1712.06,984.35,1714.67,984.97z M1666.6,1036.95
						c1.37,0.32,2.66,1.08,3.64,2.23c2.43,2.88,2.06,7.18-0.81,9.61c-9.24,7.79-19.04,15.08-29.14,21.66
						c-3.16,2.05-7.38,1.15-9.43-1.99c-2.06-3.15-1.17-7.38,1.99-9.44c9.62-6.27,18.98-13.22,27.78-20.65
						C1662.35,1036.92,1664.57,1036.47,1666.6,1036.95z M1607.3,1075.61c1.92,0.45,3.63,1.73,4.56,3.64
						c1.65,3.38,0.25,7.46-3.13,9.12c-10.84,5.3-22.12,9.99-33.5,13.92c-3.56,1.24-7.44-0.66-8.67-4.22
						c-1.23-3.56,0.66-7.44,4.22-8.67c10.87-3.76,21.62-8.22,31.97-13.29C1604.21,1075.4,1605.82,1075.26,1607.3,1075.61z
						 M1540.41,1098.71c2.48,0.59,4.54,2.56,5.11,5.22c0.78,3.68-1.57,7.3-5.25,8.08c-11.81,2.51-23.88,4.3-35.88,5.33
						c-3.76,0.31-7.05-2.47-7.37-6.22c-0.32-3.75,2.46-7.05,6.21-7.37c11.45-0.98,22.95-2.69,34.21-5.08
						C1538.45,1098.46,1539.46,1098.48,1540.41,1098.71z M1469.93,1104.75c3.11,0.73,5.37,3.59,5.24,6.89
						c-0.15,3.76-3.31,6.7-7.08,6.55c-12.02-0.46-24.17-1.69-36.11-3.64c-3.71-0.67-6.24-4.12-5.63-7.83
						c0.61-3.72,4.11-6.23,7.83-5.63c11.39,1.87,22.98,3.04,34.44,3.48C1469.07,1104.58,1469.51,1104.65,1469.93,1104.75z
						 M1366.71,1081.27c0.38,0.09,0.77,0.22,1.14,0.38c9.13,3.94,18.63,7.45,28.24,10.43c1.45,0.46,2.89,0.89,4.32,1.31
						c3.62,1.06,5.69,4.84,4.64,8.46c-1.05,3.62-4.89,5.8-8.45,4.64c-1.53-0.45-3.05-0.91-4.58-1.39
						c-10.05-3.12-20.01-6.8-29.58-10.93c-3.46-1.49-5.05-5.5-3.56-8.96C1360.22,1082.12,1363.55,1080.52,1366.71,1081.27z"/>
				</g>
				<g class="st2">
					<path class="st3" d="M1543.08,536.37c3.62,0.86,5.9,4.47,5.09,8.12c-0.82,3.67-4.46,5.99-8.13,5.17
						c-11.07-2.46-22.38-4.27-33.62-5.37c-3.72-0.4-6.49-3.7-6.12-7.45c0.37-3.75,3.71-6.49,7.45-6.12
						c11.79,1.16,23.64,3.05,35.24,5.63C1543.02,536.36,1543.05,536.36,1543.08,536.37z M1576.61,545.98
						c0.24,0.06,0.47,0.13,0.71,0.21c11.2,3.94,22.26,8.61,32.9,13.86c3.37,1.67,4.76,5.76,3.09,9.13c-1.67,3.38-5.77,4.75-9.13,3.1
						c-10.15-5.02-20.71-9.47-31.39-13.23c-3.55-1.25-5.41-5.14-4.16-8.69C1569.8,547.03,1573.27,545.19,1576.61,545.98z
						 M1473.8,529.59c2.94,0.69,5.17,3.3,5.25,6.47c0.09,3.76-2.88,6.89-6.64,6.98c-11.34,0.29-22.75,1.27-33.93,2.92
						c-3.73,0.53-7.19-2.03-7.74-5.75c-0.55-3.72,2.03-7.19,5.75-7.74c11.72-1.73,23.68-2.75,35.57-3.05
						C1472.66,529.4,1473.24,529.46,1473.8,529.59z M1639.04,576.88c0.75,0.18,1.49,0.49,2.18,0.94
						c9.93,6.52,19.55,13.73,28.59,21.41c2.87,2.44,3.22,6.74,0.78,9.61c-2.43,2.86-6.74,3.21-9.61,0.78
						c-8.63-7.32-17.8-14.19-27.26-20.41c-3.14-2.07-4.02-6.3-1.95-9.44C1633.4,577.31,1636.33,576.24,1639.04,576.88z
						 M1404.93,539.76c2.35,0.55,4.33,2.34,5.01,4.83c1,3.64-1.14,7.39-4.77,8.38c-10.91,2.99-21.75,6.69-32.22,10.99
						c-3.49,1.43-7.47-0.24-8.9-3.72c-1.43-3.48,0.24-7.47,3.72-8.9c10.98-4.5,22.35-8.38,33.79-11.52
						C1402.71,539.51,1403.86,539.51,1404.93,539.76z M1340.52,566.15c1.8,0.42,3.42,1.57,4.39,3.31c1.84,3.29,0.66,7.44-2.62,9.28
						c-9.9,5.54-19.55,11.72-28.68,18.38c-3.05,2.22-7.31,1.55-9.53-1.49c-2.22-3.04-1.55-7.3,1.49-9.52
						c9.57-6.98,19.68-13.47,30.06-19.27C1337.17,565.97,1338.92,565.78,1340.52,566.15z M1284.27,607.22
						c1.26,0.3,2.46,0.96,3.41,1.98c2.57,2.75,2.43,7.07-0.33,9.64c-8.29,7.74-16.17,16.06-23.43,24.72
						c-2.42,2.88-6.72,3.26-9.6,0.85c-2.89-2.42-3.27-6.72-0.85-9.61c7.61-9.08,15.88-17.81,24.57-25.93
						C1279.78,607.26,1282.13,606.72,1284.27,607.22z"/>
					<path class="st3" d="M1692.37,622.17c1.28,0.3,2.49,0.98,3.44,2.02c3.95,4.29,7.8,8.72,11.43,13.16
						c2.38,2.92,1.95,7.21-0.97,9.6c-2.92,2.37-7.21,1.94-9.6-0.97c-3.46-4.24-7.13-8.46-10.9-12.56c-2.55-2.77-2.37-7.09,0.4-9.63
						C1687.91,622.2,1690.24,621.67,1692.37,622.17z"/>
				</g>
				<g>
					<path class="st3" d="M1666.61,706.59c-0.64-1.32-2.06-2.09-3.52-1.92l-41.71,5.05c-12.38-15.22-27.28-28.59-44.35-39.36
						l0.03-41.99c0-1.47-0.93-2.78-2.32-3.27l-47.64-16.47c-1.39-0.48-2.94-0.03-3.85,1.13l-25.91,33.05
						c-20.09-2.07-40.06-0.76-59.19,3.57l-29.69-29.73c-1.04-1.04-2.63-1.31-3.95-0.66l-45.33,22.04c-1.32,0.64-2.1,2.06-1.92,3.52
						l5.05,41.71c-15.23,12.38-28.59,27.28-39.36,44.36l-41.99-0.03c-1.47,0-2.78,0.93-3.27,2.32l-16.47,47.64
						c-0.48,1.39-0.03,2.94,1.13,3.84l33.05,25.91c-2.07,20.09-0.76,40.06,3.57,59.19l-29.73,29.69c-1.04,1.04-1.31,2.63-0.67,3.95
						l22.04,45.33c0.64,1.32,2.06,2.09,3.52,1.92l41.71-5.05c12.38,15.23,27.28,28.59,44.35,39.36l-0.03,41.99
						c0,1.47,0.93,2.78,2.32,3.27l47.64,16.47c1.39,0.48,2.94,0.03,3.84-1.13l25.91-33.05c20.09,2.07,40.06,0.76,59.2-3.57
						l29.69,29.73c1.04,1.04,2.63,1.31,3.95,0.67l45.33-22.04c1.32-0.64,2.09-2.06,1.92-3.52l-5.05-41.71
						c15.23-12.38,28.59-27.28,39.36-44.36l41.99,0.03c1.47,0,2.78-0.93,3.26-2.33l16.47-47.64c0.48-1.39,0.03-2.94-1.13-3.85
						l-33.05-25.91c2.07-20.09,0.76-40.05-3.57-59.19l29.73-29.69c1.04-1.04,1.31-2.63,0.67-3.95L1666.61,706.59z"/>
					
						<linearGradient id="SVGID_00000131351232347083031790000002043767193138359220_" gradientUnits="userSpaceOnUse" x1="1427.0437" y1="826.0305" x2="1530.1924" y2="826.0305">
						<stop  offset="0" style="stop-color:#DAE3FE"/>
						<stop  offset="1" style="stop-color:#E9EFFD"/>
					</linearGradient>
					<path style="fill:url(#SVGID_00000131351232347083031790000002043767193138359220_);" d="M1490.57,775.86
						c10.7,2.53,20.28,8.39,27.49,16.96c8.87,10.54,13.11,23.9,11.93,37.63c-2.43,28.32-27.45,49.4-55.78,46.98
						c-28.37-2.48-49.41-27.46-46.98-55.79c1.17-13.73,7.63-26.17,18.16-35.04c10.54-8.88,23.9-13.12,37.63-11.93
						C1485.59,774.87,1488.11,775.28,1490.57,775.86z M1469.88,862.95c1.79,0.42,3.62,0.72,5.5,0.88
						c20.84,1.78,39.25-13.72,41.03-34.56c0.86-10.09-2.25-19.93-8.78-27.67c-6.53-7.75-15.68-12.49-25.78-13.37l0,0
						c-10.1-0.86-19.93,2.25-27.68,8.78c-7.75,6.53-12.5,15.68-13.36,25.78C1439.19,841.75,1451.88,858.7,1469.88,862.95z"/>
					
						<linearGradient id="SVGID_00000080191598296522454180000018393623011996262282_" gradientUnits="userSpaceOnUse" x1="1349.1936" y1="826.6123" x2="1606.1521" y2="826.6123">
						<stop  offset="0" style="stop-color:#DAE3FE"/>
						<stop  offset="1" style="stop-color:#E9EFFD"/>
					</linearGradient>
					<path style="fill:url(#SVGID_00000080191598296522454180000018393623011996262282_);" d="M1507.11,701.55
						c4.2,0.99,8.38,2.2,12.54,3.64c8.26,2.85,16.25,6.55,23.74,11c0.34,0.2,0.67,0.4,1.01,0.61c2.59,1.57,3.76,4.59,3.11,7.39
						c-0.16,0.68-0.43,1.35-0.81,1.98c-1.95,3.22-6.14,4.23-9.36,2.29c-6.96-4.22-14.41-7.71-22.13-10.38l0,0
						c-0.42-0.15-0.85-0.29-1.27-0.43c-18.34-6.14-37.51-7.48-56.06-4.2c-10.07,1.78-19.96,4.93-29.44,9.44
						c-0.08,0.04-0.15,0.07-0.23,0.11c-0.24,0.12-0.47,0.22-0.7,0.34c-27.58,13.41-48.28,36.76-58.3,65.74
						c-1.3,3.75-2.39,7.53-3.29,11.35c-6.05,25.64-3.12,52.35,8.55,76.36c13.41,27.58,36.76,48.28,65.74,58.29
						c28.97,10,60.13,8.15,87.71-5.26c27.58-13.41,48.28-36.76,58.3-65.74c1.28-3.69,2.36-7.43,3.25-11.2
						c3.86-16.36,4.1-33.37,0.63-49.83c-0.21-1.01-0.19-2.02,0.04-2.97c0.59-2.49,2.56-4.55,5.23-5.11c3.69-0.76,7.3,1.58,8.08,5.27
						c3.87,18.41,3.61,37.45-0.7,55.75c-1,4.22-2.21,8.41-3.63,12.53c-11.21,32.43-34.37,58.55-65.23,73.55
						c-30.85,15-65.69,17.12-98.12,5.88c-32.43-11.21-58.54-34.37-73.54-65.22c-13.06-26.86-16.34-56.75-9.57-85.43
						c1.01-4.26,2.23-8.5,3.68-12.69C1378.01,721.85,1443.81,686.61,1507.11,701.55z"/>
				</g>
			</g>
		</g>
		<g>
			
				<linearGradient id="SVGID_00000009586125254573797010000006559396507089762195_" gradientUnits="userSpaceOnUse" x1="-1297.8236" y1="901.0949" x2="-1342.1559" y2="2551.5864" gradientTransform="matrix(-1 0 0 1 -579.8593 0)">
				<stop  offset="0" style="stop-color:#09005D"/>
				<stop  offset="1" style="stop-color:#1A0F91"/>
			</linearGradient>
			<path style="fill:url(#SVGID_00000009586125254573797010000006559396507089762195_);" d="M537.71,2686.97
				c39.75-400.95,139.22-1396.79,160.94-1542.35c27.29-182.94,251.47-142.57,251.47-142.57l48,1851.3H685.55
				c-42.01,0-82.07-18.11-110.22-49.86C547.17,2771.74,533.49,2729.53,537.71,2686.97z"/>
			
				<linearGradient id="SVGID_00000035509649677310390060000008399148594096500413_" gradientUnits="userSpaceOnUse" x1="2004.1338" y1="3014.6851" x2="1959.3434" y2="-173.4538">
				<stop  offset="0" style="stop-color:#09005D"/>
				<stop  offset="1" style="stop-color:#1A0F91"/>
			</linearGradient>
			<path style="fill:url(#SVGID_00000035509649677310390060000008399148594096500413_);" d="M3066.5,2900.02
				c97.61-2.07,175.05-82.88,172.98-180.48L3207.6,1216.6c-1.76-82.92-68.19-149.91-151.09-152.37L875.18,999.51
				c-64.87-1.93-118.45,50.24-118.25,115.14l5.23,1723.22c0.18,60.98,50.36,109.95,111.33,108.66L3066.5,2900.02z"/>
			<g>
				
					<linearGradient id="SVGID_00000076580719503154970690000017204446517201258633_" gradientUnits="userSpaceOnUse" x1="-4617.4741" y1="3168.5466" x2="-2864.1008" y2="581.7053" gradientTransform="matrix(-0.0212 -0.9997 -0.9997 0.0212 3411.3328 -1525.9956)">
					<stop  offset="0" style="stop-color:#4F52FF"/>
					<stop  offset="1" style="stop-color:#4042E2"/>
				</linearGradient>
				<path style="fill:url(#SVGID_00000076580719503154970690000017204446517201258633_);" d="M3207.08,2773.85
					c31.23-0.48,54.82-28.45,49.97-59.31c-32.19-204.65-133.24-908.59-100.82-1493.06c1.48-26.65-19.18-49.32-45.86-50.17
					l-2191.16-69.9c-30.04-0.96-55.22,22.5-56.36,52.54c-9.32,245.72-44.02,1257.62,1.38,1617.32
					c2.76,21.89,21.59,38.16,43.65,37.82L3207.08,2773.85z"/>
				<path class="st3" d="M3151.72,2750.84c30.06-0.46,52.76-27.38,48.09-57.08c-30.97-196.94-128.22-874.38-97.03-1436.84
					c1.42-25.65-18.45-47.46-44.13-48.28L950,1141.38c-28.91-0.92-53.14,21.65-54.24,50.56c-8.97,236.47-42.37,1210.26,1.33,1556.42
					c2.66,21.07,20.78,36.72,42.01,36.39L3151.72,2750.84z"/>
			</g>
			<path class="st11" d="M1855.69,1565.99l3.22,151.86c0.49,23.18-18.09,42.27-41.28,42.4l-155.77,0.88
				c-22.68,0.13-41.27-17.97-41.75-40.64l-3.39-159.66c-0.51-24,19.37-43.43,43.35-42.36l155.93,6.91
				C1837.87,1526.35,1855.22,1544.11,1855.69,1565.99z"/>
			<path class="st11" d="M2400.29,1758.97l-155.77,0.88c-22.68,0.13-41.27-17.97-41.75-40.64l-2.88-135.79
				c-0.51-23.86,19.16-43.23,43-42.38l155.9,5.6c22,0.79,39.56,18.61,40.02,40.61l2.74,129.31
				C2442.06,1739.75,2423.47,1758.84,2400.29,1758.97z"/>
			<path class="st11" d="M2263.81,2435.42l148.17-1.44c24.82-0.24,45.22,19.53,45.74,44.35l2.94,138.76
				c0.52,24.65-18.75,45.19-43.39,46.23l-148.07,6.27c-25.38,1.07-46.68-18.92-47.22-44.31l-3.05-143.59
				C2218.41,2456.47,2238.58,2435.67,2263.81,2435.42z"/>
			<path class="st11" d="M2513.09,2613.75l-2.88-135.67c-0.53-24.79,19.3-45.24,44.09-45.48l149.73-1.45
				c24.4-0.24,44.44,19.2,44.96,43.59l2.77,130.79c0.51,24.22-18.43,44.41-42.64,45.44l-149.62,6.33
				C2534.56,2658.36,2513.62,2638.71,2513.09,2613.75z"/>
			<path class="st11" d="M2500.1,2001.26l-2.36-111.37c-0.57-26.9,21.1-48.99,48-48.94l142.98,0.26
				c26.04,0.05,47.28,20.88,47.83,46.91l2.26,106.43c0.56,26.25-20.11,48.06-46.35,48.92l-142.87,4.68
				C2522.92,2049.02,2500.67,2027.94,2500.1,2001.26z"/>
			<path class="st11" d="M2506.97,2324.9l-3.61-170.35c-0.52-24.39,18.68-44.66,43.07-45.46l146.22-4.78
				c26.67-0.87,48.92,20.2,49.49,46.88l3.64,171.8c0.53,24.96-19.56,45.48-44.52,45.48l-149.76,0.02
				C2527.27,2368.5,2507.48,2349.13,2506.97,2324.9z"/>
			
				<linearGradient id="SVGID_00000144322172598450724030000015403908999585643405_" gradientUnits="userSpaceOnUse" x1="2039.375" y1="1511.3489" x2="1943.0214" y2="2794.3689">
				<stop  offset="0" style="stop-color:#FF928E"/>
				<stop  offset="1" style="stop-color:#FE7062"/>
			</linearGradient>
			<path style="fill:url(#SVGID_00000144322172598450724030000015403908999585643405_);" d="M2108.98,1760.62l-155.77,0.88
				c-22.68,0.13-41.27-17.97-41.75-40.64l-3.14-147.91c-0.51-23.86,19.16-43.23,43-42.38l155.9,5.6c22,0.79,39.56,18.61,40.02,40.62
				l3,141.43C2150.75,1741.4,2132.16,1760.49,2108.98,1760.62z"/>
			<path class="st11" d="M2215.61,2324.18l-3.38-159.32c-0.53-24.81,19.01-45.44,43.82-46.25l148.1-4.85
				c25.22-0.83,46.25,19.1,46.79,44.33l3.48,164.15c0.54,25.39-19.9,46.27-45.3,46.27l-148.2,0.02
				C2236.26,2368.53,2216.13,2348.82,2215.61,2324.18z"/>
			<path class="st11" d="M1949.16,1839.87l170.1,0.31c18.67,0.03,33.9,14.97,34.3,33.64l3.25,153.19
				c0.4,18.82-14.42,34.46-33.24,35.08l-169.98,5.56c-19.12,0.63-35.08-14.49-35.48-33.62l-3.37-159.07
				C1914.33,1855.68,1929.87,1839.83,1949.16,1839.87z"/>
			<path class="st11" d="M1862.39,1881.91l3.1,145.9c0.5,23.66-18.12,43.31-41.77,44.09l-152.33,4.99
				c-24.04,0.79-44.09-18.21-44.6-42.25l-3.21-151.16c-0.51-24.24,19.02-44.16,43.26-44.11l152.45,0.28
				C1842.75,1839.68,1861.89,1858.45,1862.39,1881.91z"/>
			<path class="st11" d="M2414.72,2052.56l-169.98,5.56c-19.13,0.63-35.08-14.49-35.48-33.62l-3.16-149.01
				c-0.41-19.29,15.13-35.13,34.42-35.1l170.11,0.31c18.67,0.04,33.9,14.97,34.3,33.64l3.04,143.14
				C2448.35,2036.3,2433.53,2051.94,2414.72,2052.56z"/>
			<path class="st11" d="M1964.91,2128.14l148.1-4.85c25.21-0.83,46.25,19.1,46.79,44.33l3.28,154.65
				c0.54,25.39-19.9,46.27-45.3,46.27l-148.2,0.02c-24.65,0-44.78-19.7-45.31-44.35l-3.18-149.82
				C1920.56,2149.57,1940.1,2128.95,1964.91,2128.14z"/>
			<path class="st11" d="M1668.64,2137.83l158.47-5.19c22.33-0.73,40.96,16.92,41.43,39.25l3.3,155.7
				c0.48,22.49-17.62,40.97-40.11,40.98l-158.58,0.02c-21.83,0-39.66-17.45-40.12-39.28l-3.19-150.53
				C1629.37,2156.81,1646.67,2138.55,1668.64,2137.83z"/>
			<path class="st11" d="M2669.81,1755.44l-118.23,0.67c-31.45,0.18-57.22-24.91-57.88-56.35l-2.07-97.54
				c-0.63-29.47,23.66-53.41,53.12-52.35l131.57,4.72c29.85,1.07,53.68,25.25,54.31,55.12l1.73,81.46
				C2733.12,1726.3,2704.95,1755.24,2669.81,1755.44z"/>
			<path class="st11" d="M2801.57,2478.69c-0.57-26.68,20.77-48.68,47.45-48.94l51.5-0.5c39.14-0.38,71.15,25.49,71.84,58.07
				l2,94.29c0.68,32.32-29.7,59.39-68.48,61.04l-55.29,2.34c-24.94,1.06-45.88-18.59-46.41-43.55L2801.57,2478.69z"/>
			<path class="st11" d="M1145.53,2446.27l101.28-0.98c24.84-0.24,45.25,19.55,45.78,44.39l3.75,176.67
				c0.52,24.67-18.77,45.23-43.42,46.27l-100.82,4.27c-40.2,1.7-73.93-24.51-74.64-58l-3.22-151.51
				C1073.54,2474.16,1105.61,2446.66,1145.53,2446.27z"/>
			<path class="st11" d="M2896.43,2368.46l-50.27,0.01c-26.08,0-47.37-20.84-47.92-46.91l-3.67-173.17
				c-0.56-26.25,20.11-48.06,46.35-48.92l50.6-1.66c39.9-1.31,73.11,24.81,73.82,58.03l3.21,151.5
				C2969.26,2340.84,2936.67,2368.45,2896.43,2368.46z"/>
			<path class="st11" d="M2892.2,2036.93l-63.29,2.07c-20.17,0.66-37-15.28-37.42-35.46l-2.65-125.08
				c-0.43-20.34,15.96-37.05,36.3-37.02l63.91,0.12c38.76,0.07,70.16,25.81,70.85,58.08l1.62,76.22
				C2962.2,2008.45,2931.33,2035.65,2892.2,2036.93z"/>
			<path class="st13" d="M1129.35,1499.04l101.57,3.65c22.88,0.82,41.15,19.36,41.63,42.25l3.7,174.51
				c0.51,24.11-18.82,43.97-42.94,44.11l-104.58,0.59c-39.01,0.22-70.8-25.61-71.49-58.07l-3.1-145.97
				C1053.42,1525.58,1087.94,1497.55,1129.35,1499.04z"/>
			<path class="st11" d="M1972.53,2438.25l148.17-1.44c24.82-0.24,45.22,19.53,45.74,44.35l3.14,148.25
				c0.52,24.65-18.75,45.19-43.39,46.23l-148.07,6.27c-25.38,1.08-46.68-18.92-47.22-44.31l-3.25-153.09
				C1927.13,2459.3,1947.3,2438.49,1972.53,2438.25z"/>
			<path class="st11" d="M1133.62,1838.4l102.95,0.19c23.47,0.04,42.61,18.82,43.11,42.28l3.52,166.01
				c0.5,23.66-18.12,43.31-41.77,44.09l-103.36,3.38c-39.89,1.31-73.11-24.81-73.81-58.03l-2.9-136.8
				C1060.64,1865.96,1093.32,1838.32,1133.62,1838.4z"/>
			<path class="st11" d="M1137.37,2155.22l107.45-3.52c22.33-0.73,40.96,16.92,41.43,39.25l2.9,136.71
				c0.48,22.49-17.62,40.97-40.11,40.98l-107.97,0.01c-38.82,0-70.32-25.76-71.01-58.08l-2-94.29
				C1067.38,2183.7,1098.25,2156.5,1137.37,2155.22z"/>
			<path class="st11" d="M1577.4,2181.43l3.1,146.2c0.48,22.49-17.62,40.98-40.11,40.98l-158.58,0.02
				c-21.83,0-39.66-17.45-40.12-39.28l-2.99-141.03c-0.47-21.97,16.84-40.24,38.8-40.95l158.47-5.19
				C1558.3,2141.44,1576.92,2159.09,1577.4,2181.43z"/>
			<path class="st11" d="M1390,2443.9l148.1-1.44c24.84-0.24,45.25,19.55,45.78,44.39l3.55,167.17
				c0.52,24.67-18.77,45.23-43.42,46.27l-148,6.26c-25.4,1.08-46.72-18.93-47.26-44.35l-3.65-172
				C1344.56,2464.97,1364.75,2444.14,1390,2443.9z"/>
			<path class="st11" d="M2883.88,1754.23l-61.98,0.35c-19.8,0.11-36.02-15.68-36.44-35.48l-2.59-122.33
				c-0.44-20.83,16.72-37.74,37.54-36.99l65.64,2.36c37.57,1.35,67.26,26.7,67.92,58.02l1.55,72.97
				C2956.22,1726.45,2923.93,1754,2883.88,1754.23z"/>
			<path class="st11" d="M1681.28,2441.07l145.6-1.41c26.22-0.25,47.77,20.64,48.33,46.85l3.29,155.19
				c0.52,24.67-18.77,45.23-43.42,46.27l-147.99,6.26c-25.4,1.07-46.72-18.93-47.26-44.35l-3.45-162.51
				C1635.85,2462.14,1656.03,2441.32,1681.28,2441.07z"/>
			<path class="st11" d="M1564.12,1555.41l3.45,162.39c0.51,24.11-18.82,43.97-42.94,44.11l-152.42,0.86
				c-23.59,0.13-42.93-18.69-43.43-42.28l-3.58-168.73c-0.53-24.82,19.93-44.97,44.74-44.08l152.56,5.48
				C1545.37,1513.98,1563.63,1532.52,1564.12,1555.41z"/>
			<path class="st11" d="M1571.03,1881.39l3.31,155.96c0.5,23.66-18.12,43.31-41.77,44.09l-152.34,4.99
				c-24.04,0.79-44.09-18.21-44.6-42.26l-3.42-161.22c-0.52-24.24,19.02-44.15,43.26-44.11l152.45,0.27
				C1551.4,1839.15,1570.54,1857.92,1571.03,1881.39z"/>
			<path class="st0" d="M2900.79,1430.58l-7.02,51.43c-2.25,16.47-16.14,28.85-32.75,29.21l-2.43,0.05
				c-18.65,0.4-34.09-14.4-34.49-33.06l-1.12-52.64c-0.43-20.4,17.18-36.52,37.47-34.29l10.56,1.16
				C2889.9,1394.51,2903.35,1411.75,2900.79,1430.58z"/>
			<path class="st0" d="M2662.09,1417.34l-7.02,51.43c-2.25,16.47-16.14,28.85-32.75,29.21l-2.43,0.05
				c-18.65,0.39-34.09-14.4-34.49-33.06l-1.12-52.64c-0.43-20.4,17.18-36.53,37.47-34.29l10.56,1.16
				C2651.2,1381.27,2664.66,1398.51,2662.09,1417.34z"/>
			<path class="st0" d="M2368.41,1421.38l-7.02,51.43c-2.25,16.47-16.14,28.85-32.75,29.21l-2.43,0.05
				c-18.65,0.4-34.09-14.4-34.49-33.06l-1.12-52.64c-0.43-20.4,17.18-36.52,37.47-34.29l10.56,1.16
				C2357.52,1385.32,2370.98,1402.56,2368.41,1421.38z"/>
			<path class="st0" d="M2082.28,1408.57l-7.02,51.42c-2.25,16.47-16.14,28.85-32.75,29.21l-2.43,0.05
				c-18.65,0.4-34.09-14.4-34.49-33.05l-1.12-52.64c-0.43-20.4,17.18-36.52,37.47-34.29l10.57,1.16
				C2071.39,1372.5,2084.85,1389.74,2082.28,1408.57z"/>
			<path class="st0" d="M1788.4,1371.2l-7.02,51.43c-2.25,16.46-16.14,28.85-32.75,29.21l-2.43,0.05
				c-18.65,0.4-34.09-14.41-34.49-33.06l-1.12-52.64c-0.43-20.4,17.18-36.53,37.47-34.3l10.56,1.16
				C1777.51,1335.13,1790.96,1352.37,1788.4,1371.2z"/>
			<path class="st0" d="M1477.07,1377.8l-7.02,51.43c-2.25,16.47-16.14,28.85-32.75,29.2l-2.43,0.05
				c-18.65,0.4-34.09-14.4-34.49-33.06l-1.12-52.64c-0.43-20.4,17.18-36.53,37.47-34.29l10.57,1.16
				C1466.18,1341.74,1479.64,1358.98,1477.07,1377.8z"/>
			<path class="st0" d="M1214.29,1372.3l-7.02,51.43c-2.25,16.47-16.14,28.85-32.75,29.21l-2.43,0.05
				c-18.65,0.4-34.09-14.4-34.49-33.06l-1.12-52.64c-0.43-20.4,17.18-36.52,37.47-34.29l10.56,1.16
				C1203.4,1336.23,1216.86,1353.47,1214.29,1372.3z"/>
			<g>
				
					<linearGradient id="SVGID_00000176742954818493141350000016127979615893931150_" gradientUnits="userSpaceOnUse" x1="1297.8936" y1="-8430.2207" x2="838.0805" y2="-7098.1128" gradientTransform="matrix(-1 0 0 1 -579.8593 0)">
					<stop  offset="0" style="stop-color:#FF928E"/>
					<stop  offset="1" style="stop-color:#FE7062"/>
				</linearGradient>
				<path style="fill:url(#SVGID_00000176742954818493141350000016127979615893931150_);" d="M1634.5,1952.92
					c0.65-11.11,12.26-15.88,20.81-9.14c24.15,19.02,33.97,48.57,45.87,76.13c13.87,32.11,27.16,64.48,38.97,97.41
					c12.45,34.72,23.06,70.06,31.15,105.95c16.03-42.87,34.66-84.62,58.28-124.24c6.27-10.52,23.99-4.37,20.47,8.13
					c-20.43,72.63-45.57,143.78-64.81,216.77c-6.79,25.76-42.02,19.67-44.64-5.08c-7.16-67.6-23.49-132.27-46.66-196.11
					c-11.02-30.35-23.32-60.23-36.06-89.9C1646.6,2006.58,1632.8,1982.09,1634.5,1952.92z"/>
				
					<linearGradient id="SVGID_00000083793471743014367420000012379758701240371378_" gradientUnits="userSpaceOnUse" x1="1350.2529" y1="-8412.124" x2="890.439" y2="-7080.0132" gradientTransform="matrix(-1 0 0 1 -579.8593 0)">
					<stop  offset="0" style="stop-color:#FF928E"/>
					<stop  offset="1" style="stop-color:#FE7062"/>
				</linearGradient>
				<path style="fill:url(#SVGID_00000083793471743014367420000012379758701240371378_);" d="M1601.32,2006.79
					c21.01-3.93,28.65,22.96,9.39,31.44c-127.49,56.09-144.16,214.15-52.06,309.85c42.6,44.26,99.12,78.62,152.64,108.15
					c54.28,29.95,114.88,52.84,177.87,46.51c146.01-14.67,165.86-163.28,122.21-277.95c-41.99-110.29-131.91-195.44-242-236.26
					c-14.22-5.27-8.71-28.42,5.87-23.2c103.29,37.04,191.21,110.11,245.67,205.73c50.1,87.95,80.15,212.02,14.57,300.31
					c-67.86,91.36-196.67,93-293.72,54.91c-106.75-41.89-239.67-119.62-282.17-232.41
					C1415.08,2175.72,1470.02,2031.36,1601.32,2006.79z"/>
			</g>
			<g>
				<path class="st0" d="M756.93,2824.82c3.04,0,5.51-2.45,5.53-5.49l6.72-970.31c0.02-3.05-2.44-5.55-5.49-5.57
					c-0.01,0-0.03,0-0.03,0c-3.05,0-5.52,2.45-5.54,5.49l-6.72,970.31c-0.02,3.05,2.44,5.55,5.49,5.57
					C756.89,2824.82,756.92,2824.82,756.93,2824.82z"/>
				<path class="st3" d="M765.19,1631.71c3.04,0,5.51-2.45,5.53-5.49l2.35-338.89c0.02-3.05-2.44-5.55-5.49-5.57
					c-0.01,0-0.03,0-0.03,0c-3.05,0-5.52,2.45-5.54,5.49l-2.35,338.89c-0.02,3.06,2.44,5.55,5.49,5.57L765.19,1631.71z"/>
			</g>
			
				<linearGradient id="SVGID_00000084509749140794678510000002604339500130141869_" gradientUnits="userSpaceOnUse" x1="-3341.9575" y1="1133.0902" x2="-3484.5056" y2="1409.6331" gradientTransform="matrix(-1 0 0 1 -579.8593 0)">
				<stop  offset="0" style="stop-color:#4F52FF"/>
				<stop  offset="1" style="stop-color:#4042E2"/>
			</linearGradient>
			<circle style="fill:url(#SVGID_00000084509749140794678510000002604339500130141869_);" cx="2841.98" cy="1288.06" r="59.12"/>
			
				<linearGradient id="SVGID_00000170972644943764723530000007939006619088851123_" gradientUnits="userSpaceOnUse" x1="-2857.5522" y1="1128.5419" x2="-3000.1001" y2="1405.0846" gradientTransform="matrix(-1 0 0 1 -579.8593 0)">
				<stop  offset="0" style="stop-color:#4F52FF"/>
				<stop  offset="1" style="stop-color:#4042E2"/>
			</linearGradient>
			<circle style="fill:url(#SVGID_00000170972644943764723530000007939006619088851123_);" cx="2357.57" cy="1283.51" r="59.12"/>
			
				<linearGradient id="SVGID_00000104670344825571551480000017766819339146922680_" gradientUnits="userSpaceOnUse" x1="-2368.5984" y1="1112.6226" x2="-2511.1462" y2="1389.1652" gradientTransform="matrix(-1 0 0 1 -579.8593 0)">
				<stop  offset="0" style="stop-color:#4F52FF"/>
				<stop  offset="1" style="stop-color:#4042E2"/>
			</linearGradient>
			<circle style="fill:url(#SVGID_00000104670344825571551480000017766819339146922680_);" cx="1868.62" cy="1267.59" r="59.12"/>
			
				<linearGradient id="SVGID_00000049200977893211011660000008805831822586561974_" gradientUnits="userSpaceOnUse" x1="-1884.1929" y1="1089.8804" x2="-2026.741" y2="1366.4231" gradientTransform="matrix(-1 0 0 1 -579.8593 0)">
				<stop  offset="0" style="stop-color:#4F52FF"/>
				<stop  offset="1" style="stop-color:#4042E2"/>
			</linearGradient>
			<circle style="fill:url(#SVGID_00000049200977893211011660000008805831822586561974_);" cx="1384.21" cy="1244.85" r="59.12"/>
			<g>
				
					<linearGradient id="SVGID_00000045576729022011907860000017938011989222177933_" gradientUnits="userSpaceOnUse" x1="-1631.3983" y1="487.655" x2="-2148.8699" y2="1491.5485" gradientTransform="matrix(-1 0 0 1 -579.8593 0)">
					<stop  offset="0" style="stop-color:#FF928E"/>
					<stop  offset="1" style="stop-color:#FE7062"/>
				</linearGradient>
				<path style="fill:url(#SVGID_00000045576729022011907860000017938011989222177933_);" d="M1339.25,835.18
					c99.49,21.71,90.1,283.45,82.1,389.72c-1.88,25.01-22.71,44.3-47.79,44.3c-6.96,0-13.59-3-18.25-8.18
					c-4.65-5.18-6.87-12.11-6.13-19.03c8.59-80.32,26.88-311.61-46.36-323.98c0,0-52.54-9.3-61.38,92.47h-56.84
					C1184.6,1010.47,1214.17,807.89,1339.25,835.18z"/>
				
					<linearGradient id="SVGID_00000132811083914246081210000010766121027829165988_" gradientUnits="userSpaceOnUse" x1="-2115.7732" y1="500.9683" x2="-2633.4023" y2="1505.1677" gradientTransform="matrix(-1 0 0 1 -579.8593 0)">
					<stop  offset="0" style="stop-color:#FF928E"/>
					<stop  offset="1" style="stop-color:#FE7062"/>
				</linearGradient>
				<path style="fill:url(#SVGID_00000132811083914246081210000010766121027829165988_);" d="M1823.65,848.64
					c99.49,21.71,90.1,283.54,82.1,389.81c-1.88,25.01-22.71,44.34-47.79,44.34c-6.96,0-13.59-2.97-18.24-8.16
					c-4.65-5.18-6.87-12.1-6.13-19.02c8.59-80.32,26.88-311.79-46.36-324.16c0,0-52.54-7.26-61.38,92.29h-56.84
					C1669.01,1023.74,1698.57,821.35,1823.65,848.64z"/>
				
					<linearGradient id="SVGID_00000085972178742236512760000009539301576772389504_" gradientUnits="userSpaceOnUse" x1="-2600.1584" y1="514.3956" x2="-3117.8911" y2="1518.7957" gradientTransform="matrix(-1 0 0 1 -579.8593 0)">
					<stop  offset="0" style="stop-color:#FF928E"/>
					<stop  offset="1" style="stop-color:#FE7062"/>
				</linearGradient>
				<path style="fill:url(#SVGID_00000085972178742236512760000009539301576772389504_);" d="M2308.06,862.16
					c99.49,21.71,90.1,283.6,82.1,389.87c-1.88,25.01-22.71,44.37-47.79,44.37c-6.96,0-13.59-2.96-18.24-8.14
					c-4.65-5.18-6.87-12.09-6.13-19.01c8.59-80.32,26.88-311.91-46.36-324.28c0,0-52.51-5.91-61.35,94.15l-56.86-1.98
					C2153.41,1037.15,2182.98,834.87,2308.06,862.16z"/>
				
					<linearGradient id="SVGID_00000066477073617433374440000017265922712646737820_" gradientUnits="userSpaceOnUse" x1="-3084.5176" y1="529.814" x2="-3602.488" y2="1534.6755" gradientTransform="matrix(-1 0 0 1 -579.8593 0)">
					<stop  offset="0" style="stop-color:#FF928E"/>
					<stop  offset="1" style="stop-color:#FE7062"/>
				</linearGradient>
				<path style="fill:url(#SVGID_00000066477073617433374440000017265922712646737820_);" d="M2792.47,877.8
					c99.49,21.71,90.1,283.74,82.1,390.01c-1.88,25.01-22.71,44.44-47.79,44.44c-6.96,0-13.59-2.92-18.25-8.11
					c-4.65-5.18-6.87-12.08-6.13-19c8.59-80.32,26.88-312.18-46.36-324.55c0,0-52.54-7.65-61.38,91.9h-56.84
					C2637.82,1052.5,2667.38,850.51,2792.47,877.8z"/>
			</g>
		</g>
		<g>
			<g>
				<g>
					
						<linearGradient id="SVGID_00000035522898744620241720000005132391103173347980_" gradientUnits="userSpaceOnUse" x1="1035.2223" y1="1695.6958" x2="815.1114" y2="1966.2911" gradientTransform="matrix(-1 0 0 1 1938 0)">
						<stop  offset="0" style="stop-color:#FEBBBA"/>
						<stop  offset="1" style="stop-color:#FF928E"/>
					</linearGradient>
					<path style="fill:url(#SVGID_00000035522898744620241720000005132391103173347980_);" d="M843.54,1841.37l54.49,172.8
						c0,0,63.23,46.6,143.86,2.12c12.39-6.79,25.2-15.7,38.19-27.33c97.86-87.34,32.93-214.39,32.93-214.39s74.69-30.13,41.5-93.53
						c-2.29-4.33-8.66-3.65-10.02,1.1c-4.84,17.48-16.64,48.04-41.34,58.9c-1.27,0.51-2.46,1.1-3.56,1.61
						c-1.1-3.31-1.1-7.21,1.53-11.37c7.73-11.71-6.19-27.75-6.19-27.75s-0.93,14.17-11.63,23c-9.25,7.72-13.66,24.7-7.38,38.7
						c13.41,51.95,33.44,120.61-44.56,170.85c-7.98,5.09-16.3,8.23-24.78,9.59C932.06,1958.15,843.54,1841.37,843.54,1841.37z"/>
					
						<linearGradient id="SVGID_00000171699165339539896600000006319281107860070035_" gradientUnits="userSpaceOnUse" x1="426.9033" y1="2382.6477" x2="895.7337" y2="1970.1667">
						<stop  offset="0" style="stop-color:#FF928E"/>
						<stop  offset="1" style="stop-color:#FE7062"/>
					</linearGradient>
					<path style="fill:url(#SVGID_00000171699165339539896600000006319281107860070035_);" d="M843.54,1841.37l54.49,172.8
						c0,0,63.23,46.6,143.86,2.12l-35.31-70.61C932.06,1958.15,843.54,1841.37,843.54,1841.37z"/>
					
						<linearGradient id="SVGID_00000045617453620724803260000009307055415119168445_" gradientUnits="userSpaceOnUse" x1="874.751" y1="1465.7253" x2="474.1238" y2="2246.6958">
						<stop  offset="0" style="stop-color:#E1473D"/>
						<stop  offset="1" style="stop-color:#E9605A"/>
					</linearGradient>
					<path style="fill:url(#SVGID_00000045617453620724803260000009307055415119168445_);" d="M827.2,1629.44
						c0,0,30.85-107.46-84.59-77.9c0,0-56.56-7.88-58.17,45.36c0,0-24.44,36.84-25.48,82.24c0,0-111.14,28.73-128.68,73.26
						c-17.95,45.58-7.99,117.98,37.64,130.48c0,0-36.28,19.3-17.92,60.51c18.36,41.21,107.06,68.49,157.85,16.65
						c0,0,148.39,16.07,142.97-88.35c0,0,67.76-46.05-6.54-130.7C770,1656.33,827.2,1629.44,827.2,1629.44z"/>
					
						<linearGradient id="SVGID_00000125570918632086200280000011668489653754493580_" gradientUnits="userSpaceOnUse" x1="410.626" y1="2364.1465" x2="879.4557" y2="1951.666">
						<stop  offset="0" style="stop-color:#FF928E"/>
						<stop  offset="1" style="stop-color:#FE7062"/>
					</linearGradient>
					<path style="fill:url(#SVGID_00000125570918632086200280000011668489653754493580_);" d="M836.24,1822.36
						c-23.33-6.99-91.26-19.91-155.87,39.72c-10.96,10.11-15.44,25.48-11.53,39.87c17.35,63.89,63.14,252.66,22.99,334.33
						c0,0,70.75,77.99,147.94,15.13c0,0,34.63-150.94,79.99-217.2c31.32-45.75-49.94-171.79-70.5-202.24
						C846.15,1827.37,841.57,1823.96,836.24,1822.36z"/>
					
						<linearGradient id="SVGID_00000084515834641196514410000010596643657921524102_" gradientUnits="userSpaceOnUse" x1="779.3242" y1="1892.5206" x2="774.8163" y2="1709.9468">
						<stop  offset="0" style="stop-color:#FEBBBA"/>
						<stop  offset="1" style="stop-color:#FF928E"/>
					</linearGradient>
					<path style="fill:url(#SVGID_00000084515834641196514410000010596643657921524102_);" d="M771.82,1695.42
						c0,0-34.5,97.6-37.1,140.65c0,0,38.13,17.34,74.07-11.93c0,0,3.77-97.48,9.22-114.94L771.82,1695.42z"/>
					
						<linearGradient id="SVGID_00000071537329235502395170000000655203881152292272_" gradientUnits="userSpaceOnUse" x1="-14198.3877" y1="5221.543" x2="-14023.7949" y2="5422.2783" gradientTransform="matrix(-0.9534 0.3019 0.3019 0.9534 -14275.5928 932.4522)">
						<stop  offset="0" style="stop-color:#FEBBBA"/>
						<stop  offset="1" style="stop-color:#FF928E"/>
					</linearGradient>
					<path style="fill:url(#SVGID_00000071537329235502395170000000655203881152292272_);" d="M827.15,1599.01
						c0,0,93.19,124.14,40.12,162.08c-53.07,37.94-119.41-50.27-119.41-50.27s-22.56-68.61-1.22-92.57
						C767.98,1594.29,827.15,1599.01,827.15,1599.01z"/>
					
						<linearGradient id="SVGID_00000132077411483783255920000002000861961150612916_" gradientUnits="userSpaceOnUse" x1="849.9457" y1="1453.0006" x2="449.3192" y2="2233.97">
						<stop  offset="0" style="stop-color:#E1473D"/>
						<stop  offset="1" style="stop-color:#E9605A"/>
					</linearGradient>
					<path style="fill:url(#SVGID_00000132077411483783255920000002000861961150612916_);" d="M784.68,1569.82
						c0,0,41.68,8.85,47.93,27.46c6.25,18.62-57.93,37.53-76,38.8l-12.8,76.02c0,0-44.78-70.18-28.67-111.69
						C731.24,1558.9,784.68,1569.82,784.68,1569.82z"/>
					
						<linearGradient id="SVGID_00000094580692680800349730000008380553879050573704_" gradientUnits="userSpaceOnUse" x1="-14154.7656" y1="5183.6021" x2="-13980.1768" y2="5384.3325" gradientTransform="matrix(-0.9534 0.3019 0.3019 0.9534 -14275.5928 932.4522)">
						<stop  offset="0" style="stop-color:#FEBBBA"/>
						<stop  offset="1" style="stop-color:#FF928E"/>
					</linearGradient>
					<path style="fill:url(#SVGID_00000094580692680800349730000008380553879050573704_);" d="M765.14,1701.12
						c0,0-36.07-39.84-49.42-13c-13.35,26.84,32.7,45.67,48.17,32.29L765.14,1701.12z"/>
					
						<linearGradient id="SVGID_00000159441041739659138300000013043361960044129445_" gradientUnits="userSpaceOnUse" x1="13578.7236" y1="3476.8772" x2="13995.2812" y2="2741.563" gradientTransform="matrix(1 -9.500000e-03 9.500000e-03 1 -13093.5254 56.9446)">
						<stop  offset="0" style="stop-color:#FEBBBA"/>
						<stop  offset="1" style="stop-color:#FF928E"/>
					</linearGradient>
					<path style="fill:url(#SVGID_00000159441041739659138300000013043361960044129445_);" d="M929.88,2568.32
						c-0.26,6.85,11.77,61.2,18.31,90.19c2.64,11.66,0.8,23.87-5.14,34.25L716.3,3074.4c-2.74,4.62-4.74,9.62-5.95,14.85
						c-4.16,17.91-12.77,61.8-8.27,101.73l11.73,24.36l-50.73-11.52l-11.04-136.24l14.36-8.76c12.41-7.57,22.07-18.87,27.6-32.31
						c20.5-49.8,71.42-176.58,84.54-238.37c14.92-70.22,92.89-127.25,92.89-127.25l-13.7-32.39L929.88,2568.32z"/>
					
						<linearGradient id="SVGID_00000027570813915623437150000000246639760322440592_" gradientUnits="userSpaceOnUse" x1="585.2501" y1="2893.4048" x2="713.7277" y2="3350.9658">
						<stop  offset="0" style="stop-color:#09005D"/>
						<stop  offset="1" style="stop-color:#1A0F91"/>
					</linearGradient>
					<path style="fill:url(#SVGID_00000027570813915623437150000000246639760322440592_);" d="M606.69,3156.94
						c0,0,27.4-43.43,30.62-60.34c3.22-16.91,12.2-46.76,29.09-37.78c0,0,7.96,82.13,5.22,114.22
						c-2.74,32.09,36.28,31.06,36.28,31.06s10.76,1.51,18.63,9.38c5.44,5.44,1.55,14.87-6.13,15.36
						c-12.77,0.82-33.05,1.04-54.35-3.08c-7.44-1.44-12.96-7.77-13.41-15.34l-5.62-94.53l-34.56,43.63L606.69,3156.94z"/>
					
						<linearGradient id="SVGID_00000036210692007597765540000017815691956415408273_" gradientUnits="userSpaceOnUse" x1="847.3002" y1="2878.7229" x2="1268.7957" y2="2592.4661">
						<stop  offset="0" style="stop-color:#FEBBBA"/>
						<stop  offset="1" style="stop-color:#FF928E"/>
					</linearGradient>
					<path style="fill:url(#SVGID_00000036210692007597765540000017815691956415408273_);" d="M794.42,2629.11
						c0,0-8,341.37-9.08,389.85c-1.08,48.48,7.66,155.93,56.26,188.04l-21.15,15.66c0,0-26.43-22.46-52.25-65.7
						c-29.01-48.57-37.78-57.44-37.78-57.44l9.62-19.71c4.21-8.63,5.45-18.39,3.51-27.8c-10.49-50.83-45.53-219.91-55.08-256.33
						c-11.28-42.98-12.09-100.38,27.17-148.43C754.89,2599.21,794.42,2629.11,794.42,2629.11z"/>
					
						<linearGradient id="SVGID_00000183934400233342611400000013335228418994379927_" gradientUnits="userSpaceOnUse" x1="1212.7639" y1="2820.3716" x2="984.5584" y2="3008.0073">
						<stop  offset="0" style="stop-color:#09005D"/>
						<stop  offset="1" style="stop-color:#1A0F91"/>
					</linearGradient>
					<path style="fill:url(#SVGID_00000183934400233342611400000013335228418994379927_);" d="M749.54,3238.05
						c-1.51,0.01-2.79-1.06-3-2.56c-1.62-11.38-8.35-57.01-13.86-68.82c-6.31-13.53-26.93-70.48,0.01-75.31
						c0,0,66.97,97.85,79.83,111.04c12.86,13.19,29.08,4.61,29.08,4.61s12.53,3.7,21.97,15.77c4.5,5.74,0.31,14.18-6.99,14.25
						l-45.11,0.43c-13.1,0.12-24.88-7.83-29.76-20c-7.94-19.83-21.58-48.93-37.48-61.83l8.26,79.1
						C752.68,3236.49,751.31,3238.03,749.54,3238.05z"/>
					
						<linearGradient id="SVGID_00000164485588130582768450000012882831973527242151_" gradientUnits="userSpaceOnUse" x1="637.112" y1="2243.7354" x2="895.7444" y2="2649.4336">
						<stop  offset="0" style="stop-color:#4F52FF"/>
						<stop  offset="1" style="stop-color:#4042E2"/>
					</linearGradient>
					<path style="fill:url(#SVGID_00000164485588130582768450000012882831973527242151_);" d="M850.45,2214.6
						c0,0-10.16,32.4,5.45,85.77l96.88,338.3c1.52,5.32-1.35,10.88-6.55,12.75c-28.98,10.4-124.24,39.8-254.28,30.83
						c-6.55-0.45-12.04-5.09-13.46-11.49c-8.57-38.57-37.8-170.16-43.82-197.2c-22.93-103.03-48.54-214.13,64.12-281.31
						C750.7,2214.5,799.13,2227.61,850.45,2214.6z"/>
					
						<linearGradient id="SVGID_00000049930938228288826190000001217077883622734251_" gradientUnits="userSpaceOnUse" x1="317.7969" y1="2258.6335" x2="786.6261" y2="1846.1534">
						<stop  offset="0" style="stop-color:#FF928E"/>
						<stop  offset="1" style="stop-color:#FE7062"/>
					</linearGradient>
					<path style="fill:url(#SVGID_00000049930938228288826190000001217077883622734251_);" d="M537.26,2083.81
						c0,0-0.74,0.05-0.74-0.04c12.21-9.59,77.02-9.94,77.02-9.94s47.07-68.16,63.02-85.07c0.52-0.52,1.05-1.04,1.48-1.48
						c0.35-0.35,0.7-0.7,1.22-1.13c5.84-5.4,12.03-10.81,18.74-16.39c7.4-6.19,13.33-14.12,16.91-23.1
						c24.93-62.75,5.23-103.8-40.09-77.48c0,0-95.79,79.57-133,192.36c-0.43,1.4-0.78,2.7-1.23,4.01
						c-1.48,5.23-2.96,10.2-4.26,14.82c-0.09,0.35,0.28,0.85,0.2,1.19C536.26,2082.35,537.52,2083.03,537.26,2083.81z"/>
				</g>
				
					<linearGradient id="SVGID_00000117640192254069433780000002358535559715363995_" gradientUnits="userSpaceOnUse" x1="3569.8564" y1="2139.3152" x2="3826.1777" y2="2139.3152" gradientTransform="matrix(1 0 0 1 -3037.2822 0)">
					<stop  offset="0" style="stop-color:#FEBBBA"/>
					<stop  offset="1" style="stop-color:#FF928E"/>
				</linearGradient>
				<path style="fill:url(#SVGID_00000117640192254069433780000002358535559715363995_);" d="M774.16,2124.77
					c0,0-111.32,62.92-148.89,9.19c-7.8-11.16-13.66-49.56-11.74-60.13c-33.37-16.85-58.48,7.92-77.22,6.54
					c-4.92,25.75-7.3,50.82,7.83,78.5c65.8,120.36,244.74-6.65,244.74-6.65L774.16,2124.77z"/>
				<g>
					
						<linearGradient id="SVGID_00000026844608681631840750000000089110525986945717_" gradientUnits="userSpaceOnUse" x1="3904.7827" y1="1959.6476" x2="4047.6484" y2="2554.9224" gradientTransform="matrix(1 0 0 1 -3037.2822 0)">
						<stop  offset="0" style="stop-color:#09005D"/>
						<stop  offset="1" style="stop-color:#1A0F91"/>
					</linearGradient>
					<path style="fill:url(#SVGID_00000026844608681631840750000000089110525986945717_);" d="M760.79,2204.36l60.76-212.18
						c0.69-2.41,2.74-4.16,5.23-4.45c11.01-1.28,42.9-4.89,79.73-8.01c44.36-3.75,95.88-6.79,126.66-4.21
						c4.38,0.37,7.02,5,5.07,8.93c-17.51,35.42-89.51,179.48-125.58,226.68c-1.19,1.56-3.04,2.48-5.01,2.46l-140.97-1.31
						C762.6,2212.24,759.66,2208.31,760.79,2204.36z"/>
					
						<linearGradient id="SVGID_00000033327530062732468980000017036975881221918359_" gradientUnits="userSpaceOnUse" x1="3994.2307" y1="1865.816" x2="3963.8042" y2="1999.4279" gradientTransform="matrix(1 0 0 1 -3037.2822 0)">
						<stop  offset="0" style="stop-color:#4F52FF"/>
						<stop  offset="1" style="stop-color:#4042E2"/>
					</linearGradient>
					<path style="fill:url(#SVGID_00000033327530062732468980000017036975881221918359_);" d="M912.81,1961.33l44.05-7.34
						c2.35-0.39,4.27,1.85,3.52,4.11l-4.36,13.21c-0.38,1.15-1.38,1.98-2.58,2.14l-42.39,5.66c-2.19,0.29-4-1.7-3.5-3.85l2.7-11.54
						C910.55,1962.49,911.55,1961.54,912.81,1961.33z"/>
					
						<linearGradient id="SVGID_00000096033175781112698240000012156599244268966294_" gradientUnits="userSpaceOnUse" x1="3978.3066" y1="1921.8617" x2="3963.7546" y2="2009.1731" gradientTransform="matrix(1 0 0 1 -3037.2822 0)">
						<stop  offset="0" style="stop-color:#4F52FF"/>
						<stop  offset="1" style="stop-color:#4042E2"/>
					</linearGradient>
					<path style="fill:url(#SVGID_00000096033175781112698240000012156599244268966294_);" d="M879.83,1998.62l3.63-18.9
						c0.36-1.9,1.93-3.33,3.85-3.52l88.97-9.03c2.99-0.3,5.39,2.44,4.69,5.37l-5.66,23.55c-0.45,1.88-2.09,3.25-4.03,3.34
						l-86.94,4.38C881.51,2003.95,879.3,2001.41,879.83,1998.62z"/>
					
						<linearGradient id="SVGID_00000064353868065007206910000006422613246391036035_" gradientUnits="userSpaceOnUse" x1="3806.8875" y1="2117.1296" x2="3887.832" y2="2117.1296" gradientTransform="matrix(1 0 0 1 -3037.2822 0)">
						<stop  offset="0" style="stop-color:#FEBBBA"/>
						<stop  offset="1" style="stop-color:#FF928E"/>
					</linearGradient>
					<path style="fill:url(#SVGID_00000064353868065007206910000006422613246391036035_);" d="M775.47,2153.1
						c0,0-8.46-34.8-5.05-47.15c3.41-12.35,10.03-28.22,32.08-24.69c22.05,3.53,48.06,12.82,48.06,12.82s-1.31,16.08-18.07,10.89
						l10.39,8.04c0,0-1.49,12.88-15.64,6l9.67,10.66c0,0-6.08,10.58-16.49,3.79C809.99,2126.68,805,2157.29,775.47,2153.1z"/>
				</g>
			</g>
		</g>
		<g>
			
				<linearGradient id="SVGID_00000008124959072924492650000007573230069378998434_" gradientUnits="userSpaceOnUse" x1="2751.2874" y1="3174.4761" x2="2934.2578" y2="3174.4761">
				<stop  offset="0" style="stop-color:#4F52FF"/>
				<stop  offset="1" style="stop-color:#4042E2"/>
			</linearGradient>
			<path style="fill:url(#SVGID_00000008124959072924492650000007573230069378998434_);" d="M2756.45,3165.63
				c31.34,2.71,85.75,7.11,128.63,9c25.78,1.13,40.62-1.39,49.17-4.81c-0.01,0.96-0.04,1.87-0.08,2.72
				c-0.2,4.51-3.87,8.12-8.43,8.38c-81.04,4.52-145.49,1.57-168.43,0.17c-4.74-0.29-7.57-5.44-5.15-9.49
				C2753.39,3169.57,2754.86,3167.59,2756.45,3165.63z"/>
			
				<linearGradient id="SVGID_00000155835069265925404200000011145444549561493944_" gradientUnits="userSpaceOnUse" x1="-2410.7385" y1="3138.6162" x2="-2232.9241" y2="3138.6162" gradientTransform="matrix(-1 0 0 1 523.5299 0)">
				<stop  offset="0" style="stop-color:#09005D"/>
				<stop  offset="1" style="stop-color:#1A0F91"/>
			</linearGradient>
			<path style="fill:url(#SVGID_00000155835069265925404200000011145444549561493944_);" d="M2885.09,3174.62
				c-42.89-1.89-97.29-6.29-128.63-9c30.82-37.81,128.63-63.29,128.63-63.29h27.63c19,27.39,21.75,53.47,21.54,67.48
				C2925.71,3173.23,2910.87,3175.76,2885.09,3174.62z"/>
			
				<linearGradient id="SVGID_00000092425983047128405750000013205615746697741963_" gradientUnits="userSpaceOnUse" x1="-2393.8354" y1="3088.551" x2="-2342.2964" y2="3088.551" gradientTransform="matrix(-1 0 0 1 523.5299 0)">
				<stop  offset="0" style="stop-color:#FEBBBA"/>
				<stop  offset="1" style="stop-color:#FF928E"/>
			</linearGradient>
			<path style="fill:url(#SVGID_00000092425983047128405750000013205615746697741963_);" d="M2917.37,3057.23l-2.59,51.16
				c-0.28,5.54-4.43,10.2-9.97,10.99c-5.52,0.79-12.91,0.89-20.75-1.72c-4.82-1.61-8.4-5.67-9.29-10.63l-8.93-49.8H2917.37z"/>
			<g>
				
					<linearGradient id="SVGID_00000031200182572833419710000006040464122706798763_" gradientUnits="userSpaceOnUse" x1="3190.7185" y1="3219.8469" x2="3260.8359" y2="3219.8469">
					<stop  offset="0" style="stop-color:#4F52FF"/>
					<stop  offset="1" style="stop-color:#4042E2"/>
				</linearGradient>
				<path style="fill:url(#SVGID_00000031200182572833419710000006040464122706798763_);" d="M3238,3224.64
					c13.59-2.45,19.74-11.58,22.32-21.33c0.02,0.09,0.03,0.18,0.05,0.26c2,10.29-2.64,20.96-11.91,26.03
					c-11.2,6.13-23.45,7.18-32.96,6.67c-10.2-0.54-19.57-6-24.71-14.73l-0.08-0.13C3200.96,3227.96,3215.33,3228.73,3238,3224.64z"
					/>
				
					<linearGradient id="SVGID_00000164494745107888373310000016011713536349860481_" gradientUnits="userSpaceOnUse" x1="-2736.7959" y1="3150.0718" x2="-2633.8774" y2="3150.0718" gradientTransform="matrix(-1 0 0 1 523.5299 0)">
					<stop  offset="0" style="stop-color:#09005D"/>
					<stop  offset="1" style="stop-color:#1A0F91"/>
				</linearGradient>
				<path style="fill:url(#SVGID_00000164494745107888373310000016011713536349860481_);" d="M3173.91,3072.99h22.78
					c34.7-0.92,56.5,93.68,63.63,130.32c-2.58,9.76-8.73,18.88-22.32,21.33c-22.67,4.09-37.04,3.31-47.29-3.23
					c-18.75-31.89-28.04-78.59-32.51-105.84C3153.13,3084.57,3173.91,3072.99,3173.91,3072.99z"/>
			</g>
			
				<linearGradient id="SVGID_00000170998744011029134100000012700342604373042310_" gradientUnits="userSpaceOnUse" x1="-2683.3005" y1="3061.6753" x2="-2621.7061" y2="3061.6753" gradientTransform="matrix(-1 0 0 1 523.5299 0)">
				<stop  offset="0" style="stop-color:#FEBBBA"/>
				<stop  offset="1" style="stop-color:#FF928E"/>
			</linearGradient>
			<path style="fill:url(#SVGID_00000170998744011029134100000012700342604373042310_);" d="M3193.77,3025.51l12.65,50.32
				c1.55,6.17-1.4,12.55-7.11,15.48c-7.08,3.63-17.04,7.45-26.2,6.34c-4.31-0.52-7.88-3.55-9.31-7.61l-18.57-52.94L3193.77,3025.51z
				"/>
			
				<linearGradient id="SVGID_00000013904464087697213800000008258330048333581245_" gradientUnits="userSpaceOnUse" x1="-2090.2747" y1="2241.6777" x2="-2616.1504" y2="3103.1125" gradientTransform="matrix(-1 0 0 1 523.5299 0)">
				<stop  offset="0" style="stop-color:#09005D"/>
				<stop  offset="1" style="stop-color:#1A0F91"/>
			</linearGradient>
			<path style="fill:url(#SVGID_00000013904464087697213800000008258330048333581245_);" d="M2748.74,2362.8
				c0,0,113.06,706.69,111.19,710.58c0,0,31.23,14.19,65.27,1.81c0,0-10.22-377.78-34.18-522.63c0,0,192.95,337.66,254.22,505.91
				c0,0,31.96-3.81,58.41-21.22c0,0-207.75-607.77-263.18-688.72L2748.74,2362.8z"/>
			
				<linearGradient id="SVGID_00000061444002980179230430000004753445863185948819_" gradientUnits="userSpaceOnUse" x1="3303.48" y1="2103.6294" x2="3019.4912" y2="2357.1907">
				<stop  offset="0" style="stop-color:#4F52FF"/>
				<stop  offset="1" style="stop-color:#4042E2"/>
			</linearGradient>
			<path style="fill:url(#SVGID_00000061444002980179230430000004753445863185948819_);" d="M2886.5,2548.88
				c0.61,0,1.22-0.16,1.77-0.51c1.56-0.98,2.04-3.04,1.06-4.6l-42.25-67.48c-0.49-0.78-1.27-1.32-2.17-1.5l-31.09-6.26
				c-1.82-0.36-3.57,0.81-3.93,2.61c-0.36,1.81,0.81,3.57,2.61,3.93l29.68,5.97l41.49,66.26
				C2884.3,2548.33,2885.39,2548.88,2886.5,2548.88z"/>
			
				<linearGradient id="SVGID_00000120519176734189014970000001579544163523206286_" gradientUnits="userSpaceOnUse" x1="2675.5037" y1="2043.3662" x2="2239.3792" y2="1708.6664">
				<stop  offset="0" style="stop-color:#FEBBBA"/>
				<stop  offset="1" style="stop-color:#FF928E"/>
			</linearGradient>
			<path style="fill:url(#SVGID_00000120519176734189014970000001579544163523206286_);" d="M2229.93,1670.8
				c0,0,76.29,16.83,122.69,38.25c9.22,4.25,16.57,11.69,20.75,20.86c13.88,30.4,55.4,106.63,135.92,143.01
				c-11.6,15.39-30.27,47.4-38.4,101.21c-48.36-35.99-90.11-96.11-110.16-194.69c0,0-15.26,8.3-34.3-0.95
				c-10.06-4.89-21.68-11.82-30.39-17.27c-8.69-5.43-15.16-13.87-17.67-23.73c-3.32-13.02-1.36-24.47-1.36-36.75l-39.21-12.15
				C2237.78,1688.59,2226,1684.15,2229.93,1670.8z"/>
			
				<linearGradient id="SVGID_00000005257085201315809630000003737336892749569177_" gradientUnits="userSpaceOnUse" x1="2456.3726" y1="2485.0525" x2="2902.6624" y2="1927.1902">
				<stop  offset="0" style="stop-color:#FF928E"/>
				<stop  offset="1" style="stop-color:#FE7062"/>
			</linearGradient>
			<path style="fill:url(#SVGID_00000005257085201315809630000003737336892749569177_);" d="M2470.89,1974.13
				c8.13-53.81,26.8-85.82,38.4-101.21c50.02,22.6,115.09,29.82,197.94,1.11c7.64-2.65,15.6-4.2,23.68-4.67
				c44.11-2.59,189.46-7.31,309.73,32.43c25.31,8.36,45.81,27.08,56.38,51.32c32.54,74.66,85.21,244.7-61.02,330.55
				c-11.23-27.89-24.2-50.31-35.29-66.79c23.55-39.72,30.52-93.97-11.27-164.62c-30.47,82.28-44.77,202.33-47.75,255.47
				c-0.98,17.49,2.09,34.95,8.95,51.1l0.75,1.76c1.47,3.46-0.55,7.43-4.25,8.26c-82.32,18.49-167.94,13.47-193.52,11.35
				c-4.57-0.38-8.36-3.64-9.41-8.06c-40.03-168.67-40.12-283.73-30.32-356.47C2676.45,2024.04,2561.94,2041.9,2470.89,1974.13z"/>
			
				<linearGradient id="SVGID_00000031906211162223387830000017521143387973646735_" gradientUnits="userSpaceOnUse" x1="2935.0962" y1="1417.0983" x2="2813.3806" y2="1738.2916">
				<stop  offset="0" style="stop-color:#E1473D"/>
				<stop  offset="1" style="stop-color:#E9605A"/>
			</linearGradient>
			<path style="fill:url(#SVGID_00000031906211162223387830000017521143387973646735_);" d="M2713.73,2020.21
				c1.65,0,3.08-1.22,3.31-2.9c9.4-71.02,28.55-102.01,28.74-102.32c0.98-1.56,0.52-3.62-1.04-4.61c-1.55-0.98-3.61-0.52-4.6,1.03
				c-0.82,1.29-20.1,32.32-29.72,105.02c-0.24,1.83,1.04,3.51,2.87,3.75C2713.44,2020.2,2713.58,2020.21,2713.73,2020.21z"/>
			
				<linearGradient id="SVGID_00000006678568055463013630000003859834770226125201_" gradientUnits="userSpaceOnUse" x1="-2379.8528" y1="1969.3759" x2="-2353.1646" y2="1829.2623" gradientTransform="matrix(-1 0 0 1 523.5299 0)">
				<stop  offset="0" style="stop-color:#FEBBBA"/>
				<stop  offset="1" style="stop-color:#FF928E"/>
			</linearGradient>
			<path style="fill:url(#SVGID_00000006678568055463013630000003859834770226125201_);" d="M2916.89,1771.1
				c0,0,8.33,88.05,15.66,114.1c1.11,3.95-0.6,8.12-4.19,10.17c-12.44,7.11-42.29,18.71-83.12-1.3
				c-6.61-3.24-10.59-10.14-10.28-17.43l3.6-85.09L2916.89,1771.1z"/>
			<g>
				
					<linearGradient id="SVGID_00000018926165571216464460000001709517603307586481_" gradientUnits="userSpaceOnUse" x1="-2307.6382" y1="1712.3119" x2="-2459.9114" y2="1828.824" gradientTransform="matrix(-1 0 0 1 523.5299 0)">
					<stop  offset="0" style="stop-color:#FEBBBA"/>
					<stop  offset="1" style="stop-color:#FF928E"/>
				</linearGradient>
				<path style="fill:url(#SVGID_00000018926165571216464460000001709517603307586481_);" d="M2836.75,1658.45
					c0,0-26.64,61.19-28.43,93.3c-1.79,32.12-8.71,52.96,28.43,59.42c37.13,6.47,68.42-12.03,85.36-44.02
					c0,0,26.55-49.29,20.6-69.48C2936.76,1677.49,2836.75,1658.45,2836.75,1658.45z"/>
				
					<linearGradient id="SVGID_00000183950303002532676420000012767024943317255040_" gradientUnits="userSpaceOnUse" x1="-2414.8318" y1="1620.0597" x2="-2273.0132" y2="1802.6506" gradientTransform="matrix(-1 0 0 1 523.5299 0)">
					<stop  offset="0" style="stop-color:#09005D"/>
					<stop  offset="1" style="stop-color:#1A0F91"/>
				</linearGradient>
				<path style="fill:url(#SVGID_00000183950303002532676420000012767024943317255040_);" d="M2909.43,1744.16l-2.11-0.93
					c-2.69-1.19-3.84-4.39-2.49-7c5.24-10.12,15.44-33.3,2.26-38.71c-17-6.97-84.32-20.7-98.84-44.59
					c-13.96-22.96-1.59-52.59,17-61.02c1.24-0.56,2.71-0.12,3.35,1.09l1.55,2.93c1.06,2.01,4.02,1.7,4.65-0.48
					c0.61-2.09,3.39-2.5,4.54-0.65c4.47,7.15,16.52,18.73,48.75,24.68c45.81,8.45,76.1,26.99,76.85,58.65
					c0.05,2.01,2.19,3.13,3.91,2.08c3.38-2.06,8.8-3.03,16.03,3.05c12.58,10.58,7.43,38.02-20.15,60.6
					c-1.31,1.07-1.3,3.12,0.12,4.04c5,3.25,12.45,11-6.86,21.32c-19.98,10.68-34.89,9.8-40.64,8.85c-1.43-0.24-2.35-1.62-2.04-3.03
					l6.13-27.82c0.35-1.57-0.85-3.07-2.46-3.07H2909.43z"/>
				
					<linearGradient id="SVGID_00000047757986409679646620000012693702483821880197_" gradientUnits="userSpaceOnUse" x1="-2326.5259" y1="1687.627" x2="-2478.7991" y2="1804.139" gradientTransform="matrix(-1 0 0 1 523.5299 0)">
					<stop  offset="0" style="stop-color:#FEBBBA"/>
					<stop  offset="1" style="stop-color:#FF928E"/>
				</linearGradient>
				<path style="fill:url(#SVGID_00000047757986409679646620000012693702483821880197_);" d="M2908.27,1750.03
					c0,0,10.16-39.09,27.69-28.13c17.52,10.96-9.09,43.79-23.18,45.26L2908.27,1750.03z"/>
			</g>
			
				<linearGradient id="SVGID_00000057843712249268749090000004380637357385785230_" gradientUnits="userSpaceOnUse" x1="2291.6575" y1="1739.2703" x2="2351.5256" y2="1739.2703">
				<stop  offset="0" style="stop-color:#FF928E"/>
				<stop  offset="1" style="stop-color:#FE7062"/>
			</linearGradient>
			<path style="fill:url(#SVGID_00000057843712249268749090000004380637357385785230_);" d="M2340.39,1770.35
				c0.74,0,1.49-0.24,2.1-0.75c1.43-1.16,1.65-3.27,0.48-4.7c-2.88-3.55-28.49-34.85-38.35-40.42c-3.59-2.03-5.73-4.12-6.18-6.05
				c-0.22-0.92-0.07-1.96,0.45-3.14l30.08,6.03l17.04,14.62c1.39,1.2,3.51,1.04,4.71-0.36c1.2-1.4,1.04-3.51-0.36-4.71l-17.7-15.19
				c-0.43-0.37-0.96-0.63-1.52-0.74l-33.3-6.67c-1.34-0.27-2.67,0.29-3.43,1.41c-2.44,3.62-3.25,6.99-2.47,10.29
				c0.92,3.9,3.99,7.28,9.4,10.34c7.42,4.19,28.83,29.44,36.45,38.82C2338.45,1769.93,2339.42,1770.35,2340.39,1770.35z"/>
			
				<linearGradient id="SVGID_00000110443209604916735860000013057682930104563130_" gradientUnits="userSpaceOnUse" x1="2895.9792" y1="2336.2585" x2="3119.1248" y2="1954.2072">
				<stop  offset="0" style="stop-color:#FEBBBA"/>
				<stop  offset="1" style="stop-color:#FF928E"/>
			</linearGradient>
			<path style="fill:url(#SVGID_00000110443209604916735860000013057682930104563130_);" d="M2909.57,2325.98l-117.74,1.46
				l41.21-38.79c10.24-9.64,25.88-11.2,37.7-3.53c6.92,4.49,14.43,10.59,20.93,18.66c0,0,73.45-26.84,109.05-86.89
				c11.09,16.47,24.06,38.89,35.29,66.79C3004.09,2302.4,2962.71,2317.13,2909.57,2325.98z"/>
			<g>
				
					<linearGradient id="SVGID_00000080908066561171690530000005901281898529564817_" gradientUnits="userSpaceOnUse" x1="-71.7318" y1="2316.1719" x2="-312.5103" y2="2382.1631" gradientTransform="matrix(0.9988 -0.0494 0.0494 0.9988 2904.7969 -55.0328)">
					<stop  offset="0" style="stop-color:#09005D"/>
					<stop  offset="1" style="stop-color:#1A0F91"/>
				</linearGradient>
				<path style="fill:url(#SVGID_00000080908066561171690530000005901281898529564817_);" d="M2896.88,2341.16
					c-0.23,0.01-0.46,0.02-0.69,0.02l-298.87-0.32c-7.39-0.01-13.37-5.94-13.36-13.25c0.01-7.31,6.02-13.35,13.39-13.22l298.87,0.32
					c7.39,0.01,13.37,5.94,13.36,13.25C2909.58,2335.04,2903.95,2340.82,2896.88,2341.16z"/>
				
					<linearGradient id="SVGID_00000158749413789721844190000007673265507578111408_" gradientUnits="userSpaceOnUse" x1="2387.4812" y1="2400.1016" x2="2603.864" y2="2100.321">
					<stop  offset="0" style="stop-color:#09005D"/>
					<stop  offset="1" style="stop-color:#1A0F91"/>
				</linearGradient>
				<path style="fill:url(#SVGID_00000158749413789721844190000007673265507578111408_);" d="M2328.66,2072.68h248.9
					c18.36,0,35.07,10.48,42.91,26.92l115.07,241.41h-309.31c-11.83,0-22.46-7.15-26.81-18.04l-89.23-223.39
					C2305.02,2086.66,2314.63,2072.68,2328.66,2072.68z"/>
				
					<linearGradient id="SVGID_00000102503253381818113270000005452849882611176889_" gradientUnits="userSpaceOnUse" x1="2464.2722" y1="2202.4009" x2="2506.4141" y2="2202.4009">
					<stop  offset="0" style="stop-color:#4F52FF"/>
					<stop  offset="1" style="stop-color:#4042E2"/>
				</linearGradient>
				<path style="fill:url(#SVGID_00000102503253381818113270000005452849882611176889_);" d="M2504.01,2196.46
					c5.39,16.58,1.41,32.68-8.9,35.97c-10.31,3.28-23.04-7.5-28.43-24.08c-5.39-16.58-1.41-32.68,8.9-35.97
					C2485.89,2169.1,2498.62,2179.88,2504.01,2196.46z"/>
			</g>
		</g>
	</g>
</g>
</svg>
