<?xml version="1.0" encoding="utf-8"?>
<!-- Generator: Adobe Illustrator 25.4.1, SVG Export Plug-In . SVG Version: 6.00 Build 0)  -->
<svg version="1.1" xmlns="http://www.w3.org/2000/svg" xmlns:xlink="http://www.w3.org/1999/xlink" x="0px" y="0px"
	 viewBox="0 0 3710 3710" style="enable-background:new 0 0 3710 3710;" xml:space="preserve">
<style type="text/css">
	.st0{fill:#FFFFFF;}
	.st1{fill:#F4F7FA;}
	.st2{fill:url(#SVGID_1_);}
	.st3{opacity:0.4;}
	.st4{clip-path:url(#SVGID_00000072980730942508016650000015735692244105332415_);}
	.st5{fill:#FCFDFE;}
	.st6{fill:url(#SVGID_00000091719936728155657390000006725320220109754271_);}
	.st7{clip-path:url(#SVGID_00000141416568885531672810000009607776261578599300_);}
	.st8{fill:#BFC8D6;}
	.st9{fill:#D8DEE8;}
	.st10{fill:url(#SVGID_00000178914018745132083680000006258943683132267690_);}
	.st11{opacity:0.3;}
	.st12{opacity:0.69;}
	.st13{fill:url(#SVGID_00000066487578521519974310000012947310090716114362_);}
	.st14{fill:url(#SVGID_00000064336454324488875280000016266547111533253813_);}
	.st15{fill:url(#SVGID_00000117641997999485558420000005599434956418684833_);}
	.st16{fill:url(#SVGID_00000132051032823732417180000006239669674793152652_);}
	.st17{fill:url(#SVGID_00000021836858645815615000000012159724887339131547_);}
	.st18{fill:url(#SVGID_00000094584560122725023710000014705581622707063210_);}
	.st19{fill:url(#SVGID_00000022534096432979579940000009160878614917047686_);}
	.st20{fill:url(#SVGID_00000103241902229347101440000010858641611822090638_);}
	.st21{fill:url(#SVGID_00000064340577373831142280000011707852136558397587_);}
	.st22{fill:url(#SVGID_00000080923879168435247840000008068959728565630902_);}
	.st23{fill:url(#SVGID_00000091013826187170921940000009236058700041856925_);}
	.st24{fill:url(#SVGID_00000055671721947153537790000009664472270970435262_);}
	.st25{fill:url(#SVGID_00000085236518097918426010000007827656707535883966_);}
	.st26{fill:url(#SVGID_00000158743778004130858990000002925050519916977065_);}
	.st27{fill:url(#SVGID_00000087409879954027924690000002371717437321800073_);}
	.st28{fill:url(#SVGID_00000167381163576632089060000014078217218990431362_);}
	.st29{fill:url(#SVGID_00000046306792608348518140000008201200716624362423_);}
	.st30{fill:url(#SVGID_00000139278781231106090130000000217955550897612440_);}
	.st31{fill:url(#SVGID_00000002366877337255000060000009281901866930827148_);}
	.st32{fill:url(#SVGID_00000067203718887608766650000013820755374416073109_);}
	.st33{fill:url(#SVGID_00000168090913412304373180000014403316304212650384_);}
	.st34{fill:url(#SVGID_00000135689987555565418360000009760863397290330774_);}
	.st35{fill:url(#SVGID_00000034051052497686527360000003492604659715839155_);}
	.st36{fill:url(#SVGID_00000047754452425082375790000015836774209106469002_);}
	.st37{fill:url(#SVGID_00000088130767872349459510000003074954245886489788_);}
	.st38{fill:url(#SVGID_00000049943457354552001060000007952365273097355705_);}
	.st39{fill:url(#SVGID_00000099659275571194359620000005496418251955236532_);}
	.st40{fill:url(#SVGID_00000122698673758041545360000009758973681533683123_);}
	.st41{fill:url(#SVGID_00000078033693482539067180000012856389045330986385_);}
	.st42{fill:url(#SVGID_00000144311707744986653390000009611798338994791586_);}
	.st43{fill:url(#SVGID_00000009589543747947251340000013770327103232252327_);}
	.st44{fill:url(#SVGID_00000128466673307529921460000013520928492457169794_);}
	.st45{fill:url(#SVGID_00000000901840175440514450000011441372717968373383_);}
	.st46{fill:url(#SVGID_00000171685204433723172390000000060827087288139669_);}
	.st47{fill:url(#SVGID_00000178913811597804805590000012992116554094633147_);}
	.st48{fill:#97A6B7;}
	.st49{fill:url(#SVGID_00000127730954308044275750000013990625369200399018_);}
	.st50{fill:url(#SVGID_00000068674906660065160730000000975326423989975700_);}
	.st51{fill:url(#SVGID_00000129203759642147000310000009777773142944273537_);}
	.st52{fill:#A2A7AE;}
	.st53{fill:url(#SVGID_00000145017223216214072470000005515766148285907896_);}
	.st54{fill:url(#SVGID_00000065063619791531331640000014577129965693152912_);}
	.st55{fill:url(#SVGID_00000114776838145175231060000017721949177221008314_);}
	.st56{fill:url(#SVGID_00000076601801282252910150000000825346594382762381_);}
	.st57{fill:url(#SVGID_00000062177979499181897740000016820309212862280848_);}
	.st58{fill:url(#SVGID_00000100369048098871333590000000759184672919358872_);}
	.st59{opacity:0.74;}
	.st60{opacity:0.74;fill:#FFFFFF;}
	.st61{fill:url(#SVGID_00000048488023823539579130000007747718554067005845_);}
	.st62{fill:url(#SVGID_00000031167499866195721580000008259025045046910606_);}
	.st63{fill:url(#SVGID_00000183207135102031503130000009729932797966961848_);}
	.st64{fill:url(#SVGID_00000163059971906985794860000007212486274020918456_);}
	.st65{fill:url(#SVGID_00000177443730348472078180000005282989541381458863_);}
	.st66{fill:url(#SVGID_00000143596750292961155630000002372403167811185828_);}
	.st67{fill:url(#SVGID_00000024001129816324451110000015005633076983397036_);}
	.st68{fill:url(#SVGID_00000034787662406773373360000007534549336099495062_);}
	.st69{fill:#26264F;}
	.st70{fill:url(#SVGID_00000013906113978961302170000006269020345049550208_);}
	.st71{fill:url(#SVGID_00000130632955254097419220000007767498374778026152_);}
	.st72{fill:#444B8C;}
	.st73{fill:url(#SVGID_00000072258192694000667270000014747069123460066236_);}
	.st74{fill:url(#SVGID_00000172427927656447996820000011709344625449562012_);}
	.st75{fill:url(#SVGID_00000116937319248792479720000001581070153058610101_);}
	.st76{fill:url(#SVGID_00000016768529234066021800000015810006174325318832_);}
	.st77{fill:url(#SVGID_00000091736775054140645550000011536121582932544182_);}
	.st78{fill:url(#SVGID_00000057128634427336535000000007142098944024082357_);}
	.st79{fill:#9B305E;}
</style>
<g id="Background">
	<g>
		<g>
			<rect class="st0" width="3710" height="3710"/>
		</g>
	</g>
</g>
<g id="Illustration">
	<g id="Big_data_visualization">
		<g id="Big_data_analytics_1_1_">
			<path class="st1" d="M1274.29,532.34c-260.22,106.51-449.16,295.92-449.16,295.92c-86.24,86.46-171.26,171.69-219.85,293.28
				c-157.01,392.89,278.88,683.71,122.55,1064.57c-87.76,213.81-264.7,257.24-255.92,435.78
				c9.64,195.98,232.11,332.68,317.69,385.26c500.52,307.55,1693.83,458.7,2255.55-340.98c284.35-404.82,318.5-988.04,73.84-1453.1
				C2711.15,437.84,1702.24,357.19,1274.29,532.34z"/>
		</g>
		<g>
			<g>
				
					<linearGradient id="SVGID_1_" gradientUnits="userSpaceOnUse" x1="2889.7573" y1="2339.3926" x2="2046.3413" y2="880.9877" gradientTransform="matrix(0.9657 -0.2595 0.2595 0.9657 -2084.6667 420.5147)">
					<stop  offset="0" style="stop-color:#FFC444"/>
					<stop  offset="0.9964" style="stop-color:#F36F56"/>
				</linearGradient>
				<path class="st2" d="M1208.3,2223.3c-21.46,68.73,15.66,129.76,48.84,169.75c3.27-0.41,5.92-0.29,8.6,0.03
					c4.53,0.54,7.9,1.02,8.81,1.2c114.96,23.41,153.97,16.23,153.97,16.23c48.93-9,86.61-54.33,102.38-91.01
					c23.66-55,5.5-107.76-20.48-179.74c-43.96-121.78-89.34-140.42-129.29-267.44c-21.35-67.9-5.5-60.18-23.95-96.62
					c-65.6-129.64-242.95-134.01-276.09-383.74c-10.59-79.8-4.1-235.52-79.76-290.22c-86.2-62.32-132.8,16.09-190.07-37.97
					c-89.51-84.5-219-101.99-280.68,5.24c-60.88,105.83-0.09,345.26,242.33,469.81c163.79,109.05,224.94,87.37,225.71,182.51
					c0.54,66.64-39.5,245.69,58.48,302.17C1155.1,2079.99,1232.83,2144.73,1208.3,2223.3z"/>
				<g class="st3">
					<defs>
						<path id="SVGID_00000100378178395741812980000005941216099915130299_" class="st3" d="M1302.85,2440.99
							c158.22-8.1,198.15-56.65,210.58-84.86c14.55-33.01-2.37-52.2-51.68-203.59c-43.1-132.32-78.8-245.25-80.63-280.19
							c-12.24-234.46-260.22-180.33-300.03-480.36c-10.59-79.8-4.1-235.52-79.76-290.22c-86.2-62.32-132.8,16.09-190.07-37.97
							c-66.06-62.37-153.91-88.23-220.19-54.39c-37.43,19.11-57.02,52.87-60.49,59.63c-51.16,99.74,19.45,282.01,145.71,382.65
							c123.17,98.17,250.68,79.91,303.98,199.5c3.77,8.45,8.63,29.02,18.36,70.17c46.29,195.83,28.06,225.87,58.49,302.17
							c36.62,91.83,75.01,78.38,151.19,199.8C1261.77,2308.53,1288.62,2388.1,1302.85,2440.99z"/>
					</defs>
					<clipPath id="SVGID_00000183932748503909076730000003147454290453606033_">
						<use xlink:href="#SVGID_00000100378178395741812980000005941216099915130299_"  style="overflow:visible;"/>
					</clipPath>
					<g style="clip-path:url(#SVGID_00000183932748503909076730000003147454290453606033_);">
						<path class="st5" d="M1392.79,2392.96c-6.76-25.93-13.89-51.99-21.2-77.43c-54.14-188.5-123.91-365.11-207.38-524.93
							c-70.7-135.38-152.2-260.63-242.23-372.29c-72.39-89.77-150.65-171.26-232.6-242.21c-57.59-49.86-116.4-94.04-174.8-131.31
							c-10.09-6.44-20.83-12.5-31.22-18.36c-14.03-7.92-28.55-16.1-41.84-25.43l2.97-4.23c13.09,9.18,27.49,17.3,41.41,25.16
							c10.45,5.89,21.25,11.99,31.46,18.5c58.61,37.41,117.62,81.74,175.4,131.76c82.19,71.15,160.67,152.87,233.24,242.87
							c90.24,111.92,171.93,237.46,242.79,373.14c83.63,160.12,153.53,337.06,207.77,525.89c7.32,25.49,14.46,51.58,21.23,77.56
							L1392.79,2392.96z"/>
						<path class="st5" d="M1026.09,1558.94c-105.1-164.08-75.71-495.5-75.4-498.82l5.15,0.48c-0.31,3.31-29.53,332.97,74.61,495.55
							L1026.09,1558.94z"/>
						<path class="st5" d="M1277.67,2039.55c-56.92-116.87-300.14-181.59-302.6-182.23l1.31-5.01
							c10.1,2.64,247.99,65.97,305.94,184.97L1277.67,2039.55z"/>
						<path class="st5" d="M1304.66,2109.77c-23.72-83.94-11.34-210.71,34.86-356.95c1-3.17,1.87-5.91,1.97-6.42l2.17,0.44
							l2.88-0.78c0.25,0.92,0.25,0.92-2.09,8.32c-45.9,145.29-58.26,271-34.81,353.98L1304.66,2109.77z"/>
						<path class="st5" d="M1379.81,2345.87c-49.68-78.26-187.47-93.89-188.85-94.03l0.55-5.15c1.41,0.15,141.64,16.04,192.67,96.41
							L1379.81,2345.87z"/>
						<path class="st5" d="M1400.24,2392.36l-5.15-0.47c7.13-77.11,36.57-154.61,90.02-236.93l4.34,2.82
							C1436.47,2239.37,1407.29,2316.11,1400.24,2392.36z"/>
						<path class="st5" d="M737.03,1218.74c-63.29-87.66-109.39-194.26-124.54-229.28c-2.62-6.07-4.7-10.86-5.17-11.62l4.32-2.85
							c0.65,0.98,1.95,3.95,5.6,12.41c15.09,34.9,61.02,141.1,123.98,228.31L737.03,1218.74z"/>
						<path class="st5" d="M860.48,1345.48c-78.91-59.55-283.04-30.32-285.09-30.01l-0.75-5.12c8.47-1.25,208.32-29.86,288.96,31
							L860.48,1345.48z"/>
					</g>
				</g>
			</g>
			<g>
				
					<linearGradient id="SVGID_00000000192009861587804500000016945044987869846151_" gradientUnits="userSpaceOnUse" x1="2533.543" y1="1309.8829" x2="3127.8984" y2="2288.3452" gradientTransform="matrix(0.9979 -0.0658 0.0658 0.9979 -1917.2358 413.62)">
					<stop  offset="3.597120e-03" style="stop-color:#E38DDD"/>
					<stop  offset="1" style="stop-color:#9571F6"/>
				</linearGradient>
				<path style="fill:url(#SVGID_00000000192009861587804500000016945044987869846151_);" d="M1131.52,2415.97
					c1.04,0.38,2.09,0.76,3.14,1.13c62.07,22.17,133.82,35.43,216.61,33.37c16.11-1.54,32.22-3.08,48.33-4.62
					c13.34-8.1,28.92-20.38,28.91-35.34c-0.02-22.95-36.72-33.55-64.21-54.93c-66.63-51.83-84.16-161.39-69.2-201.47
					c22.51-60.35,72.05-201.96-47.69-232.33c-99.68-25.28-169.17-21.23-183.34-146.86c-14.17-125.63-87.52-200.27-201.38-186.14
					c-119.82,14.87-227.74-139.52-323.18-80.25c-166.29,103.28,5.39,371.98,218.87,440.33s98.07,150.54,98.42,254
					c0.48,141.25,189.09,100.12,242.58,152.52C1117.51,2373.14,1127.06,2394.47,1131.52,2415.97z"/>
				<g class="st3">
					<defs>
						<path id="SVGID_00000042702826363027142620000005900774991393935294_" class="st3" d="M1130.48,2493.89l261.96-17.27
							c12.82-38.09,27.79-107.78-28.13-121.03c-77.74-18.42-87.39-152.71-69.2-201.48c22.51-60.35,72.05-201.96-47.69-232.33
							c-99.68-25.28-169.17-21.23-183.34-146.86c-14.17-125.63-87.52-200.27-201.38-186.14
							c-119.82,14.87-227.74-139.52-323.17-80.25c-166.29,103.28,5.39,371.98,218.87,440.33c213.49,68.34,98.07,150.54,98.42,254
							c0.48,141.25,189.09,100.12,242.58,152.52C1141.33,2396.47,1137.49,2456.73,1130.48,2493.89z"/>
					</defs>
					<clipPath id="SVGID_00000025427669672812016850000011508689288102297235_">
						<use xlink:href="#SVGID_00000042702826363027142620000005900774991393935294_"  style="overflow:visible;"/>
					</clipPath>
					<g style="clip-path:url(#SVGID_00000025427669672812016850000011508689288102297235_);">
						<path class="st5" d="M1250.7,2444.67c-106.53-400.12-406.7-746.57-783.38-904.15l2.53-6.03
							c378.51,158.35,680.14,506.47,787.17,908.5L1250.7,2444.67z"/>
						<path class="st5" d="M1180.1,2230.06l-6.53,0.4c-10.2-165.9,123.54-303.55,124.89-304.92l4.66,4.59
							C1301.79,1931.48,1170.08,2067.11,1180.1,2230.06z"/>
						<path class="st5" d="M1229.05,2371.38c-85.7-137.87-384.13-139.97-387.13-139.98l0.01-6.54
							c12.41,0.02,305.06,2.11,392.67,143.06L1229.05,2371.38z"/>
						<path class="st5" d="M950.23,1889.63c-60.8-119.49,7.24-312.03,7.94-313.96l6.15,2.21c-0.69,1.9-67.78,191.82-8.26,308.79
							L950.23,1889.63z"/>
						<path class="st5" d="M757.5,1709.37c-129.98-69.27-322.25-14.59-324.17-14.03l-1.83-6.28c1.95-0.56,196.73-56,329.08,14.54
							L757.5,1709.37z"/>
					</g>
				</g>
			</g>
		</g>
		<g>
			<path class="st8" d="M2579.47,2773.9l-1218.14,420.16l-741.51-129.62c-23.09-4.04-39.94-24.09-39.94-47.53v-237.69
				c0-24.34,19.33-44.29,43.66-45.06l1325.62-41.85L2579.47,2773.9z"/>
			<polygon class="st9" points="625.35,2757.87 1333.9,2883.41 1333.9,3168.07 625.35,3045.09 			"/>
			<g>
				<path class="st0" d="M1315.12,3154.23v-266.58c0-23.9,20.71-44.44,46.21-45.88l1209.28-68.36
					c22.39-1.27,40.51,15.81,40.51,38.13v249.03c0,22.32-18.11,41.77-40.51,43.43l-1209.28,90.06
					C1335.84,3195.96,1315.12,3178.13,1315.12,3154.23z"/>
				<path class="st8" d="M1440.15,2920.64c0,15.98-13.79,29.8-30.83,30.86c-17.07,1.06-30.93-11.07-30.93-27.11
					c0-16.03,13.86-29.86,30.93-30.87C1426.36,2892.52,1440.15,2904.66,1440.15,2920.64z"/>
				<path class="st8" d="M1537.28,2914.74c0,15.91-13.66,29.65-30.53,30.7c-16.9,1.05-30.62-11.03-30.62-26.98
					s13.72-29.7,30.62-30.71C1523.62,2886.75,1537.28,2898.83,1537.28,2914.74z"/>
				<path class="st8" d="M1633.45,2908.89c0,15.83-13.52,29.5-30.23,30.54c-16.73,1.04-30.32-10.98-30.32-26.86
					c0-15.88,13.59-29.55,30.32-30.55C1619.93,2881.04,1633.45,2893.06,1633.45,2908.89z"/>
				
					<linearGradient id="SVGID_00000094586252415421296760000009990541517506759855_" gradientUnits="userSpaceOnUse" x1="1863.441" y1="2825.959" x2="2388.3015" y2="3120.0969">
					<stop  offset="0" style="stop-color:#444B8C"/>
					<stop  offset="0.9964" style="stop-color:#26264F"/>
				</linearGradient>
				<polygon style="fill:url(#SVGID_00000094586252415421296760000009990541517506759855_);" points="2546.67,3052.51 
					1693.63,3113.57 1693.63,2876.67 2546.67,2826.07 				"/>
				<g class="st11">
					<polygon class="st0" points="1778.11,3090.87 1751.97,3092.72 1751.97,2901.69 1778.11,2900.1 					"/>
					<polygon class="st0" points="1824.41,3087.6 1798.4,3089.44 1798.4,2898.86 1824.41,2897.28 					"/>
					<polygon class="st0" points="1870.49,3084.34 1844.6,3086.17 1844.6,2896.06 1870.49,2894.48 					"/>
					<polygon class="st0" points="1916.34,3081.1 1890.58,3082.92 1890.58,2893.26 1916.34,2891.7 					"/>
					<polygon class="st0" points="1961.98,3077.87 1936.34,3079.68 1936.34,2890.48 1961.98,2888.92 					"/>
					<polygon class="st0" points="2007.4,3074.66 1981.88,3076.46 1981.88,2887.71 2007.4,2886.16 					"/>
					<polygon class="st0" points="2052.6,3071.46 2027.2,3073.26 2027.2,2884.96 2052.6,2883.41 					"/>
					<polygon class="st0" points="2097.59,3068.28 2072.31,3070.07 2072.31,2882.21 2097.59,2880.68 					"/>
					<polygon class="st0" points="2142.36,3065.11 2117.2,3066.89 2117.2,2879.49 2142.36,2877.96 					"/>
					<polygon class="st0" points="2186.92,3061.96 2161.88,3063.73 2161.88,2876.77 2186.92,2875.25 					"/>
					<polygon class="st0" points="2231.27,3058.83 2206.35,3060.59 2206.35,2874.07 2231.27,2872.55 					"/>
					<polygon class="st0" points="2275.42,3055.71 2250.61,3057.46 2250.61,2871.38 2275.42,2869.87 					"/>
					<polygon class="st0" points="2319.35,3052.6 2294.66,3054.34 2294.66,2868.7 2319.35,2867.2 					"/>
					<polygon class="st0" points="2363.08,3049.51 2338.51,3051.24 2338.51,2866.03 2363.08,2864.54 					"/>
					<polygon class="st0" points="2406.61,3046.43 2382.15,3048.16 2382.15,2863.38 2406.61,2861.89 					"/>
					<polygon class="st0" points="2449.93,3043.36 2425.59,3045.09 2425.59,2860.74 2449.93,2859.26 					"/>
					<polygon class="st0" points="2493.05,3040.31 2468.82,3042.03 2468.82,2858.11 2493.05,2856.64 					"/>
				</g>
				<g class="st12">
					
						<linearGradient id="SVGID_00000180331345530703167470000008437979598111170221_" gradientUnits="userSpaceOnUse" x1="1760.3586" y1="2939.1777" x2="1774.4242" y2="3153.6807">
						<stop  offset="0" style="stop-color:#FF9085"/>
						<stop  offset="1" style="stop-color:#FB6FBB"/>
					</linearGradient>
					<polygon style="fill:url(#SVGID_00000180331345530703167470000008437979598111170221_);" points="1778.11,3090.87 
						1751.97,3092.72 1751.97,2930.17 1778.11,2928.54 					"/>
					
						<linearGradient id="SVGID_00000126316741917022226370000017646630118754688391_" gradientUnits="userSpaceOnUse" x1="1810.8208" y1="3069.8518" x2="1812.5193" y2="3095.7542">
						<stop  offset="0" style="stop-color:#FF9085"/>
						<stop  offset="1" style="stop-color:#FB6FBB"/>
					</linearGradient>
					<polygon style="fill:url(#SVGID_00000126316741917022226370000017646630118754688391_);" points="1824.41,3087.6 
						1798.4,3089.44 1798.4,3069.92 1824.41,3068.1 					"/>
					
						<linearGradient id="SVGID_00000139281160184491101780000015829451310481453218_" gradientUnits="userSpaceOnUse" x1="1854.135" y1="2977.9761" x2="1863.7166" y2="3124.0945">
						<stop  offset="0" style="stop-color:#FF9085"/>
						<stop  offset="1" style="stop-color:#FB6FBB"/>
					</linearGradient>
					<polygon style="fill:url(#SVGID_00000139281160184491101780000015829451310481453218_);" points="1870.49,3084.34 
						1844.6,3086.17 1844.6,2975.44 1870.49,2973.76 					"/>
					
						<linearGradient id="SVGID_00000090287573872948566950000006737968769949685168_" gradientUnits="userSpaceOnUse" x1="1901.9435" y1="3035.0425" x2="1906.0773" y2="3098.0825">
						<stop  offset="0" style="stop-color:#FF9085"/>
						<stop  offset="1" style="stop-color:#FB6FBB"/>
					</linearGradient>
					<polygon style="fill:url(#SVGID_00000090287573872948566950000006737968769949685168_);" points="1916.34,3081.1 
						1890.58,3082.92 1890.58,3035.22 1916.34,3033.46 					"/>
					
						<linearGradient id="SVGID_00000047775219265099610420000004036737349961963398_" gradientUnits="userSpaceOnUse" x1="1945.1639" y1="2956.9995" x2="1955.7115" y2="3117.8513">
						<stop  offset="0" style="stop-color:#FF9085"/>
						<stop  offset="1" style="stop-color:#FB6FBB"/>
					</linearGradient>
					<polygon style="fill:url(#SVGID_00000047775219265099610420000004036737349961963398_);" points="1961.98,3077.87 
						1936.34,3079.68 1936.34,2957.79 1961.98,2956.14 					"/>
					
						<linearGradient id="SVGID_00000006687268304440656380000008322004061298031238_" gradientUnits="userSpaceOnUse" x1="1991.8068" y1="2990.5259" x2="1999.0643" y2="3101.2036">
						<stop  offset="0" style="stop-color:#FF9085"/>
						<stop  offset="1" style="stop-color:#FB6FBB"/>
					</linearGradient>
					<polygon style="fill:url(#SVGID_00000006687268304440656380000008322004061298031238_);" points="2007.4,3074.66 
						1981.88,3076.46 1981.88,2992.61 2007.4,2990.92 					"/>
					
						<linearGradient id="SVGID_00000106148997428549091510000010978489559157795714_" gradientUnits="userSpaceOnUse" x1="2034.8512" y1="2922.8301" x2="2047.4222" y2="3114.54">
						<stop  offset="0" style="stop-color:#FF9085"/>
						<stop  offset="1" style="stop-color:#FB6FBB"/>
					</linearGradient>
					<polygon style="fill:url(#SVGID_00000106148997428549091510000010978489559157795714_);" points="2052.6,3071.46 
						2027.2,3073.26 2027.2,2927.98 2052.6,2926.38 					"/>
					
						<linearGradient id="SVGID_00000084517556357349307560000005098361810609599658_" gradientUnits="userSpaceOnUse" x1="2079.2336" y1="2902.2373" x2="2093.0649" y2="3113.1682">
						<stop  offset="0" style="stop-color:#FF9085"/>
						<stop  offset="1" style="stop-color:#FB6FBB"/>
					</linearGradient>
					<polygon style="fill:url(#SVGID_00000084517556357349307560000005098361810609599658_);" points="2097.59,3068.28 
						2072.31,3070.07 2072.31,2910.22 2097.59,2908.65 					"/>
					
						<linearGradient id="SVGID_00000062170576924673071810000003512096243162636691_" gradientUnits="userSpaceOnUse" x1="2126.8523" y1="2981.5398" x2="2133.7537" y2="3086.7856">
						<stop  offset="0" style="stop-color:#FF9085"/>
						<stop  offset="1" style="stop-color:#FB6FBB"/>
					</linearGradient>
					<polygon style="fill:url(#SVGID_00000062170576924673071810000003512096243162636691_);" points="2142.36,3065.11 
						2117.2,3066.89 2117.2,2987.16 2142.36,2985.49 					"/>
					
						<linearGradient id="SVGID_00000016787915679744191340000010857040084966237319_" gradientUnits="userSpaceOnUse" x1="2167.8325" y1="2875.7048" x2="2182.9028" y2="3105.5288">
						<stop  offset="0" style="stop-color:#FF9085"/>
						<stop  offset="1" style="stop-color:#FB6FBB"/>
					</linearGradient>
					<polygon style="fill:url(#SVGID_00000016787915679744191340000010857040084966237319_);" points="2186.92,3061.96 
						2161.88,3063.73 2161.88,2889.57 2186.92,2888.03 					"/>
					
						<linearGradient id="SVGID_00000021817798989563668460000006336460801637549449_" gradientUnits="userSpaceOnUse" x1="2213.085" y1="2898.481" x2="2225.8896" y2="3093.7507">
						<stop  offset="0" style="stop-color:#FF9085"/>
						<stop  offset="1" style="stop-color:#FB6FBB"/>
					</linearGradient>
					<polygon style="fill:url(#SVGID_00000021817798989563668460000006336460801637549449_);" points="2231.27,3058.83 
						2206.35,3060.59 2206.35,2912.61 2231.27,2911.05 					"/>
					
						<linearGradient id="SVGID_00000048480057568017080950000014023480355204240828_" gradientUnits="userSpaceOnUse" x1="2261.4404" y1="3012.8198" x2="2264.8723" y2="3065.1555">
						<stop  offset="0" style="stop-color:#FF9085"/>
						<stop  offset="1" style="stop-color:#FB6FBB"/>
					</linearGradient>
					<polygon style="fill:url(#SVGID_00000048480057568017080950000014023480355204240828_);" points="2275.42,3055.71 
						2250.61,3057.46 2250.61,3017.87 2275.42,3016.17 					"/>
					
						<linearGradient id="SVGID_00000107583000090752902100000001805982955128516777_" gradientUnits="userSpaceOnUse" x1="2303.2339" y1="2949.5588" x2="2311.2664" y2="3072.0525">
						<stop  offset="0" style="stop-color:#FF9085"/>
						<stop  offset="1" style="stop-color:#FB6FBB"/>
					</linearGradient>
					<polygon style="fill:url(#SVGID_00000107583000090752902100000001805982955128516777_);" points="2319.35,3052.6 
						2294.66,3054.34 2294.66,2961.52 2319.35,2959.9 					"/>
					
						<linearGradient id="SVGID_00000033364556294731975740000006675622701035691409_" gradientUnits="userSpaceOnUse" x1="2345.2354" y1="2898.9309" x2="2356.7842" y2="3075.052">
						<stop  offset="0" style="stop-color:#FF9085"/>
						<stop  offset="1" style="stop-color:#FB6FBB"/>
					</linearGradient>
					<polygon style="fill:url(#SVGID_00000033364556294731975740000006675622701035691409_);" points="2363.08,3049.51 
						2338.51,3051.24 2338.51,2917.78 2363.08,2916.21 					"/>
					
						<linearGradient id="SVGID_00000115507247514722396420000011078960812078095234_" gradientUnits="userSpaceOnUse" x1="2390.2388" y1="2935.6616" x2="2398.6411" y2="3063.8005">
						<stop  offset="0" style="stop-color:#FF9085"/>
						<stop  offset="1" style="stop-color:#FB6FBB"/>
					</linearGradient>
					<polygon style="fill:url(#SVGID_00000115507247514722396420000011078960812078095234_);" points="2406.61,3046.43 
						2382.15,3048.16 2382.15,2951.05 2406.61,2949.45 					"/>
					
						<linearGradient id="SVGID_00000011725295758771353020000000548226346334524565_" gradientUnits="userSpaceOnUse" x1="2431.2009" y1="2869.1746" x2="2444.2039" y2="3067.4731">
						<stop  offset="0" style="stop-color:#FF9085"/>
						<stop  offset="1" style="stop-color:#FB6FBB"/>
					</linearGradient>
					<polygon style="fill:url(#SVGID_00000011725295758771353020000000548226346334524565_);" points="2449.93,3043.36 
						2425.59,3045.09 2425.59,2894.81 2449.93,2893.29 					"/>
					
						<linearGradient id="SVGID_00000042729296817214395470000016762353625184876976_" gradientUnits="userSpaceOnUse" x1="2473.4995" y1="2844.5349" x2="2487.9189" y2="3064.4338">
						<stop  offset="0" style="stop-color:#FF9085"/>
						<stop  offset="1" style="stop-color:#FB6FBB"/>
					</linearGradient>
					<polygon style="fill:url(#SVGID_00000042729296817214395470000016762353625184876976_);" points="2493.05,3040.31 
						2468.82,3042.03 2468.82,2875.39 2493.05,2873.89 					"/>
				</g>
			</g>
			<path class="st8" d="M617.64,2707.16l722.65,118.91l1239.36-389.64c3.44-1.08,2.93-6.11-0.66-6.42
				c-107.01-9.28-697.32-60.48-700.59-60.44l-1250.88,42.19c-26.41,0.33-47.64,21.84-47.64,48.24v202.66
				C579.88,2684.75,595.86,2703.58,617.64,2707.16z"/>
			<path class="st9" d="M625.35,2446.48l727.49,66.79v294.28c0,0-727.49-104.12-727.49-118.37
				C625.35,2674.92,625.35,2446.48,625.35,2446.48z"/>
			<g>
				<path class="st0" d="M1315.12,2789v-266.58c0-23.9,20.71-44.05,46.21-45.02l1209.28-45.91c22.39-0.85,40.51,16.56,40.51,38.88
					v249.03c0,22.32-18.11,41.43-40.51,42.68l-1209.28,67.61C1335.84,2831.1,1315.12,2812.89,1315.12,2789z"/>
				<path class="st8" d="M1440.15,2557.72c0,15.98-13.79,29.55-30.83,30.29c-17.07,0.75-30.93-11.65-30.93-27.68
					c0-16.03,13.86-29.6,30.93-30.3C1426.36,2529.34,1440.15,2541.74,1440.15,2557.72z"/>
				<path class="st8" d="M1537.28,2553.62c0,15.91-13.66,29.4-30.53,30.13c-16.9,0.74-30.62-11.6-30.62-27.55
					s13.72-29.45,30.62-30.14C1523.62,2525.38,1537.28,2537.72,1537.28,2553.62z"/>
				<path class="st8" d="M1633.45,2549.56c0,15.83-13.52,29.25-30.23,29.98c-16.73,0.73-30.32-11.55-30.32-27.42
					c0-15.88,13.59-29.3,30.32-29.98C1619.93,2521.46,1633.45,2533.73,1633.45,2549.56z"/>
				
					<linearGradient id="SVGID_00000074409329591938537310000001546179792777275311_" gradientUnits="userSpaceOnUse" x1="1861.0681" y1="2474.3315" x2="2390.8225" y2="2771.2122">
					<stop  offset="0" style="stop-color:#444B8C"/>
					<stop  offset="0.9964" style="stop-color:#26264F"/>
				</linearGradient>
				<polygon style="fill:url(#SVGID_00000074409329591938537310000001546179792777275311_);" points="2546.67,2710.12 
					1693.63,2755.36 1693.63,2518.45 2546.67,2483.69 				"/>
				<g class="st11">
					<polygon class="st0" points="1778.11,2734.23 1751.97,2735.59 1751.97,2544.56 1778.11,2543.45 					"/>
					<polygon class="st0" points="1824.41,2731.81 1798.4,2733.17 1798.4,2542.6 1824.41,2541.5 					"/>
					<polygon class="st0" points="1870.49,2729.41 1844.6,2730.76 1844.6,2540.64 1870.49,2539.55 					"/>
					<polygon class="st0" points="1916.34,2727.02 1890.58,2728.36 1890.58,2538.7 1916.34,2537.61 					"/>
					<polygon class="st0" points="1961.98,2724.64 1936.34,2725.97 1936.34,2536.77 1961.98,2535.69 					"/>
					<polygon class="st0" points="2007.4,2722.27 1981.88,2723.6 1981.88,2534.85 2007.4,2533.77 					"/>
					<polygon class="st0" points="2052.6,2719.91 2027.2,2721.24 2027.2,2532.93 2052.6,2531.86 					"/>
					<polygon class="st0" points="2097.59,2717.56 2072.31,2718.88 2072.31,2531.03 2097.59,2529.96 					"/>
					<polygon class="st0" points="2142.36,2715.23 2117.2,2716.54 2117.2,2529.13 2142.36,2528.07 					"/>
					<polygon class="st0" points="2186.92,2712.91 2161.88,2714.21 2161.88,2527.25 2186.92,2526.19 					"/>
					<polygon class="st0" points="2231.27,2710.59 2206.35,2711.89 2206.35,2525.37 2231.27,2524.32 					"/>
					<polygon class="st0" points="2275.42,2708.29 2250.61,2709.58 2250.61,2523.5 2275.42,2522.45 					"/>
					<polygon class="st0" points="2319.35,2706 2294.66,2707.28 2294.66,2521.64 2319.35,2520.6 					"/>
					<polygon class="st0" points="2363.08,2703.72 2338.51,2705 2338.51,2519.79 2363.08,2518.75 					"/>
					<polygon class="st0" points="2406.61,2701.45 2382.15,2702.72 2382.15,2517.94 2406.61,2516.91 					"/>
					<polygon class="st0" points="2449.93,2699.19 2425.59,2700.46 2425.59,2516.11 2449.93,2515.08 					"/>
					<polygon class="st0" points="2493.05,2696.94 2468.82,2698.2 2468.82,2514.28 2493.05,2513.26 					"/>
				</g>
				<g class="st12">
					
						<linearGradient id="SVGID_00000020396281218840492720000015153029923768378797_" gradientUnits="userSpaceOnUse" x1="1760.3441" y1="2582.0684" x2="1774.4401" y2="2797.0332">
						<stop  offset="0" style="stop-color:#FF9085"/>
						<stop  offset="1" style="stop-color:#FB6FBB"/>
					</linearGradient>
					<polygon style="fill:url(#SVGID_00000020396281218840492720000015153029923768378797_);" points="1778.11,2734.23 
						1751.97,2735.59 1751.97,2573.04 1778.11,2571.9 					"/>
					
						<linearGradient id="SVGID_00000171701620450548284650000011077048386829403312_" gradientUnits="userSpaceOnUse" x1="1810.8127" y1="2713.7002" x2="1812.5322" y2="2739.9229">
						<stop  offset="0" style="stop-color:#FF9085"/>
						<stop  offset="1" style="stop-color:#FB6FBB"/>
					</linearGradient>
					<polygon style="fill:url(#SVGID_00000171701620450548284650000011077048386829403312_);" points="1824.41,2731.81 
						1798.4,2733.17 1798.4,2713.65 1824.41,2712.32 					"/>
					
						<linearGradient id="SVGID_00000042738949369170897480000007850815948482827679_" gradientUnits="userSpaceOnUse" x1="1854.12" y1="2622.5757" x2="1863.7316" y2="2769.1521">
						<stop  offset="0" style="stop-color:#FF9085"/>
						<stop  offset="1" style="stop-color:#FB6FBB"/>
					</linearGradient>
					<polygon style="fill:url(#SVGID_00000042738949369170897480000007850815948482827679_);" points="1870.49,2729.41 
						1844.6,2730.76 1844.6,2620.03 1870.49,2618.83 					"/>
					
						<linearGradient id="SVGID_00000017484392896953672400000008844577205117464236_" gradientUnits="userSpaceOnUse" x1="1901.9326" y1="2680.5569" x2="1906.0903" y2="2743.9631">
						<stop  offset="0" style="stop-color:#FF9085"/>
						<stop  offset="1" style="stop-color:#FB6FBB"/>
					</linearGradient>
					<polygon style="fill:url(#SVGID_00000017484392896953672400000008844577205117464236_);" points="1916.34,2727.02 
						1890.58,2728.36 1890.58,2680.66 1916.34,2679.38 					"/>
					
						<linearGradient id="SVGID_00000062151502493307058440000009797043014891969211_" gradientUnits="userSpaceOnUse" x1="1945.1483" y1="2603.2908" x2="1955.7257" y2="2764.5972">
						<stop  offset="0" style="stop-color:#FF9085"/>
						<stop  offset="1" style="stop-color:#FB6FBB"/>
					</linearGradient>
					<polygon style="fill:url(#SVGID_00000062151502493307058440000009797043014891969211_);" points="1961.98,2724.64 
						1936.34,2725.97 1936.34,2604.08 1961.98,2602.91 					"/>
					
						<linearGradient id="SVGID_00000068651084443401684870000003346306643822270885_" gradientUnits="userSpaceOnUse" x1="1991.7922" y1="2637.676" x2="1999.0776" y2="2748.7808">
						<stop  offset="0" style="stop-color:#FF9085"/>
						<stop  offset="1" style="stop-color:#FB6FBB"/>
					</linearGradient>
					<polygon style="fill:url(#SVGID_00000068651084443401684870000003346306643822270885_);" points="2007.4,2722.27 
						1981.88,2723.6 1981.88,2639.74 2007.4,2638.53 					"/>
					
						<linearGradient id="SVGID_00000092424558560360890290000001483700088581957787_" gradientUnits="userSpaceOnUse" x1="2034.8351" y1="2570.7976" x2="2047.4357" y2="2762.9573">
						<stop  offset="0" style="stop-color:#FF9085"/>
						<stop  offset="1" style="stop-color:#FB6FBB"/>
					</linearGradient>
					<polygon style="fill:url(#SVGID_00000092424558560360890290000001483700088581957787_);" points="2052.6,2719.91 
						2027.2,2721.24 2027.2,2575.96 2052.6,2574.82 					"/>
					
						<linearGradient id="SVGID_00000172412457868495322360000012464837742341984149_" gradientUnits="userSpaceOnUse" x1="2079.2173" y1="2551.0366" x2="2093.0781" y2="2762.4158">
						<stop  offset="0" style="stop-color:#FF9085"/>
						<stop  offset="1" style="stop-color:#FB6FBB"/>
					</linearGradient>
					<polygon style="fill:url(#SVGID_00000172412457868495322360000012464837742341984149_);" points="2097.59,2717.56 
						2072.31,2718.88 2072.31,2559.04 2097.59,2557.93 					"/>
					
						<linearGradient id="SVGID_00000039843666764594376870000011453425563042972554_" gradientUnits="userSpaceOnUse" x1="2126.8374" y1="2631.1921" x2="2133.7659" y2="2736.8525">
						<stop  offset="0" style="stop-color:#FF9085"/>
						<stop  offset="1" style="stop-color:#FB6FBB"/>
					</linearGradient>
					<polygon style="fill:url(#SVGID_00000039843666764594376870000011453425563042972554_);" points="2142.36,2715.23 
						2117.2,2716.54 2117.2,2636.81 2142.36,2635.6 					"/>
					
						<linearGradient id="SVGID_00000121281042630399513150000011840900175303653801_" gradientUnits="userSpaceOnUse" x1="2167.8157" y1="2526.1575" x2="2182.915" y2="2756.4243">
						<stop  offset="0" style="stop-color:#FF9085"/>
						<stop  offset="1" style="stop-color:#FB6FBB"/>
					</linearGradient>
					<polygon style="fill:url(#SVGID_00000121281042630399513150000011840900175303653801_);" points="2186.92,2712.91 
						2161.88,2714.21 2161.88,2540.05 2186.92,2538.97 					"/>
					
						<linearGradient id="SVGID_00000073715333680565443060000003283265596196225158_" gradientUnits="userSpaceOnUse" x1="2213.0679" y1="2549.7539" x2="2225.9014" y2="2745.4651">
						<stop  offset="0" style="stop-color:#FF9085"/>
						<stop  offset="1" style="stop-color:#FB6FBB"/>
					</linearGradient>
					<polygon style="fill:url(#SVGID_00000073715333680565443060000003283265596196225158_);" points="2231.27,2710.59 
						2206.35,2711.89 2206.35,2563.91 2231.27,2562.81 					"/>
					
						<linearGradient id="SVGID_00000159452826530263916970000009146430162449221017_" gradientUnits="userSpaceOnUse" x1="2261.4285" y1="2664.9919" x2="2264.8826" y2="2717.6672">
						<stop  offset="0" style="stop-color:#FF9085"/>
						<stop  offset="1" style="stop-color:#FB6FBB"/>
					</linearGradient>
					<polygon style="fill:url(#SVGID_00000159452826530263916970000009146430162449221017_);" points="2275.42,2708.29 
						2250.61,2709.58 2250.61,2670 2275.42,2668.76 					"/>
					
						<linearGradient id="SVGID_00000034797401952021861000000014994784776193284529_" gradientUnits="userSpaceOnUse" x1="2303.2168" y1="2602.4656" x2="2311.2773" y2="2725.3909">
						<stop  offset="0" style="stop-color:#FF9085"/>
						<stop  offset="1" style="stop-color:#FB6FBB"/>
					</linearGradient>
					<polygon style="fill:url(#SVGID_00000034797401952021861000000014994784776193284529_);" points="2319.35,2706 
						2294.66,2707.28 2294.66,2614.46 2319.35,2613.3 					"/>
					
						<linearGradient id="SVGID_00000058587763231468355890000010828956365038398081_" gradientUnits="userSpaceOnUse" x1="2345.2175" y1="2552.6421" x2="2356.7947" y2="2729.1982">
						<stop  offset="0" style="stop-color:#FF9085"/>
						<stop  offset="1" style="stop-color:#FB6FBB"/>
					</linearGradient>
					<polygon style="fill:url(#SVGID_00000058587763231468355890000010828956365038398081_);" points="2363.08,2703.72 
						2338.51,2705 2338.51,2571.53 2363.08,2570.43 					"/>
					
						<linearGradient id="SVGID_00000070798053563375345360000003565354149320462999_" gradientUnits="userSpaceOnUse" x1="2390.2207" y1="2590.178" x2="2398.6514" y2="2718.7493">
						<stop  offset="0" style="stop-color:#FF9085"/>
						<stop  offset="1" style="stop-color:#FB6FBB"/>
					</linearGradient>
					<polygon style="fill:url(#SVGID_00000070798053563375345360000003565354149320462999_);" points="2406.61,2701.45 
						2382.15,2702.72 2382.15,2605.62 2406.61,2604.47 					"/>
					
						<linearGradient id="SVGID_00000064330363084454593960000003804236783606995868_" gradientUnits="userSpaceOnUse" x1="2431.1826" y1="2524.4927" x2="2444.2139" y2="2723.2217">
						<stop  offset="0" style="stop-color:#FF9085"/>
						<stop  offset="1" style="stop-color:#FB6FBB"/>
					</linearGradient>
					<polygon style="fill:url(#SVGID_00000064330363084454593960000003804236783606995868_);" points="2449.93,2699.19 
						2425.59,2700.46 2425.59,2550.18 2449.93,2549.11 					"/>
					
						<linearGradient id="SVGID_00000103237572583645515060000018206307664868519065_" gradientUnits="userSpaceOnUse" x1="2473.481" y1="2500.6499" x2="2487.9285" y2="2720.979">
						<stop  offset="0" style="stop-color:#FF9085"/>
						<stop  offset="1" style="stop-color:#FB6FBB"/>
					</linearGradient>
					<polygon style="fill:url(#SVGID_00000103237572583645515060000018206307664868519065_);" points="2493.05,2696.94 
						2468.82,2698.2 2468.82,2531.56 2493.05,2530.51 					"/>
				</g>
			</g>
		</g>
		<g>
			<g>
				<g>
					<path class="st48" d="M2240.87,2334.08c-37.5-15.71-55.58-29.55-70.28-66.64c-25.38-64.04-37.81-134.47-58.42-200.59
						c-123.6,9.96-247.26,20.24-371.04,31.61c-7.45,70.86-28.05,142.5-32.39,213.01c-2.43,39.5,15.25,55.99,50.93,70.18
						c46.97,18.68,101.69,32.63,151.23,45.39c36.86,9.49,54.71,13.08,96.12,9.82c110.12-8.69,230.94-15.41,342.87-22.96
						c13.09-0.88,15.79-7.73,19.66-17.45c3.88-9.72,4.88-16.45-1.99-24.52C2327.75,2357.59,2278.37,2349.79,2240.87,2334.08z"/>
					
						<linearGradient id="SVGID_00000050638390323560158310000010872371637700046779_" gradientUnits="userSpaceOnUse" x1="2046.1016" y1="2362.5251" x2="2046.3439" y2="2251.6687">
						<stop  offset="0" style="stop-color:#40447E"/>
						<stop  offset="0.9964" style="stop-color:#3C3B6B"/>
					</linearGradient>
					<path style="fill:url(#SVGID_00000050638390323560158310000010872371637700046779_);" d="M2243.86,2321.5
						c-36.11-16.21-55.62-28.71-70.12-65.4c-25.03-63.34-38-133.2-58.21-198.7c-120.63,9.91-241.26,20.9-362.11,31.06
						c-7.87,69.54-26.46,141.29-32.71,209.96c-3.5,38.47,7.66,54.89,42.88,69.73c46.36,19.53,101.58,32.1,150.82,44.69
						c36.64,9.36,55.69,12.88,96.75,9.41c109.18-9.23,230.27-15.79,342.03-22.79c13.07-0.82,17.47-6.36,18.79-17.82
						c1.32-11.46-3.61-17.12-15.06-22.02C2322.81,2345.03,2276.84,2336.31,2243.86,2321.5z"/>
				</g>
				
					<linearGradient id="SVGID_00000063590992976231473610000012964544018063264186_" gradientUnits="userSpaceOnUse" x1="2098.917" y1="1881.9752" x2="1479.3655" y2="-293.1363">
					<stop  offset="0" style="stop-color:#444B8C"/>
					<stop  offset="0.9964" style="stop-color:#26264F"/>
				</linearGradient>
				<path style="fill:url(#SVGID_00000063590992976231473610000012964544018063264186_);" d="M2842.41,1919.17V959.61
					c0-19.68-16.22-36.43-36.09-37.23l-1648.54-66.27c-25.09-1.01-45.67,16.33-45.67,38.52V1955.1L2842.41,1919.17z"/>
				<g>
					
						<linearGradient id="SVGID_00000153703924965725292030000006934801822576297089_" gradientUnits="userSpaceOnUse" x1="1163.0959" y1="1474.6168" x2="2803.9885" y2="1474.6168">
						<stop  offset="0.494" style="stop-color:#EBEFF2"/>
						<stop  offset="1" style="stop-color:#FFFFFF"/>
					</linearGradient>
					<path style="fill:url(#SVGID_00000153703924965725292030000006934801822576297089_);" d="M1163.1,1042.23v828.37
						c0,20.68,19.11,37.05,42.41,36.39l1564.57-44.5c18.67-0.53,33.91-16.05,33.91-34.49v-738.81L1163.1,1042.23z"/>
					<path class="st52" d="M2803.99,1089.18v-84.79c0-18.06-14.93-33.4-33.22-34.08l-1566.13-58.43
						c-22.82-0.85-41.54,15.02-41.54,35.27v95.07L2803.99,1089.18z"/>
					<g>
						
							<linearGradient id="SVGID_00000181795499861086567220000013495672868225589682_" gradientUnits="userSpaceOnUse" x1="1248.5371" y1="977.2559" x2="1277.5789" y2="977.2559">
							<stop  offset="0.494" style="stop-color:#EBEFF2"/>
							<stop  offset="1" style="stop-color:#FFFFFF"/>
						</linearGradient>
						<path style="fill:url(#SVGID_00000181795499861086567220000013495672868225589682_);" d="M1277.58,977.73
							c0,7.12-6.49,12.68-14.5,12.43c-8.03-0.25-14.54-6.25-14.54-13.38c0-7.14,6.52-12.7,14.54-12.43
							C1271.09,964.62,1277.58,970.61,1277.58,977.73z"/>
						
							<linearGradient id="SVGID_00000005960811460729728620000011878791470825222074_" gradientUnits="userSpaceOnUse" x1="1311.3817" y1="979.3145" x2="1340.0837" y2="979.3145">
							<stop  offset="0.494" style="stop-color:#EBEFF2"/>
							<stop  offset="1" style="stop-color:#FFFFFF"/>
						</linearGradient>
						<path style="fill:url(#SVGID_00000005960811460729728620000011878791470825222074_);" d="M1340.08,979.79
							c0,7.08-6.41,12.61-14.33,12.36c-7.93-0.25-14.37-6.21-14.37-13.3c0-7.1,6.44-12.63,14.37-12.36
							C1333.67,966.75,1340.08,972.71,1340.08,979.79z"/>
						
							<linearGradient id="SVGID_00000014615867434370809070000015641509426199432100_" gradientUnits="userSpaceOnUse" x1="1373.4927" y1="981.3485" x2="1401.8613" y2="981.3485">
							<stop  offset="0.494" style="stop-color:#EBEFF2"/>
							<stop  offset="1" style="stop-color:#FFFFFF"/>
						</linearGradient>
						<path style="fill:url(#SVGID_00000014615867434370809070000015641509426199432100_);" d="M1401.86,981.81
							c0,7.04-6.34,12.54-14.17,12.29c-7.84-0.25-14.2-6.17-14.2-13.22c0-7.05,6.36-12.56,14.2-12.29
							C1395.52,968.86,1401.86,974.78,1401.86,981.81z"/>
					</g>
				</g>
				
					<linearGradient id="SVGID_00000011714120174277413650000010809307810618583971_" gradientUnits="userSpaceOnUse" x1="1112.1069" y1="2059.1924" x2="2842.4109" y2="2059.1924">
					<stop  offset="0" style="stop-color:#444B8C"/>
					<stop  offset="0.9964" style="stop-color:#26264F"/>
				</linearGradient>
				<path style="fill:url(#SVGID_00000011714120174277413650000010809307810618583971_);" d="M1112.11,1955.1v211.78
					c0,22.2,20.59,39.49,45.67,38.43l1648.54-69.69c19.87-0.84,36.09-17.62,36.09-37.3v-185.3L1112.11,1955.1z"/>
			</g>
			<g>
				<g>
					
						<linearGradient id="SVGID_00000157297979943075323520000001115739605641014187_" gradientUnits="userSpaceOnUse" x1="1570.9718" y1="936.5789" x2="1316.8705" y2="1685.3646">
						<stop  offset="0" style="stop-color:#AA80F9"/>
						<stop  offset="0.9964" style="stop-color:#6165D7"/>
					</linearGradient>
					<path style="fill:url(#SVGID_00000157297979943075323520000001115739605641014187_);" d="M1205.09,949.21l1.33,336.94
						c0.04,11.16,8.21,20.08,18.21,19.92l575.24-9.15c8.61-0.14,15.57-8.61,15.57-18.94V966.44L1205.09,949.21z"/>
					
						<linearGradient id="SVGID_00000167369884116479861870000001742976496285800089_" gradientUnits="userSpaceOnUse" x1="1558.0159" y1="870.8589" x2="1299.7388" y2="1293.0861">
						<stop  offset="0" style="stop-color:#444B8C"/>
						<stop  offset="0.9964" style="stop-color:#26264F"/>
					</linearGradient>
					<path style="fill:url(#SVGID_00000167369884116479861870000001742976496285800089_);" d="M1799.84,926.27l-576.73-19.33
						c-10.03-0.34-18.15,8.48-18.1,19.7l0.14,34.6l610.31,16.32v-31.99C1815.45,935.2,1808.47,926.56,1799.84,926.27z"/>
					<g>
						<g>
							<g>
								<path class="st0" d="M1352.9,1129.56l32.28-128.92c49.1,19.08,84.39,71.81,84.78,133.26L1352.9,1129.56z"/>
							</g>
							<g class="st59">
								<path class="st0" d="M1439.97,1141.83c-1.74,29.3-14,55.31-32.58,73.16l-51.3-76.3L1439.97,1141.83z"/>
								<path class="st0" d="M1345.56,1125.08c-19.96-21.7-44.13-48.05-63.44-69.19c17-18.01,39.95-28.8,65.11-28.32
									c7.6,0.14,14.98,1.31,22.04,3.38L1345.56,1125.08z"/>
								<path class="st0" d="M1341.44,1133.17l-72.33,59.88c-10.28-17.05-16.34-37.62-16.42-59.76c-0.1-27.31,8.9-52.14,23.77-70.87
									c5.36,5.86,11.31,12.35,17.83,19.45C1313.97,1103.33,1333.67,1124.73,1341.44,1133.17z"/>
								<path class="st0" d="M1343.56,1142.74l-1.1,97.04c-27.48-1.55-52.01-16.51-68.47-39.35L1343.56,1142.74z"/>
								<path class="st0" d="M1351.55,1146.88l49.57,73.62c-14.33,11.54-31.73,18.61-50.62,19.35L1351.55,1146.88z"/>
							</g>
						</g>
						<polygon class="st60" points="1774.9,1067.14 1486.18,1062.9 1486.11,1030.42 1774.89,1035.86 						"/>
						<polygon class="st60" points="1774.92,1123.71 1486.31,1121.64 1486.24,1089.19 1774.91,1092.46 						"/>
						<polygon class="st60" points="1774.93,1180.24 1486.43,1180.34 1486.36,1147.91 1774.92,1149.01 						"/>
						<polygon class="st60" points="1774.95,1236.73 1486.56,1239 1486.49,1206.59 1774.94,1205.52 						"/>
					</g>
					<path class="st0" d="M1246.68,934.67c0.02,4.96-3.56,8.88-7.99,8.75c-4.44-0.13-8.06-4.26-8.08-9.23
						c-0.02-4.97,3.57-8.89,8.01-8.75C1243.06,925.58,1246.66,929.71,1246.68,934.67z"/>
				</g>
				<g>
					
						<linearGradient id="SVGID_00000042717729340651833050000013936133339904010905_" gradientUnits="userSpaceOnUse" x1="1639.9613" y1="1468.3571" x2="1389.7949" y2="2382.9429">
						<stop  offset="3.597120e-03" style="stop-color:#E38DDD"/>
						<stop  offset="1" style="stop-color:#9571F6"/>
					</linearGradient>
					<path style="fill:url(#SVGID_00000042717729340651833050000013936133339904010905_);" d="M1219.4,1455.27v383.95
						c0,12.75,9.72,22.67,21.7,22.17l709.18-29.73c10.93-0.46,19.78-10.68,19.78-22.83v-366.05L1219.4,1455.27z"/>
					
						<linearGradient id="SVGID_00000158002233943661576430000004968055492962903462_" gradientUnits="userSpaceOnUse" x1="1657.0887" y1="1337.3285" x2="1320.2731" y2="1887.9491">
						<stop  offset="0" style="stop-color:#444B8C"/>
						<stop  offset="0.9964" style="stop-color:#26264F"/>
					</linearGradient>
					<path style="fill:url(#SVGID_00000158002233943661576430000004968055492962903462_);" d="M1950.28,1396.58l-709.18,9.65
						c-11.98,0.16-21.7,10.63-21.7,23.38v39.34l750.65-13.13v-37.51C1970.06,1406.17,1961.21,1396.44,1950.28,1396.58z"/>
					<polygon class="st60" points="1893.21,1767.69 1303.1,1789.89 1303.1,1527.89 1893.21,1515.34 					"/>
					<path class="st0" d="M1893.21,1767.69l-590.11,22.2v-168.43c19.2,113.89,39.65,138.55,55.06,139.23
						c21.7,0.95,33.37-45.65,66.19-47.96c32.58-2.3,43.57,42.17,67.98,39.78c46.41-4.54,59.02-170.93,96.66-173.05
						c29.9-1.68,50.13,101.97,76.48,97.03c19.26-3.61,23.91-61.93,38.51-61.74c13.23,0.17,13.79,48.18,31.2,52.11
						c25.52,5.76,50.34-91.62,85.52-93.18c19.48-0.86,43.76,27.6,72.52,126.01C1893.21,1753.76,1893.21,1713.62,1893.21,1767.69z"/>
					<path class="st0" d="M1269.84,1435.68c0,5.65-4.3,10.3-9.61,10.38c-5.31,0.09-9.62-4.43-9.62-10.09s4.31-10.31,9.62-10.38
						C1265.54,1425.51,1269.84,1430.03,1269.84,1435.68z"/>
				</g>
				<g>
					<g>
						
							<linearGradient id="SVGID_00000075868144723168733000000013614630365815940025_" gradientUnits="userSpaceOnUse" x1="1849.2898" y1="964.4779" x2="3122.2954" y2="964.4779">
							<stop  offset="0" style="stop-color:#FF9085"/>
							<stop  offset="1" style="stop-color:#FB6FBB"/>
						</linearGradient>
						<path style="fill:url(#SVGID_00000075868144723168733000000013614630365815940025_);" d="M1849.29,629.4v632.46
							c0,21,16.81,37.87,37.5,37.7l1202.59-10.31c18.19-0.16,32.91-16.2,32.91-35.83V662.06L1849.29,629.4z"/>
						
							<linearGradient id="SVGID_00000183239861330497369270000009280310434465099444_" gradientUnits="userSpaceOnUse" x1="2584.6833" y1="468.1331" x2="2050.2705" y2="1341.7825">
							<stop  offset="0" style="stop-color:#444B8C"/>
							<stop  offset="0.9964" style="stop-color:#26264F"/>
						</linearGradient>
						<path style="fill:url(#SVGID_00000183239861330497369270000009280310434465099444_);" d="M3089.39,586.02l-1202.59-35.79
							c-20.69-0.62-37.5,15.9-37.5,36.9v64.81l1273.01,31.2v-60.59C3122.3,602.91,3107.58,586.56,3089.39,586.02z"/>
						<path class="st0" d="M1935.25,602.16c0,9.29-7.42,16.63-16.57,16.39c-9.17-0.24-16.6-7.98-16.6-17.29
							c0-9.31,7.44-16.65,16.6-16.39C1927.83,585.12,1935.25,592.86,1935.25,602.16z"/>
					</g>
					<g>
						<polygon class="st60" points="2106.88,1215.66 2012.88,1216.06 2012.88,745.34 2106.88,747.21 						"/>
						<polygon class="st0" points="2106.88,1215.66 2012.88,1216.06 2012.88,992.57 2106.88,993.25 						"/>
						<polygon class="st60" points="2236.16,1215.1 2143.42,1215.5 2143.42,747.94 2236.16,749.79 						"/>
						<polygon class="st0" points="2236.16,1215.1 2143.42,1215.5 2143.42,1104.5 2236.16,1104.64 						"/>
						<polygon class="st60" points="2363.73,1214.54 2272.21,1214.94 2272.21,750.5 2363.73,752.32 						"/>
						<polygon class="st0" points="2363.73,1214.54 2272.21,1214.94 2272.21,1157.06 2363.73,1156.94 						"/>
						<polygon class="st60" points="2489.61,1214 2399.3,1214.39 2399.3,753.03 2489.61,754.83 						"/>
						<polygon class="st0" points="2489.61,1214 2399.3,1214.39 2399.3,852.97 2489.61,854.29 						"/>
						<polygon class="st60" points="2613.83,1213.46 2524.71,1213.85 2524.71,755.53 2613.83,757.3 						"/>
						<polygon class="st0" points="2613.83,1213.46 2524.71,1213.85 2524.71,895.61 2613.83,896.72 						"/>
						<polygon class="st60" points="2736.44,1212.93 2648.48,1213.31 2648.48,757.99 2736.44,759.74 						"/>
						<polygon class="st0" points="2736.44,1212.93 2648.48,1213.31 2648.48,824.2 2736.44,825.64 						"/>
						<polygon class="st60" points="2857.47,1212.4 2770.64,1212.78 2770.64,760.42 2857.47,762.15 						"/>
						<polygon class="st0" points="2857.47,1212.4 2770.64,1212.78 2770.64,934.92 2857.47,935.84 						"/>
						<polygon class="st60" points="2976.93,1211.89 2891.22,1212.26 2891.22,762.83 2976.93,764.53 						"/>
						<polygon class="st0" points="2976.93,1211.89 2891.22,1212.26 2891.22,1056.22 2976.93,1056.57 						"/>
					</g>
				</g>
				<g>
					<g>
						
							<linearGradient id="SVGID_00000046330443305923307360000016430069567811752635_" gradientUnits="userSpaceOnUse" x1="2368.6355" y1="1426.6633" x2="2180.6821" y2="1908.8036">
							<stop  offset="0" style="stop-color:#AA80F9"/>
							<stop  offset="0.9964" style="stop-color:#6165D7"/>
						</linearGradient>
						<path style="fill:url(#SVGID_00000046330443305923307360000016430069567811752635_);" d="M2022.18,1392.91v322.29
							c0,10.7,7.73,19.07,17.24,18.7l567.68-22.25c8.81-0.35,15.95-8.96,15.95-19.23v-309.57L2022.18,1392.91z"/>
						
							<linearGradient id="SVGID_00000132768131764223887750000004692636447614472634_" gradientUnits="userSpaceOnUse" x1="2372.9329" y1="1297.3339" x2="2101.6826" y2="1740.769">
							<stop  offset="0" style="stop-color:#444B8C"/>
							<stop  offset="0.9964" style="stop-color:#26264F"/>
						</linearGradient>
						<path style="fill:url(#SVGID_00000132768131764223887750000004692636447614472634_);" d="M2607.11,1343.77l-567.68,7.99
							c-9.52,0.13-17.24,8.92-17.24,19.62v33.02l600.88-10.52v-31.72C2623.05,1351.87,2615.92,1343.64,2607.11,1343.77z"/>
						<path class="st0" d="M2062.27,1376.49c0,4.74-3.42,8.65-7.64,8.72c-4.22,0.07-7.65-3.73-7.65-8.47c0-4.75,3.42-8.65,7.65-8.72
							C2058.85,1367.95,2062.27,1371.74,2062.27,1376.49z"/>
					</g>
					<g>
						<path class="st60" d="M2113.05,1548.16c5.25-11.27,15.09-19.47,26.65-21.29l0.81-55.17c-32.87,2.15-60.97,25.74-73.51,58.46
							L2113.05,1548.16z"/>
						<path class="st0" d="M2148.95,1526.81c15.63,2.25,27.81,16.4,29.27,34.33l48.33,0.89c-0.62-48.81-34.16-87.85-76.79-90.35
							L2148.95,1526.81z"/>
						<path class="st60" d="M2177.84,1571.58c-2.84,18.46-17.01,32.87-34.09,33.4c-5.04,0.16-9.83-0.91-14.15-2.96l-25.71,47.83
							c11.87,6.89,25.45,10.56,39.86,10.07c43.15-1.49,78.42-39.86,82.42-87.48L2177.84,1571.58z"/>
						<path class="st60" d="M2095.98,1644.59l25.74-47.85c-7.77-6.97-12.73-17.77-12.73-30.02c0-2.96,0.29-5.85,0.84-8.64
							l-46.07-17.97c-2.41,8.88-3.71,18.29-3.71,28C2060.04,1600.27,2074.27,1628.22,2095.98,1644.59z"/>
					</g>
					<g>
						<path class="st0" d="M2292.91,1543.29c5.12-11.14,14.73-19.23,26.02-21.03l0.79-54.51c-32.09,2.12-59.53,25.41-71.77,57.74
							L2292.91,1543.29z"/>
						<path class="st60" d="M2327.96,1522.19c15.26,2.23,27.16,16.21,28.58,33.93l47.19,0.89c-0.6-48.24-33.36-86.83-74.98-89.3
							L2327.96,1522.19z"/>
						<path class="st60" d="M2356.17,1566.45c-2.77,18.24-16.61,32.48-33.28,32.99c-4.92,0.15-9.59-0.9-13.82-2.93l-25.11,47.25
							c11.59,6.81,24.85,10.45,38.92,9.96c42.13-1.46,76.58-39.36,80.48-86.42L2356.17,1566.45z"/>
						<path class="st60" d="M2276.24,1638.56l25.13-47.27c-7.59-6.89-12.43-17.56-12.43-29.67c0-2.92,0.28-5.78,0.82-8.54
							l-44.98-17.77c-2.36,8.78-3.62,18.07-3.62,27.66C2241.16,1594.75,2255.05,1622.37,2276.24,1638.56z"/>
					</g>
					<g>
						<path class="st60" d="M2468.55,1538.53c5-11,14.39-19,25.41-20.77l0.77-53.87c-31.34,2.08-58.14,25.1-70.09,57.04
							L2468.55,1538.53z"/>
						<path class="st60" d="M2502.78,1517.69c14.9,2.21,26.52,16.03,27.91,33.55l46.1,0.9c-0.59-47.68-32.59-85.82-73.24-88.28
							L2502.78,1517.69z"/>
						<path class="st0" d="M2530.33,1561.43c-2.71,18.03-16.22,32.09-32.51,32.6c-4.8,0.15-9.37-0.9-13.49-2.9l-24.52,46.69
							c11.32,6.74,24.27,10.34,38.01,9.86c41.15-1.42,74.8-38.87,78.61-85.38L2530.33,1561.43z"/>
						<path class="st60" d="M2452.27,1632.68l24.54-46.7c-7.41-6.82-12.14-17.36-12.14-29.32c0-2.89,0.28-5.71,0.8-8.44
							l-43.93-17.58c-2.3,8.67-3.54,17.85-3.54,27.33C2418,1589.37,2431.57,1616.67,2452.27,1632.68z"/>
					</g>
				</g>
			</g>
		</g>
		<g>
			<g>
				<g>
					
						<linearGradient id="SVGID_00000152239212334334978360000010384606251542387595_" gradientUnits="userSpaceOnUse" x1="-154.6898" y1="2351.6038" x2="-114.4676" y2="2385.8469" gradientTransform="matrix(-0.9356 0.353 0.353 0.9356 1891.4508 -226.0846)">
						<stop  offset="0" style="stop-color:#AB316D"/>
						<stop  offset="1" style="stop-color:#792D3D"/>
					</linearGradient>
					<path style="fill:url(#SVGID_00000152239212334334978360000010384606251542387595_);" d="M2829.44,1961.81l4.5-19.92
						c0,0,6.05-16.62,26.69-21.12c20.64-4.49,21.36,6.79,21.36,6.79l-13.27,5.18c0,0-8.59,3.29-13.55,16.56
						c-7.35,13.71-15.4,20.39-15.4,20.39L2829.44,1961.81z"/>
					
						<linearGradient id="SVGID_00000021080614951901327270000012104870474983532712_" gradientUnits="userSpaceOnUse" x1="1796.9331" y1="3193.6318" x2="1796.9331" y2="3134.9351" gradientTransform="matrix(1 0 0 1 1315.7783 0)">
						<stop  offset="0" style="stop-color:#AB316D"/>
						<stop  offset="1" style="stop-color:#792D3D"/>
					</linearGradient>
					<path style="fill:url(#SVGID_00000021080614951901327270000012104870474983532712_);" d="M3096.65,3139.54
						c0,0,12.82,32.24,9.45,46.54c13.77-0.27,22.68-2.02,22.68-2.02s-5.53-14.7-6.61-21.99c-1.46-9.84-1.35-25.77-1.35-25.77
						L3096.65,3139.54z"/>
					<path class="st69" d="M2859.65,3223.94c0.79,0.95,2.19,2.95,2.31,5.64c0.06,1.47-0.27,2.67-0.69,3.78
						c-2.08,5.48-5.36,6.2-8.89,12.02c-2.16,3.55-1.75,4.62-3.73,6.23c-2.6,2.11-5.76,2.23-8.49,2.27
						c-4.62,0.05-11.26-0.11-19.63-1.11c4.39-5.65,9.05-11.39,14.01-17.18c2.18-2.54,4.35-5.02,6.51-7.44l12.89-4.35
						C2855.85,3223.84,2857.75,3223.89,2859.65,3223.94z"/>
					
						<linearGradient id="SVGID_00000149382369095297773590000011664876135431358854_" gradientUnits="userSpaceOnUse" x1="1523.2981" y1="3219.5671" x2="1523.2981" y2="3152.157" gradientTransform="matrix(1 0 0 1 1315.7783 0)">
						<stop  offset="0" style="stop-color:#AB316D"/>
						<stop  offset="1" style="stop-color:#792D3D"/>
					</linearGradient>
					<path style="fill:url(#SVGID_00000149382369095297773590000011664876135431358854_);" d="M2848.93,3161.37
						c0,0-7.37,38.43,2.01,49.2c7.99,10.76-3.86,3.08-3.86,3.08l-14.15,12.34l-8.49,14.66c0,0,7.81-37.62,5.73-52.55
						c-2.08-14.93-3.13-25-3.13-25L2848.93,3161.37z"/>
					
						<linearGradient id="SVGID_00000058549865068974071510000012579971969789621911_" gradientUnits="userSpaceOnUse" x1="-169.0742" y1="3250.479" x2="-421.389" y2="2231.7607" gradientTransform="matrix(-1 0 0 1 2666.2153 0)">
						<stop  offset="0" style="stop-color:#444B8C"/>
						<stop  offset="0.9964" style="stop-color:#26264F"/>
					</linearGradient>
					<path style="fill:url(#SVGID_00000058549865068974071510000012579971969789621911_);" d="M2776.81,2439.59
						c-9.43,31.12-22.89,81.36-31.55,144.38c-24.71,179.77,27.81,185.5,18,384.71c-3.13,63.59,55.09,210.22,60.22,213.45
						c2.48,0.24,5.18,0.4,8.05,0.32c5.06-0.15,12.2-0.93,20.51-3.42c9.22-1.59,42.47-91.65,34.77-145.2
						c-5.45-37.9-3.87-78.57-0.71-159.92c0.51-13.18,34.24-256.44,34.24-256.44c10.26,90.04,22.05,166.55,32.28,225.86
						c32.86,190.57,139.7,305.92,145.27,307.77c1.1,0.44,11.13,4.08,19.32-1.32c3.65-2.4,4.89-5.51,4.89-5.51
						c2.86-2.24-0.84-190.26-33.43-331.77c-47.3-205.4-26.7-253.46-41.69-345.2C3034.01,2387.93,2776.81,2439.59,2776.81,2439.59z"
						/>
					<g>
						<path class="st69" d="M3102.73,3198.31c0,0-3.2,0-2.93,4.13c0.27,4.13-1.44,18.32,14.81,18.98
							c16.24,0.67,18.75-1.15,19.28-1.15c0.53,0-4.26-13.57-4.26-13.57l-5.19-6.65l-13.98-1.46L3102.73,3198.31z"/>
						<path class="st72" d="M3138.75,3212.56c-0.35-3.43-2.27-8.82-4.2-13.16c-2.87-6.45-0.51-8.86-3.26-14.74
							c-0.95-2.03-1.87-3.96-3.87-5.86c-0.46-0.44-4.94-4.58-11.47-4.37c-1.28,0.04-3.26,0.13-5.4,1.27
							c-2.52,1.34-3.78,3.36-4.86,5.13c-1.69,2.78-1.3,3.63-3.91,11.6c-0.21,0.64-0.67,2.03-1.02,3.95
							c-0.27,1.47-0.38,2.7-0.43,3.54c4.26,0,20.64,0.67,24.1,3.19c3.46,2.53,5.19,6.79,5.19,11.05c0,4.26,2.13,6.25,4.26,6.12
							C3135.79,3220.15,3139.57,3216.63,3138.75,3212.56z"/>
					</g>
					<path class="st72" d="M2846.95,3205.17c3.49,0.05,6.04,2.83,7.97,9.51c1.93,6.68,11.19,12.6,0.39,11.18
						c-10.8-1.41-18.65,13.88-22.51,19.54c-3.86,5.66-14.22,10.68-13.96,5.15c0.26-5.53,4.83-8.11,6.11-13.77
						C2826.25,3231.14,2839,3205.04,2846.95,3205.17z"/>
					
						<linearGradient id="SVGID_00000038395875151221292170000000336288550221164724_" gradientUnits="userSpaceOnUse" x1="2834.106" y1="2051.196" x2="3072.5034" y2="2597.5242">
						<stop  offset="0" style="stop-color:#FFC444"/>
						<stop  offset="0.9964" style="stop-color:#F36F56"/>
					</linearGradient>
					<path style="fill:url(#SVGID_00000038395875151221292170000000336288550221164724_);" d="M2967.86,2067.07
						c-31.4-0.92-92.23-11.18-131.99,24.59c-0.69,0.62-3.91,4.14-7.92,8.84c-3.72,4.36-16.49,19.63-28.07,40.28
						c-8.39,14.95-15.96,32.38-23.59,58.36c-13.47,45.81-17.33,84.82-18.62,101.82c-7.27,95.58-0.06,139.68,6.48,169.66
						c28.39,14.59,101.56,40.68,188.73,27.72c39.81-5.92,71.67-19.17,94.09-31c-22.62-68.49-4.87-105.14,3.5-138.92
						c16.53-66.69,20.27-92.88,67-188.8c12.88-26.44-17.71-11.63-37.3-34.84C3050.12,2069.18,2995.98,2067.9,2967.86,2067.07z"/>
					<g>
						
							<linearGradient id="SVGID_00000058548969093237972610000018337541630661108889_" gradientUnits="userSpaceOnUse" x1="1684.8282" y1="2012.0798" x2="1623.1785" y2="2111.8074" gradientTransform="matrix(1 0 0 1 1315.7783 0)">
							<stop  offset="0" style="stop-color:#AB316D"/>
							<stop  offset="1" style="stop-color:#792D3D"/>
						</linearGradient>
						<path style="fill:url(#SVGID_00000058548969093237972610000018337541630661108889_);" d="M2943.33,2025.91
							c2.46-18.95,17.44-31.09,20.71-33.69c13.69-10.88,16.47-11.97,21.17-12.87l6.42-0.97c0,0,0.34,0.01,0.7,0.03
							c3.76,0.23,15.02,4.62,17.07,6.06c6.54,4.6,1.73,37.18-18.11,77.7c-0.78,3.43-1.56,6.86-2.34,10.29
							c17.28,3.04,21.57,6.16,21.7,8.65c0.29,5.39-18.63,12.27-36.17,12.72c-21.99,0.56-45.35-8.9-44.9-15.96
							c0.18-2.86,4.33-6.39,20.3-9.85c2.5-3.51,4.99-7.02,7.49-10.53C2955.1,2054.74,2941.52,2039.87,2943.33,2025.91z"/>
						<path class="st69" d="M2985.21,1966.02c-6.9,6.74-8.59,18.46-6.55,26.9c1.22,5.05,2.8,5.58,2.57,8.89
							c-0.63,9.29-17.55,13.34-16.61,18.01c0.67,3.34,9.48,2.12,11,6.32c1.66,4.6-8.01,8.55-12.17,20.12
							c-0.65,1.8-4.58,12.75,0.47,19.18c4.71,6.01,15.25,4.59,27.14,3.04c13.11-1.7,22.51-5.58,25.27-6.78
							c8.68-3.81,18-7.9,25.73-17.31c1.83-2.23,12.6-15.74,11.7-34.62c-1.19-24.81-21.93-46-43.28-49.36
							C3007.01,1959.86,2993.67,1957.75,2985.21,1966.02z"/>
						
							<linearGradient id="SVGID_00000113336942914800051610000007516311790963397291_" gradientUnits="userSpaceOnUse" x1="1017.9522" y1="1644.9923" x2="958.2933" y2="1741.4993" gradientTransform="matrix(0.9717 -0.2361 0.2361 0.9717 1600.9902 640.4755)">
							<stop  offset="0" style="stop-color:#AB316D"/>
							<stop  offset="1" style="stop-color:#792D3D"/>
						</linearGradient>
						<path style="fill:url(#SVGID_00000113336942914800051610000007516311790963397291_);" d="M2970.52,2018.77
							c4.99-2.98,8.79,3.43,6.44,9.04c-2.35,5.61-10.25,9.12-15.04,5.77C2957.13,2030.25,2963.81,2022.79,2970.52,2018.77z"/>
					</g>
					
						<linearGradient id="SVGID_00000022538700270308793020000011850448754132607385_" gradientUnits="userSpaceOnUse" x1="2747.9368" y1="2088.7966" x2="2986.335" y2="2635.1262">
						<stop  offset="0" style="stop-color:#FFC444"/>
						<stop  offset="0.9964" style="stop-color:#F36F56"/>
					</linearGradient>
					<path style="fill:url(#SVGID_00000022538700270308793020000011850448754132607385_);" d="M2898.81,2066.28
						c-30.63-3.1-92.81-0.45-95.19-9.31c-0.39-1.45-0.35-3.81,10.55-16.14c21.82-24.69,33.86-29.09,38.49-43.46
						c1.64-5.09,2.85-12.98-0.36-24.14c-0.05-0.06-13.54-15.65-13.58-15.72c-3.48-5.84-6.96-11.67-13.59-15.72
						c-11.96-2.73-26.16-4.49-42.01-3.39c-93.5,6.51-196.5,109.46-179.42,197.42c15.67,80.71,133.49,154.21,265.87,113.45
						C2921.86,2119.96,2919.68,2068.4,2898.81,2066.28z"/>
					
						<linearGradient id="SVGID_00000110449855923440972650000010512195831616507268_" gradientUnits="userSpaceOnUse" x1="-375.0936" y1="2334.1812" x2="-326.5938" y2="2527.012" gradientTransform="matrix(-1 0 0 1 2666.2153 0)">
						<stop  offset="0" style="stop-color:#AB316D"/>
						<stop  offset="1" style="stop-color:#792D3D"/>
					</linearGradient>
					<path style="fill:url(#SVGID_00000110449855923440972650000010512195831616507268_);" d="M3040.64,2389.47
						c0,0-4.38,2.92-11.1,1.46c-6.72-1.46-14.9-7.01-22.21-9.35c-7.3-2.34-7.89,8.47,2.92,14.02c10.81,5.55,20.16,16.65,24.25,25.13
						c4.09,8.47,14.32-10.23,14.32-10.23L3040.64,2389.47z"/>
					
						<linearGradient id="SVGID_00000043443909402939704070000017054048500653278655_" gradientUnits="userSpaceOnUse" x1="3004.1067" y1="1977.0138" x2="3242.5046" y2="2523.3428">
						<stop  offset="0" style="stop-color:#FFC444"/>
						<stop  offset="0.9964" style="stop-color:#F36F56"/>
					</linearGradient>
					<path style="fill:url(#SVGID_00000043443909402939704070000017054048500653278655_);" d="M3045.32,2081.19
						c16.6-0.68,92.05-1.96,154.38,54.63c12.53,11.38,72.1,65.45,67.05,142.79c-6.05,92.76-101.95,171.32-175.69,160.13
						c-17.2-2.61-31.16-9.79-41.6-16.93l-12.27-34.7c-0.2-24.79,13.36-42.13,20.34-51.71c17.19-23.61,41.7-27.74,45.32-48.66
						c2-11.58-3.65-21.05-8.69-29.52c-17.18-28.84-44.62-32.4-58.83-47.15C3020.68,2194.84,3003.91,2156.67,3045.32,2081.19z"/>
				</g>
				<path class="st79" d="M2764.71,2260.55c-0.08,0-0.16-0.01-0.24-0.01c-0.99-0.13-1.68-1.04-1.56-2.03
					c10.68-81.3,27.32-116.11,27.49-116.45c0.44-0.9,1.54-1.27,2.41-0.83c0.9,0.44,1.27,1.52,0.83,2.41
					c-0.16,0.34-16.56,34.73-27.15,115.34C2766.38,2259.89,2765.61,2260.55,2764.71,2260.55z"/>
			</g>
		</g>
	</g>
</g>
</svg>
