<?xml version="1.0" encoding="utf-8"?>
<!-- Generator: Adobe Illustrator 25.4.1, SVG Export Plug-In . SVG Version: 6.00 Build 0)  -->
<svg version="1.1" xmlns="http://www.w3.org/2000/svg" xmlns:xlink="http://www.w3.org/1999/xlink" x="0px" y="0px"
	 viewBox="0 0 500 500" style="enable-background:new 0 0 500 500;" xml:space="preserve">
<style type="text/css">
	.st0{fill:#F5F5F5;}
	.st1{fill:#E0E0E0;}
	.st2{fill:#BA68C8;}
	.st3{opacity:0.15;fill:#FFFFFF;}
	.st4{opacity:0.3;fill:#FFFFFF;}
	.st5{opacity:0.1;}
	.st6{opacity:0.2;}
	.st7{fill:#FAFAFA;}
	.st8{fill:#F0997A;}
	.st9{fill:#FAFAFA;stroke:#BA68C8;stroke-miterlimit:10;}
	.st10{fill:none;stroke:#37474F;stroke-miterlimit:10;}
	.st11{fill:#FFBDA7;}
	.st12{opacity:0.6;fill:#BA68C8;}
	.st13{fill:#AF6152;}
	.st14{fill:#C8856A;}
	.st15{opacity:0.2;fill:#FFFFFF;}
	.st16{fill:#455A64;}
	.st17{fill:#263238;}
	.st18{fill:#EBEBEB;}
	.st19{fill:#FFA8A7;}
	.st20{fill:#F28F8F;}
	.st21{fill:#FFC4C3;}
	.st22{opacity:0.4;}
	.st23{fill:#FFFFFF;}
</style>
<g id="Floor">
	<path id="Floor_00000005965202398111346440000006762333848445564333_" class="st0" d="M107.92,281.63
		c-78.47,45.3-78.47,118.75,0,164.06c78.47,45.3,205.69,45.3,284.16,0c78.47-45.3,78.47-118.75,0-164.06
		C313.61,236.33,186.39,236.33,107.92,281.63z"/>
</g>
<g id="Shadow">
	<polygon id="Shadow_00000041276344266838644410000006735960460601459628_" class="st1" points="246.27,470.28 105.85,389.48 
		246.27,308.34 386.68,389.15 	"/>
</g>
<g id="Box">
	<g id="Box_9_">
		<g id="Box_5_">
			<g id="Box_7_">
				<polygon id="XMLID_341_" class="st2" points="246.27,453.77 246.27,346.56 133.16,281.5 133.16,388.71 				"/>
				<polygon id="XMLID_340_" class="st2" points="246.27,346.56 359.37,281.22 359.37,388.43 246.27,453.77 				"/>
				<polygon id="XMLID_325_" class="st3" points="246.27,346.56 359.37,281.22 359.37,388.43 246.27,453.77 				"/>
				<polygon id="XMLID_337_" class="st2" points="246.27,346.56 130.22,279.77 246.27,212.72 362.32,279.5 				"/>
				<polygon id="XMLID_00000165218304267130454570000013065339925238833854_" class="st4" points="246.27,346.56 130.22,279.77 
					246.27,212.72 362.32,279.5 				"/>
				<polygon id="XMLID_336_" class="st2" points="246.27,346.56 246.27,365.7 130.22,298.94 130.22,279.77 				"/>
				<polygon id="XMLID_335_" class="st2" points="362.32,279.5 246.27,346.56 246.27,365.7 362.32,298.66 				"/>
				<polygon id="XMLID_324_" class="st3" points="362.32,279.5 246.27,346.56 246.27,365.7 362.32,298.66 				"/>
				<path class="st5" d="M133.16,300.64l0,4.21l113.1,65.06v-4.21L133.16,300.64z M359.37,300.36L246.27,365.7l0,4.21l113.1-65.34
					L359.37,300.36z"/>
			</g>
		</g>
		<g>
			<polygon class="st2" points="204.98,294.53 220.46,303.46 287.56,264.75 272.08,255.81 			"/>
			<polygon class="st6" points="283.69,266.99 287.56,264.75 272.08,255.81 272.1,260.32 			"/>
			<polygon class="st5" points="208.85,296.76 272.08,260.28 272.08,255.81 204.98,294.53 			"/>
		</g>
		<g>
			<path class="st7" d="M270.38,408.61l-7.31-23.07l5.58-3.22l3.16,11.12c1.26,4.38,1.75,6.2,1.78,6.3l0.09-0.05
				c0.03-0.13,0.53-2.53,1.75-8.23l3.19-14.9l5.32-3.07L276.64,405L270.38,408.61z"/>
			<path class="st7" d="M295,366.56c6.26-3.61,10.79-0.38,10.79,7.96c0,8.34-4.53,16.81-10.79,20.42
				c-6.26,3.61-10.79,0.38-10.79-7.96C284.22,378.63,288.75,370.17,295,366.56z M295,388.74c3.39-1.96,5.85-6.49,5.85-11.37
				c0-4.91-2.45-6.61-5.85-4.65c-3.39,1.96-5.85,6.49-5.85,11.41C289.15,389,291.61,390.7,295,388.74z"/>
			<path class="st7" d="M317.99,359.92v21.21l-4.91,2.84v-21.21l-6.26,3.61v-6.08l17.42-10.06v6.08L317.99,359.92z"/>
			<path class="st7" d="M326.79,348.75l14.91-8.61v6.08l-10,5.77v4.68l7.37-4.25v5.46l-7.37,4.25v4.99l10.15-5.86v6.08l-15.06,8.69
				V348.75z"/>
		</g>
	</g>
</g>
<g id="Hand_3">
	<g id="Hand_00000176752921195349448660000016477762437069818283_">
		<path class="st8" d="M400.02,219.81c1.65,0.54,8.21,1.79,8.48-0.91c0.08-0.79-0.34-1.55-0.74-2.23c-2.25-3.79-4.9-7.68-8.95-9.45
			c-4.2-1.83-9.24-2.26-13.72-3.05c-5.06-0.89-10.13-1.87-15.05-3.41c-0.55-0.17-1.14-0.36-1.7-0.21c-1.14,0.3-1.52,1.74-1.47,2.92
			c0.15,3.4,2.17,6.51,4.78,8.7c1.41,1.18,2.99,2.14,4.69,2.84c2.15,0.88,4.27,1.11,6.5,1.5c2.42,0.43,4.77,1.2,7.23,1.57
			C390.85,218.19,400.02,219.4,400.02,219.81z"/>
		<g>
			<g>
				<path class="st9" d="M364.01,230.15c-17.6-14.4-35.2-28.8-52.8-43.2c23.15-16.48,38.91-35.74,50.48-61.7
					c17.6,14.4,35.2,28.8,52.8,43.2C402.92,194.41,387.16,213.67,364.01,230.15z"/>
				<path class="st10" d="M370.15,177.09c-7.36-6.02-11.04-9.03-18.39-15.05c5.8-7.68,8.36-11.81,12.68-20.48
					c7.36,6.02,11.04,9.03,18.39,15.05C378.51,165.28,375.95,169.41,370.15,177.09z"/>
				<path class="st10" d="M346.13,201.46c-7.36-6.02-11.04-9.03-18.39-15.05c7.64-5.95,11.18-9.28,17.57-16.48
					c7.36,6.02,11.04,9.03,18.39,15.05C357.32,192.19,353.78,195.51,346.13,201.46z"/>
				<g>
					<path class="st1" d="M397.34,177.94c-5.17-4.23-7.76-6.35-12.93-10.58c-0.47-0.39-0.61-1.14-0.3-1.68
						c0.04-0.08,0.06-0.11,0.11-0.19c0.3-0.54,0.93-0.67,1.4-0.28c5.17,4.23,7.76,6.35,12.93,10.58c0.47,0.39,0.62,1.15,0.31,1.69
						c-0.04,0.08-0.06,0.11-0.11,0.19C398.45,178.21,397.81,178.33,397.34,177.94z"/>
					<path class="st1" d="M399.32,187.52c-7.25-5.93-10.87-8.9-18.12-14.83c-0.47-0.39-0.59-1.13-0.26-1.65
						c0.05-0.07,0.07-0.11,0.12-0.19c0.33-0.53,0.98-0.64,1.45-0.26c7.25,5.93,10.87,8.9,18.12,14.83c0.47,0.39,0.6,1.13,0.27,1.66
						c-0.05,0.07-0.07,0.11-0.12,0.19C400.45,187.8,399.79,187.91,399.32,187.52z"/>
					<path class="st1" d="M396.96,191.09c-7.25-5.93-10.87-8.9-18.12-14.83c-0.47-0.39-0.57-1.12-0.23-1.63
						c0.05-0.07,0.07-0.11,0.12-0.18c0.35-0.52,1.01-0.62,1.48-0.24c7.25,5.93,10.87,8.9,18.12,14.83c0.47,0.39,0.58,1.12,0.24,1.64
						c-0.05,0.07-0.07,0.11-0.12,0.18C398.11,191.38,397.44,191.48,396.96,191.09z"/>
				</g>
				<g>
					<path class="st1" d="M375.98,205.8c-5.17-4.23-7.76-6.35-12.93-10.58c-0.47-0.39-0.5-1.06-0.06-1.5
						c0.06-0.06,0.09-0.09,0.15-0.16c0.44-0.44,1.17-0.49,1.64-0.1c5.17,4.23,7.76,6.35,12.93,10.58c0.47,0.39,0.51,1.06,0.07,1.51
						c-0.06,0.06-0.09,0.09-0.15,0.16C377.2,206.15,376.46,206.19,375.98,205.8z"/>
					<path class="st1" d="M376.66,214.33c-7.25-5.93-10.87-8.9-18.12-14.83c-0.47-0.39-0.48-1.04-0.03-1.46
						c0.06-0.06,0.1-0.09,0.16-0.15c0.46-0.42,1.21-0.45,1.68-0.06c7.25,5.93,10.87,8.9,18.12,14.83c0.47,0.39,0.49,1.05,0.03,1.47
						c-0.06,0.06-0.1,0.09-0.16,0.15C377.9,214.69,377.14,214.72,376.66,214.33z"/>
					<path class="st1" d="M373.44,217.15c-7.25-5.93-10.87-8.9-18.12-14.83c-0.47-0.39-0.47-1.03,0-1.43
						c0.07-0.06,0.1-0.09,0.17-0.14c0.47-0.41,1.23-0.43,1.71-0.04c7.25,5.93,10.87,8.9,18.12,14.83c0.47,0.39,0.48,1.04,0.01,1.44
						c-0.07,0.06-0.1,0.09-0.17,0.14C374.68,217.53,373.91,217.54,373.44,217.15z"/>
				</g>
				<g>
					<path class="st2" d="M365.12,167.67c-0.87-6.15-1.38-9.29-2.59-15.64c2.17-0.41,3.25-0.62,5.37-1.05
						c0.7,3.37,1.02,5.04,1.62,8.35c7.08-2.88,10.44-4.43,16.79-7.68c1.01,2.47,1.51,3.7,2.48,6.16
						C379.99,162.1,375.23,164.1,365.12,167.67z"/>
				</g>
			</g>
		</g>
		<g id="Hand">
			<g>
				<path class="st11" d="M468.63,247.59c-4.71-2.12-19.7-2.98-27.95-4.74c-10.03-2.14-14.96-5.59-22.78-15.08
					c-7.83-9.48-9.51-11.49-12.11-14.65c-1.86-2.27-2.06-3.53-10.33-3.68c-8.28-0.16-19.1,0.66-21.85,0.96
					c-2.74,0.29-5.49,0.41-10.75,2.36c-5.25,1.96-8.14,2.94-10.5,4.25c-2.36,1.31-3.2,5.7-4.11,8.39c-0.91,2.69-1.17,4.94,0.76,5.55
					c1.92,0.6,5.71,0.44,8.96-3.84l2.9-0.82c0,0-6.17,4.75-7.12,6.69c-0.95,1.93-1.3,5.74,0,7.75c1.29,2.01,3.32,5.02,3.32,5.02
					s-1.4,3.51,1.32,6.32c2.7,2.81,4.44,4.41,4.44,4.41s-2,1.23-3.6,3.17c-1.56,1.9,0.2,4.63,4.36,4.66
					c3.28,0.02,8.48-2.75,12.4-3.67c3.92-0.91,9.6-2.93,12.48-1.94c0.92,0.32,2.79,1.71,4.51,2.76c1.72,1.05,3.28,1.75,5.25,3.31
					c3.93,3.12,6.14,6.62,12.92,8.05c6.79,1.42,10.98,0.66,16.57,2.89c3.67,1.47,40.65,18.54,41.52,18.99
					c10.62,5.5,18.72-1.19,18.11-14.98C486.73,265.94,479.54,252.49,468.63,247.59z M362.53,241.22l-0.42-0.79l4.21-3.88
					c0,0,3.77-0.34,6.85-0.3c-2.81,0.47-4.25,1.08-5.54,1.92C366.02,239.24,362.53,241.22,362.53,241.22z M370.56,251.51
					c-3.1,1.42-4.28,2.4-4.28,2.4l-0.56-2.5c0,0,3.33-1.86,4.06-2.01c0.74-0.14,7.61-0.79,10.16-1.24
					C375.03,249.47,372.84,250.46,370.56,251.51z"/>
				<path class="st8" d="M443.53,280.91c-2.94-1.76-5.77-3.29-9.71-5.88c-1.22-0.8-3.48-2.11-4.88-2.49
					c-1.14-0.31-2.34-0.32-3.52-0.24c-3.2,0.22-6.47,1.05-9.65,1.24c0.34,0.03,0.65,0.08,0.95,0.14c3.88,0.4,7.09,0.5,10.98,2.06
					c2.14,0.86,15.57,7,26.6,12.08v0C454.3,287.8,446.46,282.66,443.53,280.91z"/>
			</g>
			<g>
				<path class="st8" d="M384.82,219.9c-3.71-0.19-7.4-0.49-11.11-0.63c-1.23-0.06-2.58,0-3.79,0.48c-1.85,0.77-3.51,1.85-5.08,3.08
					c-2.38,1.08-5.76,2.11-7.67,2.37c-2.5,0.34-5.04-1.04-4.84-0.81c0.2,0.22,1.8,1.69,0.78,3.89c-0.62,1.34-1.45,2.38-2.5,2.93
					c2.04,0.05,4.86-0.8,7.36-4.09l2.9-0.82c0,0,5.87-4.57,9.29-5.88c1.12-0.42,2.29-0.46,3.53-0.4c3.7,0.14,7.42,0.29,11.13,0.25
					c1.24-0.06,2.5,0,3.7-0.31C387.29,220.09,386.05,219.97,384.82,219.9z M362.11,240.43l4.21-3.88c2.36-0.2,4.65-0.31,6.85-0.3
					c3.13-0.67,9.6-2.07,11.44-4.06c-2.8,1.23-6.42,2.42-10.31,2.36c-3.88-0.06-6.65-0.79-8.48,0.49c-1.83,1.28-4.98,4.77-5.3,5.25
					c-1.18,1.76-3.13,2.83-3.47,5.46c0.69-1.67,5.48-4.53,5.48-4.53L362.11,240.43z M370.66,248.05c-1.14,0.26-4.2,1.7-5.47,2.43
					c-1.27,0.73-0.27,2.2-1.8,2.95c-1.53,0.74-4.75-1.07-4.75-1.07c0,0,0,0,0,0c2.55,2.63,4.17,4.14,4.17,4.14l3.47-2.58
					c0.11-0.56-0.08-1.39-0.56-2.5c0,0,3.33-1.86,4.06-2.01c0.74-0.14,7.61-0.79,10.16-1.24c1.82-0.29,5.27-2.37,5.84-4.95
					c-2.96,2.74-3.29,3.48-6.5,3.99C376.07,247.71,371.8,247.79,370.66,248.05z"/>
				<g>
					<path class="st8" d="M369.1,223.22c0.04-0.05-0.01-0.23-0.08-0.17c-1.08,0.87-1.73,2.11-2.08,3.45
						c-0.42,1.63-0.2,3.24,0.09,4.88c0,0.02,0.03,0,0.02-0.01c-0.16-1.51-0.08-3.11,0.25-4.59
						C367.59,225.46,368.21,224.22,369.1,223.22z M369.09,225.03c-0.24,0.44-0.44,0.9-0.68,1.34c-0.11,0.21-0.23,0.42-0.36,0.62
						c-0.13,0.21-0.22,0.44-0.31,0.68c-0.02,0.05,0.01,0.2,0.09,0.13c0.18-0.17,0.34-0.34,0.47-0.56c0.13-0.21,0.25-0.43,0.36-0.65
						c0.23-0.45,0.47-0.9,0.62-1.38C369.31,225.11,369.17,224.89,369.09,225.03z M366.52,224.59c-0.46,0.37-0.58,0.98-0.64,1.54
						c-0.04,0.36-0.05,0.73-0.05,1.09c0.01,0.42,0.08,0.85,0.13,1.26c0.01,0.07,0.08,0.04,0.08-0.02c-0.01-0.67,0.07-1.34,0.12-2
						c0.04-0.57,0.12-1.18,0.52-1.62C366.76,224.75,366.64,224.49,366.52,224.59z"/>
					<path class="st8" d="M368.07,242.64c-0.1-0.43-0.12-0.88-0.11-1.31c0-0.08-0.13-0.21-0.16-0.08c-0.11,0.45-0.09,0.9,0,1.35
						c0.1,0.49,0.3,0.98,0.64,1.36c0.08,0.09,0.11-0.08,0.08-0.14C368.34,243.44,368.17,243.05,368.07,242.64z M371.2,242.65
						c-0.03-0.18-0.07-0.37-0.11-0.55c-0.09-0.38-0.21-0.74-0.35-1.11c-0.02-0.05-0.07-0.13-0.14-0.1
						c-0.07,0.02-0.06,0.11-0.05,0.17c0.11,0.34,0.19,0.68,0.26,1.03c0.04,0.18,0.08,0.36,0.1,0.54c0.03,0.19,0.06,0.4,0.14,0.58
						c0.03,0.08,0.14,0.1,0.17,0.01C371.28,243.05,371.23,242.83,371.2,242.65z M369.64,242.51c-0.08-0.46-0.18-0.93-0.3-1.38
						c-0.11-0.43-0.21-0.88-0.4-1.28c-0.05-0.11-0.25-0.17-0.23,0.01c0.05,0.45,0.23,0.89,0.33,1.33c0.11,0.46,0.2,0.93,0.28,1.39
						c0.15,0.93,0.19,1.88,0.38,2.8c0.02,0.08,0.12,0.14,0.14,0.03c0.09-0.49,0.03-1-0.01-1.49
						C369.78,243.45,369.72,242.98,369.64,242.51z"/>
					<path class="st8" d="M372.74,255.42c-0.14-0.69-0.26-1.49-0.75-2.03c-0.11-0.13-0.19,0.04-0.16,0.14
						c0.1,0.33,0.25,0.63,0.33,0.97c0.08,0.32,0.14,0.64,0.2,0.97c0.14,0.77,0.25,1.6,0.57,2.32c0.04,0.09,0.15,0.09,0.16-0.01
						c0.03-0.37-0.04-0.77-0.11-1.13C372.9,256.23,372.83,255.82,372.74,255.42z M371.49,256.38c-0.08-0.1-0.15-0.2-0.23-0.3
						c-0.14-0.19-0.25-0.4-0.33-0.63c-0.01-0.03-0.05-0.08-0.09-0.06c-0.04,0.02-0.05,0.08-0.04,0.11c0.07,0.26,0.18,0.53,0.33,0.76
						c0.15,0.22,0.34,0.44,0.58,0.56c0.07,0.03,0.06-0.11,0.04-0.14C371.67,256.58,371.57,256.49,371.49,256.38z M374,255.26
						c-0.08-0.44-0.22-0.87-0.36-1.29c-0.03-0.08-0.11-0.17-0.2-0.16c-0.1,0.02-0.1,0.13-0.08,0.2c0.12,0.41,0.19,0.83,0.26,1.25
						c0.03,0.2,0.06,0.41,0.08,0.62c0.01,0.12,0.04,0.23,0.06,0.34c0.03,0.12,0.04,0.23,0.1,0.34c0.03,0.05,0.12,0.11,0.18,0.05
						c0.08-0.09,0.06-0.19,0.07-0.31c0.01-0.12,0.01-0.23,0-0.35C374.08,255.72,374.04,255.49,374,255.26z"/>
					<path class="st8" d="M369.74,212.34c-0.95,1.81-1.26,3.91-0.98,5.93c0.01,0.07,0.09,0.1,0.09,0.01
						c0.07-1.97,0.49-3.87,1.16-5.72C370.07,212.41,369.84,212.15,369.74,212.34z M367.9,214.08c-0.16,0.27-0.25,0.62-0.32,0.93
						c-0.07,0.32-0.13,0.68-0.07,1c0.01,0.06,0.11,0.15,0.14,0.05c0.04-0.15,0.04-0.3,0.06-0.45c0.02-0.16,0.04-0.31,0.07-0.47
						c0.03-0.15,0.07-0.3,0.12-0.44c0.05-0.15,0.11-0.3,0.16-0.45c0.02-0.06,0-0.13-0.04-0.17
						C367.99,214.05,367.93,214.03,367.9,214.08z M370.93,214.4c-0.07-0.03-0.15,0-0.16,0.08c-0.02,0.37-0.1,0.72-0.22,1.07
						c-0.03,0.08-0.06,0.16-0.09,0.24c-0.03,0.08-0.08,0.17-0.11,0.25c-0.03,0.09-0.06,0.17-0.1,0.25
						c-0.05,0.09-0.09,0.17-0.13,0.27c-0.02,0.05,0.03,0.23,0.11,0.17c0.07-0.06,0.12-0.13,0.18-0.2c0.06-0.08,0.13-0.17,0.19-0.25
						c0.11-0.15,0.19-0.35,0.25-0.53c0.12-0.36,0.19-0.74,0.2-1.13C371.05,214.54,371.01,214.44,370.93,214.4z"/>
				</g>
				<path class="st8" d="M407.15,226.41c-0.77-1.18-1.7-2.27-2.56-3.39c-0.76-0.99-1.69-2-2.82-2.57c-0.84-0.43-1.77-0.65-2.72-0.7
					c-1.1-0.06-2.19,0.19-3.26,0.42c-0.14,0.03-0.3,0.07-0.37,0.19c0.33,0.1,0.69,0.11,1.03,0.13c0.54,0.02,1.07,0.04,1.61,0.06
					c1.14,0.04,2.39,0.21,3.36,0.86c0.97,0.64,1.68,1.62,2.49,2.44c0.98,0.99,1.93,2.04,2.96,2.97
					C407.17,227.1,407.3,226.64,407.15,226.41z M399.54,231.1c-0.49-0.39-1.08-0.66-1.69-0.81c-1.29-0.32-2.64-0.15-3.95,0.08
					c-0.2,0.04-0.47,0.18-0.38,0.37c1.75,0.34,3.73,0.26,5.29,1.24c0.54,0.34,0.96,0.87,1.57,1.09c0.53,0.19,0.27-0.5,0.18-0.69
					c-0.16-0.35-0.38-0.66-0.65-0.93C399.8,231.32,399.67,231.2,399.54,231.1z M397.05,244.09c-0.57-0.37-1.34-0.65-1.58-0.69
					c-0.9-0.15-1.82,0.03-2.68,0.33c-0.13,0.04-0.28,0.19-0.18,0.28c0.03,0.02,0.06,0.03,0.1,0.04c1.16,0.22,2.47,0.18,3.55,0.68
					c0.28,0.13,0.55,0.3,0.83,0.44c0.17,0.08,0.4,0.15,0.52,0C397.9,244.81,397.55,244.41,397.05,244.09z"/>
			</g>
			<g id="Nail_00000083082535631252283610000004824474451484429485_">
				<path class="st11" d="M348.61,224.24c1.65,0.85,2.03,2.85,1.86,3.87c-0.15,0.91-0.39,1.63-0.79,2.29
					c-0.93,1.55-2.48,0.17-2.33-1.81C347.78,226.8,348.02,226.29,348.61,224.24z"/>
				<path class="st12" d="M348.61,224.24c1.65,0.85,2.03,2.85,1.86,3.87c-0.15,0.91-0.39,1.63-0.79,2.29
					c-0.93,1.55-2.48,0.17-2.33-1.81C347.78,226.8,348.02,226.29,348.61,224.24z"/>
				<path class="st2" d="M350.49,227.32c-0.71-0.53-1.45-1.39-2.05-2.52c0.05-0.17,0.11-0.36,0.16-0.56
					C349.9,224.9,350.41,226.26,350.49,227.32z"/>
			</g>
			<g id="Nail">
				<path class="st11" d="M362.07,257.04c-0.56,1.54-0.19,2.5,0.17,3.47c-0.66,0.78-1.59,1.61-2.34,1.81
					c-1.17,0.33-2.12-1.5-0.52-3.02C361.17,257.61,362.07,257.04,362.07,257.04z"/>
				<path class="st12" d="M362.07,257.04c-0.56,1.54-0.19,2.5,0.17,3.47c-0.66,0.78-1.59,1.61-2.34,1.81
					c-1.17,0.33-2.12-1.5-0.52-3.02C361.17,257.61,362.07,257.04,362.07,257.04z"/>
				<path class="st2" d="M362.07,257.04c-1.06,0.67-2.15,2.75,0.17,3.47C361.88,259.54,361.51,258.59,362.07,257.04z"/>
			</g>
		</g>
		<g>
			<path class="st2" d="M412.7,273.12c0.79,4.47,2.69,7.8,5.48,9.41c1.18,0.67,2.47,1.02,3.82,1.02c1.68,0,3.46-0.51,5.23-1.54
				c1.42-0.82,2.79-1.94,4.07-3.29c5.74-5.98,9.92-16.55,9.92-26.16c0-3.22-0.47-6.07-1.33-8.43c-1-2.72-2.55-4.77-4.56-5.93
				c-1.99-1.15-4.54-1.35-7.07-0.28c0.74,0.5,1.35,0.85,2.12,1.31c0.58-0.14,0.89-0.16,1.1-0.16c1.04,0,2,0.26,2.89,0.77
				c1.04,0.6,1.93,1.52,2.66,2.73c1.46,2.39,2.28,5.88,2.28,9.98c0,9.33-4.07,19.55-9.6,25.09c-1.09,1.1-2.25,2.02-3.44,2.71
				c-2.64,1.53-5.11,1.71-7.15,0.53c-2.15-1.23-3.69-3.9-4.44-7.48C414.06,273.33,413.4,273.25,412.7,273.12z"/>
		</g>
	</g>
</g>
<g id="Hand_2">
	<g id="Hand_00000169518321616620872850000011498937680656117907_">
		<path class="st13" d="M100.84,216.5c-1.71,0.55-8.49,1.85-8.77-0.94c-0.08-0.82,0.35-1.6,0.77-2.31c2.33-3.93,5.07-7.95,9.26-9.77
			c4.34-1.89,9.56-2.34,14.19-3.16c5.24-0.92,10.48-1.93,15.56-3.52c0.57-0.18,1.18-0.37,1.76-0.22c1.18,0.31,1.57,1.8,1.52,3.02
			c-0.15,3.52-2.24,6.74-4.94,9c-1.45,1.22-3.1,2.21-4.85,2.93c-2.22,0.92-4.42,1.15-6.73,1.55c-2.5,0.44-4.93,1.24-7.47,1.62
			C110.33,214.83,100.84,216.08,100.84,216.5z"/>
		<g>
			<g>
				<path class="st9" d="M186.29,182.06c-16.94,14.01-33.88,28.02-50.82,42.04c-20.84-16.85-36.47-35.75-49.11-59.37
					c16.94-14.01,33.88-28.02,50.82-42.04C149.82,146.32,165.45,165.21,186.29,182.06z"/>
				<path class="st10" d="M129.14,172.98c-7.08,5.86-10.62,8.79-17.7,14.64c-5.69-7.3-8.29-11.16-12.93-19.21
					c7.08-5.86,10.62-8.79,17.7-14.64C120.85,161.82,123.45,165.68,129.14,172.98z"/>
				<path class="st10" d="M151.82,196.83c-7.08,5.86-10.62,8.79-17.7,14.64c-7.03-6.07-10.33-9.34-16.44-16.3
					c7.08-5.86,10.62-8.79,17.7-14.64C141.48,187.49,144.79,190.76,151.82,196.83z"/>
				<g>
					<path class="st1" d="M137.27,145.55c-4.98,4.12-7.46,6.17-12.44,10.29c-0.46,0.38-1.09,0.27-1.4-0.23
						c-0.04-0.07-0.07-0.11-0.11-0.18c-0.32-0.51-0.2-1.23,0.26-1.6c4.98-4.12,7.47-6.17,12.44-10.29c0.46-0.38,1.08-0.27,1.4,0.24
						c0.04,0.07,0.07,0.11,0.11,0.18C137.83,144.46,137.72,145.18,137.27,145.55z"/>
					<path class="st1" d="M145.56,146.4c-6.98,5.77-10.47,8.66-17.44,14.43c-0.46,0.38-1.1,0.28-1.44-0.21
						c-0.05-0.07-0.07-0.1-0.12-0.17c-0.33-0.5-0.23-1.2,0.22-1.58c6.98-5.77,10.47-8.66,17.44-14.43c0.46-0.38,1.09-0.28,1.43,0.21
						c0.05,0.07,0.07,0.1,0.12,0.17C146.12,145.32,146.02,146.03,145.56,146.4z"/>
					<path class="st1" d="M147.93,149.76c-6.98,5.77-10.47,8.66-17.44,14.43c-0.46,0.38-1.11,0.29-1.46-0.19
						c-0.05-0.07-0.07-0.1-0.12-0.17c-0.35-0.49-0.25-1.19,0.2-1.57c6.98-5.77,10.47-8.66,17.44-14.43c0.46-0.38,1.1-0.29,1.45,0.2
						c0.05,0.07,0.07,0.1,0.12,0.17C148.47,148.69,148.39,149.39,147.93,149.76z"/>
				</g>
				<g>
					<path class="st1" d="M158.17,172.09c-4.98,4.12-7.46,6.17-12.44,10.29c-0.46,0.38-1.16,0.34-1.58-0.1
						c-0.06-0.06-0.09-0.09-0.14-0.15c-0.41-0.43-0.37-1.09,0.08-1.47c4.98-4.12,7.46-6.17,12.44-10.29
						c0.46-0.38,1.16-0.33,1.57,0.1c0.06,0.06,0.09,0.09,0.14,0.15C158.66,171.06,158.63,171.71,158.17,172.09z"/>
					<path class="st1" d="M167.4,172.17c-6.98,5.77-10.47,8.66-17.44,14.43c-0.46,0.38-1.18,0.35-1.6-0.07
						c-0.06-0.06-0.09-0.09-0.15-0.15c-0.43-0.42-0.4-1.06,0.06-1.44c6.98-5.77,10.47-8.66,17.44-14.43
						c0.46-0.38,1.17-0.34,1.6,0.08c0.06,0.06,0.09,0.09,0.15,0.15C167.88,171.15,167.86,171.8,167.4,172.17z"/>
					<path class="st1" d="M170.4,174.99c-6.98,5.77-10.47,8.66-17.44,14.43c-0.46,0.38-1.18,0.36-1.62-0.05
						c-0.06-0.06-0.09-0.09-0.15-0.14c-0.44-0.41-0.42-1.05,0.04-1.42c6.98-5.77,10.47-8.66,17.44-14.43
						c0.46-0.38,1.18-0.35,1.62,0.06c0.06,0.06,0.09,0.09,0.15,0.14C170.87,173.98,170.86,174.61,170.4,174.99z"/>
				</g>
				<g>
					<path class="st2" d="M139.24,201.48c-6.08-1.46-9.06-2.24-14.9-3.87c0.6-2.12,0.9-3.18,1.53-5.32
						c3.02,0.88,4.54,1.31,7.63,2.15c0.51-7.48,0.88-11.3,1.87-19.09c2.28,0.31,3.43,0.46,5.74,0.76
						C139.91,186.55,139.55,191.63,139.24,201.48z"/>
				</g>
			</g>
		</g>
		<g id="Hand_00000034775269801431660200000002809577342005357488_">
			<g>
				<path class="st14" d="M12.18,277.86c-0.63,14.27,7.75,21.18,18.74,15.49c0.89-0.46,38.52-16.97,42.13-18.88
					c5.3-2.8,9.27-1.64,16.29-3.11c7.02-1.48,9.3-5.1,13.37-8.32c2.04-1.61,3.65-2.34,5.43-3.42c1.78-1.09,3.72-2.53,4.67-2.86
					c2.97-1.02,8.85,1.07,12.91,2.01c4.06,0.95,9.44,3.82,12.83,3.79c4.3-0.03,6.13-2.86,4.51-4.82c-1.65-2.01-3.72-3.28-3.72-3.28
					s1.8-1.66,4.59-4.56c2.8-2.91,1.36-6.54,1.36-6.54s2.1-3.11,3.43-5.2c1.34-2.08,0.97-6.02,0-8.02
					c-0.99-2.01-7.37-6.93-7.37-6.93l3,0.85c3.37,4.42,7.29,4.59,9.27,3.97c1.99-0.62,1.73-2.96,0.79-5.74s-1.82-7.33-4.26-8.68
					c-2.44-1.35-5.42-2.37-10.86-4.39c-5.44-2.02-8.29-2.15-11.12-2.45c-2.84-0.31-14.03-1.15-22.6-0.99
					c-8.56,0.15-8.76,1.46-10.69,3.8c-2.69,3.28-4.85,5.02-12.53,15.16c-4.17,5.51-13.18,8.1-23.71,10.24
					c-4.68,0.95-14.13,2.61-22.65,5.49c-0.91,0.31-1.85,0.71-2.81,1.2C22.2,247.39,12.8,263.58,12.18,277.86z M134.35,235.5
					c-1.33-0.87-2.82-1.5-5.73-1.98c3.19-0.04,7.09,0.31,7.09,0.31l4.35,4.01l-0.44,0.82C139.62,238.66,136.02,236.6,134.35,235.5z
					 M121.62,245.84c2.63,0.47,9.74,1.14,10.51,1.28c0.76,0.15,4.2,2.07,4.2,2.07l-0.57,2.58c0,0-1.23-1.01-4.43-2.49
					C128.96,248.21,126.69,247.18,121.62,245.84z"/>
				<path class="st14" d="M12.18,277.86c-0.63,14.27,7.75,21.18,18.74,15.49c0.89-0.46,37.58-16.89,41.35-18.49
					c5.84-2.47,10.06-2.04,17.08-3.5c7.02-1.48,9.3-5.1,13.37-8.32c2.04-1.61,3.65-2.34,5.43-3.42c1.78-1.09,3.72-2.53,4.67-2.86
					c2.97-1.02,8.85,1.07,12.91,2.01c4.06,0.95,9.44,3.82,12.83,3.79c4.3-0.03,6.13-2.86,4.51-4.82c-1.65-2.01-3.72-3.28-3.72-3.28
					s1.8-1.66,4.59-4.56c2.8-2.91,1.36-6.54,1.36-6.54s2.1-3.11,3.43-5.2c1.34-2.08,0.97-6.02,0-8.02
					c-0.99-2.01-7.37-6.93-7.37-6.93l3,0.85c3.37,4.42,7.29,4.59,9.27,3.97c1.99-0.62,1.73-2.96,0.79-5.74s-1.82-7.33-4.26-8.68
					c-2.44-1.35-5.42-2.37-10.86-4.39c-5.44-2.02-8.29-2.15-11.12-2.45c-2.84-0.31-14.03-1.15-22.6-0.99
					c-8.56,0.15-8.76,1.46-10.69,3.8c-2.69,3.28-4.85,5.02-12.53,15.16c-4.17,5.51-13.18,8.1-23.71,10.24
					c-4.68,0.95-14.13,2.61-22.65,5.49c-0.91,0.31-1.85,0.71-2.81,1.2C22.2,247.39,12.8,263.58,12.18,277.86z M134.35,235.5
					c-1.33-0.87-2.82-1.5-5.73-1.98c3.19-0.04,7.09,0.31,7.09,0.31l4.35,4.01l-0.44,0.82C139.62,238.66,136.02,236.6,134.35,235.5z
					 M121.62,245.84c2.63,0.47,9.74,1.14,10.51,1.28c0.76,0.15,4.2,2.07,4.2,2.07l-0.57,2.58c0,0-1.23-1.01-4.43-2.49
					C128.96,248.21,126.69,247.18,121.62,245.84z"/>
				<path class="st13" d="M74.57,270.79c-1.22-0.08-2.46-0.08-3.64,0.24c-1.45,0.4-2.74,1.25-3.93,2.17
					c-2.77,2.14-4.59,3.34-7.98,5.77c-2.59,1.85-4.22,3.23-7.4,5.06c9.4-4.21,18.83-8.41,20.65-9.17c4.72-2,8.38-2.1,13.31-2.84
					C82.28,271.83,77.88,271.02,74.57,270.79z"/>
			</g>
			<g>
				<path class="st13" d="M112.74,216.65c1.24,0.32,2.55,0.26,3.83,0.32c3.84,0.04,7.69-0.12,11.51-0.26
					c1.28-0.07,2.49-0.02,3.65,0.41c3.54,1.36,9.61,6.09,9.61,6.09l3,0.85c2.59,3.4,5.5,4.28,7.61,4.23
					c-1.09-0.56-1.94-1.64-2.59-3.03c-1.06-2.27,0.6-3.79,0.8-4.02c0.2-0.23-2.42,1.2-5.01,0.84c-1.97-0.27-5.46-1.33-7.93-2.45
					c-1.62-1.27-3.34-2.39-5.25-3.18c-1.24-0.5-2.65-0.55-3.92-0.49c-3.85,0.14-7.66,0.45-11.5,0.65
					C115.29,216.67,114.01,216.79,112.74,216.65z M139.62,238.66c0,0,4.96,2.96,5.67,4.69c-0.35-2.72-2.37-3.83-3.59-5.65
					c-0.33-0.5-3.6-4.11-5.49-5.43c-1.89-1.32-4.76-0.56-8.77-0.5c-4.02,0.06-7.77-1.17-10.66-2.44c1.91,2.05,8.6,3.51,11.84,4.2
					c2.28-0.01,4.65,0.1,7.09,0.31l4.35,4.01L139.62,238.66z M122.3,244.84c-3.32-0.52-3.66-1.29-6.72-4.12
					c0.58,2.67,4.16,4.82,6.04,5.12c2.63,0.47,9.74,1.14,10.51,1.28c0.76,0.15,4.2,2.08,4.2,2.08c-0.5,1.15-0.69,2.01-0.58,2.59
					l3.59,2.67c0,0,1.68-1.56,4.32-4.28c0,0,0,0,0,0c0,0-3.33,1.88-4.92,1.11c-1.58-0.77-0.55-2.29-1.86-3.05
					c-1.31-0.76-4.49-2.25-5.66-2.51C130.04,245.45,125.62,245.36,122.3,244.84z"/>
				<g>
					<path class="st13" d="M134.69,223.7c0.34,1.54,0.42,3.19,0.26,4.75c0,0.02,0.02,0.04,0.03,0.01c0.3-1.69,0.53-3.36,0.09-5.05
						c-0.36-1.38-1.03-2.66-2.15-3.57c-0.07-0.06-0.13,0.13-0.08,0.18C133.75,221.07,134.39,222.35,134.69,223.7z M132.64,222.08
						c0.16,0.5,0.4,0.97,0.64,1.43c0.12,0.23,0.24,0.45,0.37,0.67c0.13,0.22,0.3,0.4,0.48,0.57c0.08,0.07,0.11-0.08,0.09-0.13
						c-0.09-0.24-0.18-0.48-0.32-0.7c-0.13-0.21-0.25-0.42-0.37-0.64c-0.25-0.45-0.46-0.93-0.71-1.38
						C132.76,221.76,132.61,221.99,132.64,222.08z M135.34,221.72c0.41,0.46,0.49,1.09,0.54,1.68c0.05,0.69,0.13,1.38,0.12,2.07
						c0,0.06,0.07,0.09,0.08,0.02c0.05-0.43,0.13-0.87,0.13-1.31c0-0.38-0.01-0.75-0.05-1.13c-0.06-0.58-0.19-1.2-0.66-1.59
						C135.37,221.35,135.25,221.62,135.34,221.72z"/>
					<path class="st13" d="M133.43,241.34c-0.03,0.06,0,0.24,0.08,0.14c0.35-0.39,0.56-0.89,0.66-1.4c0.1-0.47,0.12-0.93,0.01-1.4
						c-0.03-0.13-0.17,0.01-0.17,0.08c0.01,0.45-0.01,0.92-0.11,1.36C133.79,240.55,133.62,240.95,133.43,241.34z M130.63,240.73
						c0.03,0.1,0.14,0.07,0.18-0.01c0.08-0.18,0.11-0.4,0.14-0.6c0.03-0.19,0.07-0.38,0.11-0.56c0.08-0.36,0.16-0.71,0.27-1.06
						c0.02-0.05,0.02-0.15-0.05-0.17c-0.07-0.02-0.12,0.05-0.14,0.11c-0.14,0.37-0.27,0.75-0.36,1.14
						c-0.04,0.19-0.08,0.38-0.12,0.57C130.63,240.32,130.57,240.55,130.63,240.73z M132.08,241.45c-0.05,0.51-0.1,1.04-0.01,1.54
						c0.02,0.12,0.13,0.05,0.15-0.03c0.2-0.95,0.23-1.94,0.39-2.9c0.08-0.48,0.18-0.97,0.29-1.44c0.11-0.46,0.29-0.91,0.34-1.38
						c0.02-0.19-0.18-0.12-0.24-0.01c-0.2,0.41-0.3,0.88-0.41,1.32c-0.12,0.47-0.22,0.95-0.31,1.43
						C132.19,240.47,132.13,240.96,132.08,241.45z"/>
					<path class="st13" d="M128.81,254.6c-0.07,0.38-0.15,0.79-0.12,1.17c0.01,0.11,0.13,0.1,0.17,0.01c0.32-0.75,0.44-1.6,0.59-2.4
						c0.06-0.33,0.12-0.67,0.2-1c0.09-0.34,0.24-0.66,0.34-1c0.03-0.11-0.04-0.28-0.16-0.15c-0.5,0.56-0.63,1.39-0.77,2.1
						C128.97,253.76,128.89,254.18,128.81,254.6z M130.09,254.65c-0.02,0.03-0.03,0.18,0.04,0.14c0.25-0.13,0.45-0.35,0.6-0.58
						c0.16-0.24,0.26-0.51,0.34-0.78c0.01-0.04,0-0.1-0.04-0.12c-0.04-0.02-0.08,0.03-0.09,0.06c-0.08,0.23-0.2,0.45-0.34,0.65
						c-0.08,0.11-0.16,0.21-0.23,0.31C130.27,254.44,130.18,254.54,130.09,254.65z M127.65,253.89c-0.01,0.12-0.01,0.24,0,0.36
						c0.01,0.12-0.01,0.23,0.07,0.32c0.05,0.06,0.15,0,0.18-0.05c0.07-0.11,0.08-0.22,0.11-0.35c0.03-0.12,0.05-0.23,0.07-0.35
						c0.02-0.21,0.05-0.43,0.08-0.64c0.07-0.43,0.15-0.87,0.27-1.29c0.02-0.08,0.02-0.19-0.08-0.21c-0.1-0.02-0.18,0.08-0.21,0.16
						c-0.15,0.43-0.29,0.88-0.38,1.34C127.72,253.41,127.68,253.65,127.65,253.89z"/>
					<path class="st13" d="M131.88,209.01c0.69,1.91,1.12,3.88,1.2,5.92c0,0.09,0.09,0.05,0.1-0.01c0.29-2.08-0.02-4.26-1.01-6.13
						C132.06,208.58,131.83,208.85,131.88,209.01z M133.94,210.58c-0.04,0.04-0.06,0.12-0.04,0.17c0.05,0.16,0.11,0.31,0.16,0.46
						c0.05,0.15,0.09,0.3,0.12,0.46c0.03,0.16,0.05,0.32,0.08,0.49c0.02,0.16,0.02,0.32,0.06,0.47c0.03,0.1,0.13,0.01,0.14-0.05
						c0.06-0.34,0-0.71-0.07-1.04c-0.07-0.32-0.16-0.67-0.33-0.96C134.04,210.53,133.98,210.54,133.94,210.58z M130.81,211.14
						c0.01,0.4,0.09,0.79,0.21,1.17c0.06,0.18,0.15,0.39,0.26,0.54c0.06,0.09,0.13,0.17,0.19,0.26c0.06,0.08,0.11,0.15,0.19,0.21
						c0.08,0.07,0.13-0.12,0.11-0.17c-0.04-0.1-0.09-0.18-0.14-0.28c-0.04-0.09-0.07-0.17-0.1-0.26c-0.03-0.09-0.08-0.17-0.11-0.26
						c-0.03-0.08-0.06-0.17-0.09-0.25c-0.13-0.36-0.21-0.73-0.23-1.11c-0.01-0.09-0.09-0.12-0.17-0.09
						C130.85,210.95,130.81,211.05,130.81,211.14z"/>
				</g>
				<path class="st13" d="M93.76,223.76c1.07-0.97,2.05-2.05,3.06-3.08c0.84-0.85,1.57-1.86,2.57-2.53c1.01-0.67,2.3-0.84,3.48-0.89
					c0.55-0.02,1.11-0.04,1.66-0.07c0.36-0.01,0.72-0.03,1.07-0.13c-0.08-0.13-0.24-0.17-0.39-0.2c-1.11-0.23-2.24-0.5-3.37-0.44
					c-0.97,0.05-1.94,0.28-2.81,0.72c-1.17,0.59-2.13,1.64-2.92,2.66c-0.89,1.16-1.85,2.29-2.65,3.51
					C93.31,223.57,93.44,224.05,93.76,223.76z M100.95,228.53c-0.28,0.28-0.51,0.61-0.67,0.97c-0.09,0.2-0.36,0.92,0.19,0.72
					c0.63-0.23,1.06-0.77,1.62-1.12c1.61-1.01,3.66-0.93,5.47-1.28c0.09-0.19-0.18-0.34-0.39-0.38c-1.35-0.24-2.75-0.41-4.09-0.09
					c-0.63,0.15-1.23,0.44-1.75,0.84C101.2,228.29,101.07,228.41,100.95,228.53z M103.34,242.74c0.12,0.15,0.37,0.09,0.54,0
					c0.29-0.15,0.57-0.32,0.86-0.46c1.12-0.52,2.48-0.48,3.67-0.71c0.04-0.01,0.07-0.01,0.1-0.04c0.1-0.09-0.05-0.24-0.18-0.29
					c-0.89-0.31-1.85-0.49-2.77-0.34c-0.25,0.04-1.04,0.33-1.63,0.72C103.4,241.96,103.04,242.36,103.34,242.74z"/>
			</g>
			<g id="Nail_00000013885620102128277750000002440867600420484512_">
				<path class="st14" d="M154.03,221.08c-1.7,0.88-2.1,2.95-1.93,4c0.15,0.94,0.48,1.45,0.89,2.14c0.97,1.6,2.49,0.4,2.33-1.64
					C154.89,223.74,154.64,223.2,154.03,221.08z"/>
				<path class="st15" d="M154.03,221.08c-1.7,0.88-2.1,2.95-1.93,4c0.15,0.94,0.48,1.45,0.89,2.14c0.97,1.6,2.49,0.4,2.33-1.64
					C154.89,223.74,154.64,223.2,154.03,221.08z"/>
				<path class="st13" d="M152.08,224.27c0.73-0.55,1.5-1.44,2.12-2.6c-0.05-0.18-0.11-0.37-0.17-0.58
					C152.7,221.77,152.17,223.18,152.08,224.27z"/>
			</g>
			<g id="Nail_00000157285804671108111890000005019061892991307189_">
				<path class="st14" d="M140.1,255.02c0.58,1.6,0.2,2.58-0.18,3.59c0.68,0.81,1.65,1.66,2.42,1.88c1.21,0.34,2.19-1.55,0.54-3.12
					C141.03,255.6,140.1,255.02,140.1,255.02z"/>
				<path class="st15" d="M140.1,255.02c0.58,1.6,0.2,2.58-0.18,3.59c0.68,0.81,1.65,1.66,2.42,1.88c1.21,0.34,2.19-1.55,0.54-3.12
					C141.03,255.6,140.1,255.02,140.1,255.02z"/>
				<path class="st13" d="M140.1,255.02c1.09,0.7,2.22,2.84-0.18,3.59C140.3,257.6,140.69,256.62,140.1,255.02z"/>
			</g>
		</g>
	</g>
</g>
<g id="Hand_1">
	<g id="Hand_00000079445663924828286110000006326482553531104695_">
		<g>
			<path id="XMLID_1373_" class="st16" d="M202.32,54.35l5.85-10.22l-21.95-12.75c-0.01,0-0.01-0.01-0.02-0.01l-0.02-0.01l0,0
				c-3.68-2.1-8.75-1.79-14.35,1.44c-11.24,6.49-20.35,22.27-20.35,35.25c0,6.5,2.29,11.07,5.98,13.19l0,0l22.13,12.85l6.01-10.5
				C194.21,76.94,200.99,65.11,202.32,54.35z"/>
			<path id="XMLID_1371_" class="st17" d="M193.92,45.63c-11.24,6.49-20.35,22.27-20.35,35.25c0,12.98,9.11,18.24,20.35,11.75
				c11.24-6.49,20.35-22.27,20.35-35.25C214.26,44.4,205.15,39.14,193.92,45.63z"/>
			<path id="XMLID_1377_" class="st0" d="M214.59,60.92l5.54-9.69l-10.96-6.33c-0.01,0-0.01-0.01-0.02-0.01l-0.02-0.01l0,0
				c-3.49-1.99-8.29-1.7-13.6,1.37c-10.65,6.15-19.28,21.1-19.28,33.4c0,6.16,2.17,10.49,5.67,12.5l0,0l11.13,6.42l5.7-9.95
				C206.9,82.32,213.33,71.12,214.59,60.92z"/>
			<path id="XMLID_2141_" class="st18" d="M176.86,73.69c-0.4,2.02-0.62,4.02-0.62,5.96c0,6.16,2.17,10.49,5.67,12.5l0,0l11.13,6.42
				l5.7-9.95c0.55-0.43,1.1-0.88,1.63-1.35L176.86,73.69z"/>
			<path id="XMLID_1367_" class="st1" d="M206.62,52.66c-10.65,6.15-19.28,21.1-19.28,33.4c0,12.3,8.63,17.28,19.28,11.13
				c10.65-6.15,19.28-21.1,19.28-33.4C225.91,51.49,217.27,46.51,206.62,52.66z"/>
		</g>
		<g id="Hand_00000127008001840590609530000014193394110455941535_">
			<g id="Hand_00000115516478526016082220000017490373581112611999_">
				<g>
					<path class="st19" d="M278.16,109.8c1.67,4.79,0.06,6.92-1.57,8.63l-10.08,7.97c0,0-17.07-7.55-22.38-8.11
						c-2.27-0.24-7.23-0.79-7.09,2.73c0.04,0.97,0.48,1.89,0.94,2.74l-16.41,6.87c-4.19-4.57-5.24-5.75-8.85-9.86
						c-4.67-5.33-4.86-7.91-6.55-13.87c-1.01-3.55-2.05-6.06-3.25-7.98c-1.73-2.83-3.78-4.39-6.43-6.08
						c-2.57-1.64-5.64-3.48-9.13-5.52c-0.02-0.4-0.03-0.83-0.03-1.25c0-12.3,8.64-27.26,19.29-33.41c1.9-1.1,3.74-1.84,5.48-2.25
						c4.84,3.59,22.86,16.7,29.56,20.69c4.59,2.74,15.79,8.25,20.31,9.86c5.48,1.95,7.55,2.04,9.96,7.7
						c2.43,5.69,4.73,9.57,6.69,13.11C280.57,105.29,279.26,108.49,278.16,109.8z"/>
					<path class="st20" d="M266.14,88.38c-0.43-0.59-1-1.01-1.6-1.42c-0.33-0.22-0.65-0.45-0.98-0.66
						c-0.39-0.25-0.77-0.53-1.18-0.73c-0.08-0.04-0.07,0.1-0.03,0.13c1.1,1.11,2.58,1.75,3.49,3.06c0.38,0.55,0.65,1.16,0.93,1.76
						c0.36,0.77,0.72,1.52,1.1,2.27c0.03,0.06,0.07,0,0.06-0.04C267.53,91.23,267.08,89.66,266.14,88.38z"/>
					<path class="st20" d="M278.16,109.8c0.24-0.29,0.49-0.67,0.72-1.12c-1.15-2.42-3.88-6.73-6.08-12.13
						C274.33,100.85,275.63,103,278.16,109.8z"/>
					<path class="st20" d="M269.8,88.26c-0.05-0.34-0.13-0.67-0.26-1c-0.23-0.58-0.52-1.13-0.95-1.58
						c-0.47-0.52-1.08-0.85-1.69-1.17c-0.68-0.34-1.38-0.65-2.12-0.82c-0.01,0-0.02,0.03-0.01,0.03c0.62,0.36,1.26,0.68,1.89,1.03
						c0.57,0.32,1.15,0.67,1.58,1.18c0.77,0.91,1.05,2.12,1.57,3.17c0.03,0.06,0.09,0.05,0.09-0.02
						C269.9,88.8,269.84,88.54,269.8,88.26z"/>
					<path class="st20" d="M277.88,116.85c-0.19-2.52-1.5-4.15-2.88-7.28c-1.72-3.93-5.54-11.45-6.83-15.85
						c0.44,3.95,3.08,17.64,5,27.41l3.42-2.7C277.05,117.95,277.5,117.44,277.88,116.85z"/>
					<path class="st20" d="M237.62,123.23c-0.16-0.51-0.46-0.99-0.71-1.47c-0.25-0.47-0.46-0.97-0.67-1.46
						c-0.39-0.93-0.74-1.86-1.01-2.83c-0.27-0.98-0.45-1.99-0.48-3c-0.02-0.5-0.01-0.99,0.03-1.49c0.02-0.26,0.06-0.52,0.09-0.78
						c0.03-0.2,0.08-0.41,0.1-0.61c0.01-0.15,0-0.3,0.03-0.45c0.01-0.09-0.15-0.3-0.22-0.16c-0.11,0.23-0.23,0.45-0.29,0.7
						c-0.06,0.22-0.11,0.44-0.14,0.66c-0.07,0.44-0.12,0.88-0.13,1.32c-0.02,0.82,0.04,1.65,0.18,2.47c0.27,1.62,0.85,3.17,1.6,4.62
						c0.22,0.42,0.46,0.83,0.69,1.24c0.26,0.45,0.53,0.93,0.88,1.31C237.61,123.34,237.64,123.26,237.62,123.23z"/>
					<path class="st20" d="M268.88,120.08l-10.33-19.53c0,0-10.55,3.03-15.56,5.8c-5,2.77-7.36,12.37-5.43,16.93l0.2,0.04
						c-0.38-0.74-0.69-1.51-0.73-2.33c-0.14-3.51,4.82-2.97,7.09-2.73c5.32,0.56,22.38,8.11,22.38,8.11l2.51-1.98L268.88,120.08z"/>
				</g>
				<g>
					<g>
						<path class="st19" d="M260.76,84.91c5.99,2.64,6.7,5.93,7.75,10.19c1.06,4.26,5.11,13.33,6.7,17.43
							c1.59,4.1,1.94,5.15,0.35,10.7c-1.59,5.55-6.09,16.42-6.09,16.42s-13.48-42.66-14.36-47.03
							C254.24,88.26,254.77,83.33,260.76,84.91z"/>
						<path class="st20" d="M274.23,120.38c-0.02,0.02-0.02,0.04-0.01,0.07c0.19,0.06,0.48-0.07,0.67-0.1
							c0.24-0.05,0.48-0.09,0.73-0.13c0.23-0.04,0.48-0.05,0.72-0.07c0.03-0.16,0.06-0.31,0.08-0.46c-0.61,0.07-1.22,0.21-1.79,0.42
							C274.48,120.16,274.32,120.24,274.23,120.38z M274.2,117.48c0.61-0.21,1.21-0.41,1.85-0.49c0.17-0.02,0.33-0.03,0.5-0.04
							c-0.02-0.16-0.04-0.33-0.07-0.49c-0.18,0.01-0.36,0.03-0.54,0.05c-0.67,0.09-1.36,0.28-1.94,0.63
							C273.81,117.27,274.02,117.54,274.2,117.48z M276.21,118.12c-0.38,0.01-0.77,0.06-1.14,0.12c-0.75,0.13-1.55,0.35-2.21,0.75
							c-0.17,0.1,0.05,0.32,0.2,0.27c0.66-0.23,1.29-0.46,1.98-0.59c0.33-0.06,0.66-0.1,0.99-0.12c0.17-0.01,0.36,0,0.54,0
							c0.01-0.15,0.02-0.29,0.02-0.44C276.46,118.11,276.33,118.11,276.21,118.12z"/>
						<path class="st20" d="M270.31,111.56c-1.74-3.25-4.87-10.31-6.38-14.79l-5.39-1.67l-1.78,3.44
							c3.8,12.88,12.72,41.12,12.72,41.12s0.67-1.61,1.58-3.91c0,0,1.2-9.98,1.75-14.44C273.35,116.83,272.05,114.82,270.31,111.56z
							"/>
					</g>
					<g>
						<path class="st19" d="M250.9,136.06c-0.33-0.23-0.67-0.45-0.99-0.69c-4.46-3.27-9.21-6.65-11.92-11.62l-16.41,6.86
							c4.18,4.58,6.27,6.31,8.93,8.72c2.66,2.41,10.74,5.72,16.02,8.37c5.22,2.61,7.46,3.95,8.78,3.21
							C256.8,150.07,258.69,141.36,250.9,136.06z"/>
						<g>
							<path class="st20" d="M231.95,140.41c0.06-0.19,0.11-0.38,0.18-0.56c0.14-0.39,0.31-0.76,0.49-1.13
								c0.18-0.36,0.46-0.72,0.56-1.12c0.02-0.09-0.11-0.25-0.2-0.18c-0.36,0.28-0.6,0.72-0.81,1.11c-0.23,0.42-0.43,0.87-0.59,1.32
								c-0.03,0.08-0.05,0.17-0.08,0.25C231.64,140.21,231.79,140.31,231.95,140.41z"/>
							<path class="st20" d="M233.66,141.28c0.18-0.65,0.4-1.28,0.7-1.88c0.25-0.51,0.56-0.99,0.92-1.43
								c0.25-0.31,0.53-0.59,0.84-0.85c0.25-0.2,0.51-0.38,0.74-0.61c0.06-0.06-0.03-0.22-0.11-0.2c-0.64,0.16-1.2,0.61-1.66,1.06
								c-0.49,0.48-0.89,1.04-1.22,1.63c-0.36,0.65-0.62,1.35-0.82,2.07c0,0,0,0.01,0,0.01c0.19,0.11,0.39,0.22,0.59,0.33
								C233.64,141.38,233.65,141.33,233.66,141.28z"/>
							<path class="st20" d="M235.46,141.14c0.18-0.49,0.39-0.98,0.65-1.45c0.11-0.2,0.23-0.39,0.35-0.58
								c0.12-0.18,0.31-0.36,0.35-0.59c0.02-0.09-0.11-0.24-0.21-0.19c-0.45,0.24-0.77,0.8-1.03,1.22c-0.28,0.45-0.5,0.92-0.7,1.41
								c-0.12,0.31-0.23,0.63-0.33,0.95c0.18,0.1,0.37,0.2,0.56,0.3C235.21,141.86,235.33,141.5,235.46,141.14z"/>
						</g>
						<path class="st21" d="M244.28,146.61c0.49-2.9,2.26-4.29,2.26-4.29s3.77,1.58,5.38,3.03c1.61,1.46,2.85,4.64,1.85,5.67
							C251.45,151.03,248.34,148.75,244.28,146.61z"/>
						<path class="st4" d="M244.28,146.61c0.47,0.25,0.93,0.5,1.38,0.75c0.38-1.37,0.87-3.44,0.87-5.04
							C246.54,142.32,244.77,143.71,244.28,146.61z"/>
					</g>
					<g>
						<path class="st19" d="M251.2,109.63c2.64,4.31,6.7,12.1,6.74,13.11c0.27,5.68-0.06,11.61-0.06,17.75s-0.05,10.62,2.64,14.69
							c2.44,3.68,6.9,4.69,7.55,0.67c0.56-3.44,0.9-10.44,1.4-16.19c0.49-5.75,1.82-14.09,2.15-18.75
							c0.33-4.66-2.71-9.23-4.78-15.25c-1.79-5.24-3.31-11.85-6.11-14.65c-2.8-2.81-13.43-8.07-17.29-10.11L251.2,109.63z"/>
						<g>
							<g>
								<path class="st20" d="M271.34,121.28c-0.33,0.02-0.66,0.02-1,0.01c-0.71-0.04-1.37-0.22-2.05-0.37
									c-0.17-0.04-0.13,0.21-0.03,0.27c0.64,0.34,1.44,0.45,2.15,0.5c0.37,0.02,0.75,0.02,1.12-0.02c0.01,0,0.02,0,0.03,0
									c0.01-0.14,0.02-0.28,0.03-0.41C271.51,121.26,271.42,121.28,271.34,121.28z"/>
								<path class="st20" d="M267.38,117.11c-0.11,0.06,0.03,0.26,0.14,0.23c0.81-0.19,1.64-0.28,2.47-0.14
									c0.36,0.06,0.72,0.17,1.06,0.31c0.11,0.04,0.21,0.1,0.32,0.15c-0.04-0.19-0.08-0.37-0.13-0.56
									c-0.37-0.15-0.75-0.26-1.14-0.32C269.2,116.64,268.2,116.7,267.38,117.11z"/>
								<path class="st20" d="M268.95,118.61c-0.65-0.02-1.31,0.02-1.95,0.16c-0.54,0.12-1.33,0.26-1.69,0.73
									c-0.02,0.02-0.01,0.08,0.02,0.08c0.3,0.02,0.6-0.09,0.89-0.16c0.31-0.07,0.62-0.15,0.94-0.19c0.59-0.09,1.19-0.12,1.78-0.08
									c0.58,0.04,1.16,0.13,1.72,0.29c0.34,0.1,0.66,0.23,0.98,0.37c-0.01-0.22-0.02-0.45-0.04-0.67
									c-0.24-0.09-0.48-0.16-0.72-0.23C270.25,118.73,269.61,118.63,268.95,118.61z"/>
							</g>
							<g>
								<path class="st20" d="M269.15,142.94c-0.23-0.07-0.46-0.14-0.69-0.2c-0.47-0.13-0.95-0.24-1.43-0.33
									c-0.1-0.02-0.22,0.04-0.23,0.15c-0.01,0.12,0.11,0.2,0.21,0.22c0.44,0.08,0.88,0.18,1.32,0.3c0.21,0.06,0.42,0.12,0.64,0.18
									c0.08,0.02,0.15,0.05,0.23,0.07c0.01-0.13,0.02-0.25,0.03-0.38C269.2,142.96,269.17,142.95,269.15,142.94z"/>
								<path class="st20" d="M267.7,141.37c0.49,0.14,0.97,0.32,1.44,0.52c0.05,0.02,0.1,0.05,0.15,0.07
									c0.01-0.17,0.03-0.34,0.04-0.51c-0.02-0.01-0.03-0.02-0.05-0.02c-0.5-0.2-1.01-0.37-1.53-0.5c-0.52-0.13-1.03-0.23-1.56-0.3
									c-0.54-0.07-1.15-0.15-1.68-0.03c-0.1,0.02-0.05,0.19,0.03,0.2c0.55,0.11,1.11,0.14,1.66,0.23
									C266.71,141.11,267.21,141.23,267.7,141.37z"/>
								<path class="st20" d="M266.9,140.01c0.68,0.15,1.36,0.34,2.02,0.57c0.16,0.06,0.32,0.12,0.47,0.18
									c0.01-0.14,0.02-0.28,0.03-0.42c-0.11-0.04-0.22-0.09-0.33-0.12c-0.73-0.24-1.46-0.4-2.22-0.5
									C266.68,139.69,266.76,139.98,266.9,140.01z"/>
							</g>
						</g>
						<path class="st21" d="M268.88,147.67c-2.53-2.45-5.2-1.57-5.2-1.57s-0.54,3.33-0.35,6.25c0.18,2.92,2.11,4.35,3.59,4.6
							C268.39,157.2,268.59,154.32,268.88,147.67z"/>
						<path class="st4" d="M268.83,148.75c0.02-0.35,0.03-0.7,0.05-1.08c-2.53-2.45-5.2-1.57-5.2-1.57
							C264.19,146.99,267,148.58,268.83,148.75z"/>
						<path class="st20" d="M262.17,91.79c-1.17-1.6-2.93-2.54-4.66-3.42c-0.97-0.49-1.94-0.99-2.84-1.6
							c-0.05-0.04-0.07,0.08-0.04,0.1c1.37,1.21,3.01,2.05,4.52,3.07c0.72,0.48,1.41,1.03,1.99,1.69c0.69,0.78,1.22,1.71,1.64,2.66
							c0.46,1.04,0.84,2.11,1.25,3.17c0.03,0.08,0.1,0.03,0.09-0.04C263.89,95.46,263.36,93.4,262.17,91.79z"/>
					</g>
				</g>
			</g>
			<g>
				<g>
					<path class="st9" d="M293.38,204.92c-20.23,9.1-40.47,18.21-60.7,27.31c-12.13-26.19-20.54-52.67-26.03-81
						c20.23-9.1,40.47-18.21,60.7-27.31C272.84,152.25,281.25,178.73,293.38,204.92z"/>
					<path class="st10" d="M244.87,174.52c-8.46,3.81-12.69,5.71-21.14,9.51c-2.95-9.77-4.23-14.74-6.38-24.81
						c8.46-3.81,12.69-5.71,21.15-9.51C240.65,159.78,241.92,164.75,244.87,174.52z"/>
					<path class="st10" d="M257.34,208.33c-8.46,3.81-12.69,5.71-21.15,9.51c-4.05-9.22-5.89-13.94-9.17-23.56
						c8.46-3.81,12.69-5.71,21.14-9.51C251.45,194.39,253.29,199.11,257.34,208.33z"/>
					<g>
						<path class="st1" d="M260.93,148.14c-5.91,2.66-8.87,3.99-14.79,6.65c-0.57,0.25-1.15-0.08-1.31-0.75
							c-0.01-0.06-0.02-0.08-0.03-0.14c-0.16-0.67,0.18-1.42,0.74-1.67c5.91-2.66,8.87-3.99,14.79-6.65
							c0.57-0.25,1.15,0.08,1.31,0.75c0.01,0.06,0.02,0.08,0.03,0.14C261.83,147.14,261.5,147.89,260.93,148.14z"/>
						<path class="st1" d="M268.52,151.87c-8.3,3.74-12.46,5.6-20.76,9.34c-0.57,0.25-1.16-0.08-1.34-0.74
							c-0.01-0.06-0.02-0.08-0.04-0.14c-0.17-0.66,0.15-1.41,0.72-1.66c8.3-3.74,12.46-5.6,20.76-9.34
							c0.57-0.25,1.16,0.08,1.33,0.74c0.01,0.06,0.02,0.08,0.04,0.14C269.4,150.87,269.09,151.61,268.52,151.87z"/>
						<path class="st1" d="M269.71,156.25c-8.3,3.74-12.46,5.6-20.76,9.34c-0.57,0.25-1.17-0.07-1.35-0.73
							c-0.02-0.06-0.02-0.08-0.04-0.14c-0.18-0.66,0.13-1.4,0.7-1.66c8.3-3.74,12.46-5.6,20.76-9.34c0.57-0.25,1.17,0.08,1.35,0.73
							c0.02,0.06,0.02,0.08,0.04,0.14C270.58,155.26,270.27,156,269.71,156.25z"/>
					</g>
					<g>
						<path class="st1" d="M271.81,183.76c-5.91,2.66-8.87,3.99-14.79,6.65c-0.57,0.25-1.22-0.05-1.45-0.69
							c-0.02-0.05-0.03-0.08-0.05-0.13c-0.23-0.64,0.04-1.36,0.6-1.61c5.91-2.66,8.87-3.99,14.79-6.65
							c0.57-0.25,1.21,0.06,1.45,0.69c0.02,0.05,0.03,0.08,0.05,0.13C272.65,182.79,272.38,183.51,271.81,183.76z"/>
						<path class="st1" d="M280.14,187.16c-8.3,3.74-12.46,5.6-20.76,9.34c-0.57,0.25-1.23-0.05-1.48-0.68
							c-0.02-0.05-0.03-0.08-0.05-0.13c-0.25-0.63,0.01-1.35,0.58-1.6c8.3-3.74,12.46-5.6,20.76-9.34c0.57-0.25,1.22,0.05,1.47,0.68
							c0.02,0.05,0.03,0.08,0.05,0.13C280.96,186.19,280.71,186.9,280.14,187.16z"/>
						<path class="st1" d="M281.84,191.3c-8.3,3.74-12.46,5.6-20.76,9.34c-0.57,0.25-1.23-0.04-1.49-0.67
							c-0.02-0.05-0.03-0.08-0.05-0.13c-0.26-0.62,0-1.34,0.56-1.59c8.3-3.74,12.46-5.6,20.76-9.34c0.57-0.25,1.23,0.05,1.49,0.67
							c0.02,0.05,0.03,0.08,0.05,0.13C282.65,190.34,282.4,191.05,281.84,191.3z"/>
					</g>
					<g>
						<path class="st2" d="M235.91,175.33c-4.89-3.02-7.29-4.56-12.01-7.65c1.17-2.36,1.75-3.54,2.94-5.91
							c2.44,1.63,3.67,2.45,6.16,4.06c2.71-8.67,4.15-13.04,7.23-21.85c1.97,0.8,2.97,1.2,4.96,1.99
							C241.85,155.67,238.75,165.49,235.91,175.33z"/>
					</g>
				</g>
			</g>
			<g id="Fingers">
				<g>
					<path class="st19" d="M260.76,84.91c5.99,2.64,6.7,5.93,7.75,10.19c1.06,4.26,5.11,13.33,6.7,17.43
						c1.59,4.1,1.94,5.15,0.35,10.7c-1.59,5.55-6.09,16.42-6.09,16.42s-13.48-42.66-14.36-47.03
						C254.24,88.26,254.77,83.33,260.76,84.91z"/>
					<path class="st20" d="M274.23,120.38c-0.02,0.02-0.02,0.04-0.01,0.07c0.19,0.06,0.48-0.07,0.67-0.1
						c0.24-0.05,0.48-0.09,0.73-0.13c0.23-0.04,0.48-0.05,0.72-0.07c0.03-0.16,0.06-0.31,0.08-0.46c-0.61,0.07-1.22,0.21-1.79,0.42
						C274.48,120.16,274.32,120.24,274.23,120.38z M274.2,117.48c0.61-0.21,1.21-0.41,1.85-0.49c0.17-0.02,0.33-0.03,0.5-0.04
						c-0.02-0.16-0.04-0.33-0.07-0.49c-0.18,0.01-0.36,0.03-0.54,0.05c-0.67,0.09-1.36,0.28-1.94,0.63
						C273.81,117.27,274.02,117.54,274.2,117.48z M276.21,118.12c-0.38,0.01-0.77,0.06-1.14,0.12c-0.75,0.13-1.55,0.35-2.21,0.75
						c-0.17,0.1,0.05,0.32,0.2,0.27c0.66-0.23,1.29-0.46,1.98-0.59c0.33-0.06,0.66-0.1,0.99-0.12c0.17-0.01,0.36,0,0.54,0
						c0.01-0.15,0.02-0.29,0.02-0.44C276.46,118.11,276.33,118.11,276.21,118.12z"/>
					<path class="st20" d="M270.31,111.56c-1.74-3.25-4.87-10.31-6.38-14.79l-5.39-1.67l-1.78,3.44
						c3.8,12.88,12.72,41.12,12.72,41.12s0.67-1.61,1.58-3.91c0,0,1.2-9.98,1.75-14.44C273.35,116.83,272.05,114.82,270.31,111.56z"
						/>
				</g>
				<g>
					<path class="st19" d="M251.2,109.63c2.64,4.31,6.7,12.1,6.74,13.11c0.27,5.68-0.06,11.61-0.06,17.75s-0.05,10.62,2.64,14.69
						c2.44,3.68,6.9,4.69,7.55,0.67c0.56-3.44,0.9-10.44,1.4-16.19c0.49-5.75,1.82-14.09,2.15-18.75c0.33-4.66-2.71-9.23-4.78-15.25
						c-1.79-5.24-3.31-11.85-6.11-14.65c-2.8-2.81-13.43-8.07-17.29-10.11L251.2,109.63z"/>
					<g>
						<g>
							<path class="st20" d="M271.34,121.28c-0.33,0.02-0.66,0.02-1,0.01c-0.71-0.04-1.37-0.22-2.05-0.37
								c-0.17-0.04-0.13,0.21-0.03,0.27c0.64,0.34,1.44,0.45,2.15,0.5c0.37,0.02,0.75,0.02,1.12-0.02c0.01,0,0.02,0,0.03,0
								c0.01-0.14,0.02-0.28,0.03-0.41C271.51,121.26,271.42,121.28,271.34,121.28z"/>
							<path class="st20" d="M267.38,117.11c-0.11,0.06,0.03,0.26,0.14,0.23c0.81-0.19,1.64-0.28,2.47-0.14
								c0.36,0.06,0.72,0.17,1.06,0.31c0.11,0.04,0.21,0.1,0.32,0.15c-0.04-0.19-0.08-0.37-0.13-0.56
								c-0.37-0.15-0.75-0.26-1.14-0.32C269.2,116.64,268.2,116.7,267.38,117.11z"/>
							<path class="st20" d="M268.95,118.61c-0.65-0.02-1.31,0.02-1.95,0.16c-0.54,0.12-1.33,0.26-1.69,0.73
								c-0.02,0.02-0.01,0.08,0.02,0.08c0.3,0.02,0.6-0.09,0.89-0.16c0.31-0.07,0.62-0.15,0.94-0.19c0.59-0.09,1.19-0.12,1.78-0.08
								c0.58,0.04,1.16,0.13,1.72,0.29c0.34,0.1,0.66,0.23,0.98,0.37c-0.01-0.22-0.02-0.45-0.04-0.67
								c-0.24-0.09-0.48-0.16-0.72-0.23C270.25,118.73,269.61,118.63,268.95,118.61z"/>
						</g>
						<g>
							<path class="st20" d="M269.15,142.94c-0.23-0.07-0.46-0.14-0.69-0.2c-0.47-0.13-0.95-0.24-1.43-0.33
								c-0.1-0.02-0.22,0.04-0.23,0.15c-0.01,0.12,0.11,0.2,0.21,0.22c0.44,0.08,0.88,0.18,1.32,0.3c0.21,0.06,0.42,0.12,0.64,0.18
								c0.08,0.02,0.15,0.05,0.23,0.07c0.01-0.13,0.02-0.25,0.03-0.38C269.2,142.96,269.17,142.95,269.15,142.94z"/>
							<path class="st20" d="M267.7,141.37c0.49,0.14,0.97,0.32,1.44,0.52c0.05,0.02,0.1,0.05,0.15,0.07
								c0.01-0.17,0.03-0.34,0.04-0.51c-0.02-0.01-0.03-0.02-0.05-0.02c-0.5-0.2-1.01-0.37-1.53-0.5c-0.52-0.13-1.03-0.23-1.56-0.3
								c-0.54-0.07-1.15-0.15-1.68-0.03c-0.1,0.02-0.05,0.19,0.03,0.2c0.55,0.11,1.11,0.14,1.66,0.23
								C266.71,141.11,267.21,141.23,267.7,141.37z"/>
							<path class="st20" d="M266.9,140.01c0.68,0.15,1.36,0.34,2.02,0.57c0.16,0.06,0.32,0.12,0.47,0.18
								c0.01-0.14,0.02-0.28,0.03-0.42c-0.11-0.04-0.22-0.09-0.33-0.12c-0.73-0.24-1.46-0.4-2.22-0.5
								C266.68,139.69,266.76,139.98,266.9,140.01z"/>
						</g>
					</g>
					<path class="st21" d="M268.88,147.67c-2.53-2.45-5.2-1.57-5.2-1.57s-0.54,3.33-0.35,6.25c0.18,2.92,2.11,4.35,3.59,4.6
						C268.39,157.2,268.59,154.32,268.88,147.67z"/>
					<path class="st4" d="M268.83,148.75c0.02-0.35,0.03-0.7,0.05-1.08c-2.53-2.45-5.2-1.57-5.2-1.57
						C264.19,146.99,267,148.58,268.83,148.75z"/>
					<path class="st20" d="M262.17,91.79c-1.17-1.6-2.93-2.54-4.66-3.42c-0.97-0.49-1.94-0.99-2.84-1.6
						c-0.05-0.04-0.07,0.08-0.04,0.1c1.37,1.21,3.01,2.05,4.52,3.07c0.72,0.48,1.41,1.03,1.99,1.69c0.69,0.78,1.22,1.71,1.64,2.66
						c0.46,1.04,0.84,2.11,1.25,3.17c0.03,0.08,0.1,0.03,0.09-0.04C263.89,95.46,263.36,93.4,262.17,91.79z"/>
				</g>
			</g>
		</g>
	</g>
</g>
<g id="Confetti">
	<g id="Confetti_1_">
		<path id="XMLID_8668_" class="st16" d="M424.9,98.57c0,0-2.52,5.39,0.34,10.1l4.81,0.42c0,0-2.31-2.53-1.37-9L424.9,98.57z"/>
		<path id="XMLID_8660_" class="st16" d="M110.29,45.02c0,0,2.05,5.59-1.21,10.03l-4.83,0.01c0,0,2.52-2.32,2.14-8.85L110.29,45.02z
			"/>
		<path id="XMLID_8657_" class="st16" d="M30.8,97.27c0,0,4.12,4.29,9.55,3.31l2.13-4.34c0,0-3.19,1.25-8.89-1.96L30.8,97.27z"/>
		<path id="XMLID_8656_" class="st16" d="M308.64,101.87c0,0,2.69,5.3,8.17,5.95l3.3-3.53c0,0-3.42,0.26-7.93-4.47L308.64,101.87z"
			/>
		<path id="XMLID_8655_" class="st16" d="M260.35,43.07c0,0,2.69,5.3,8.17,5.95l3.3-3.53c0,0-3.42,0.26-7.93-4.47L260.35,43.07z"/>
		<g>
			<g id="XMLID_8649_">
				<path id="XMLID_8650_" class="st2" d="M452.22,178.64c-2.95,2.6-7.77,4.52-11.71,3.56c-3.03-0.74-6.11-4.01-3.46-6.86
					c1.03-1.12,5.24-3.09,6.57-1.59c0.92,1.05-0.04,2.38-1.01,3.02c-2.84,1.91-7.22,0.03-8.5-2.89c-1.93-4.37,2.44-8.17,5.98-9.87
					c0.24-0.11-0.03-0.52-0.24-0.44c-6.33,2.26-10.46,11.04-2.44,14.14c2.16,0.84,4.93,0.85,6.63-0.97c0.96-1.03,1.39-2.53,0.2-3.54
					c-1.91-1.61-5.88-0.18-7.48,1.21c-1.86,1.63-1.91,4.09-0.32,5.95c4.05,4.77,12.25,2.32,16.02-1.45
					C452.55,178.81,452.35,178.52,452.22,178.64L452.22,178.64z"/>
			</g>
			<g id="XMLID_8641_">
				<path id="XMLID_8642_" class="st2" d="M362.84,76.82c-1.67,3.68-0.97,12.93,4.91,12.38c3.14-0.29,6.51-4.85,3.82-7.52
					c-0.15-0.15-0.39-0.09-0.53,0.04c-6.98,6.61,3.51,19.04,10.93,12.03c0.23-0.22-0.22-0.35-0.39-0.23
					c-3.34,2.43-7.24,1.89-9.89-1.22c-1.09-1.28-1.88-2.87-2.12-4.54c-0.18-1.25-0.06-4.22,1.32-4.91c0.64-0.32,0.01-0.49,0.52-0.08
					c0.31,0.26,0.36,0.8,0.39,1.19c0.06,0.91-0.37,1.87-0.9,2.6c-1.17,1.61-3.23,2.48-5.05,1.41c-3.64-2.14-3.53-7.6-2.49-11.11
					C363.42,76.63,362.92,76.64,362.84,76.82L362.84,76.82z"/>
			</g>
			<path id="XMLID_8638_" class="st2" d="M362.93,49.07c0,0-5.9,0.73-9.5-3.44l1.09-4.71c0,0,1.69,2.98,8.14,4.08L362.93,49.07z"/>
			<path id="XMLID_8637_" class="st2" d="M61.12,49.07c0,0-5.9,0.73-9.5-3.44l1.09-4.71c0,0,1.69,2.98,8.14,4.08L61.12,49.07z"/>
			<g id="XMLID_8632_">
				<path id="XMLID_8633_" class="st2" d="M462.93,49.26c1.79,5.48-5.9,15.11-11.6,10.63c-3.17-2.49-3.55-9.37,1.14-10.33
					c0.27-0.05,0.52,0.16,0.63,0.38c1.98,4.18,1.05,8.96-4.26,9.35c-4.71,0.34-8.91-3.07-10.16-7.48c-0.07-0.26,0.42-0.27,0.51-0.07
					c1.65,3.66,4.83,6.76,9.1,6.6c1.51-0.05,3.08-0.55,4.06-1.76c0.53-0.66,0.82-1.46,0.9-2.3c0.06-0.7-0.08-3.15-0.73-3.55
					c-1.3-0.81-2.49,2.41-2.59,3.31c-0.19,1.69,0.31,3.77,1.6,4.96c2.13,1.97,5.08,0.72,7.01-0.89c2.6-2.16,4.4-5.36,3.76-8.81
					C462.24,48.99,462.85,49.02,462.93,49.26L462.93,49.26z"/>
			</g>
			<g id="XMLID_8630_">
				<path id="XMLID_8631_" class="st2" d="M81.53,110.6c-3.33,0.54-7.24,2.69-8.75,5.84c-1.16,2.42-0.67,6.24,2.66,6.04
					c1.3-0.08,4.91-1.8,4.63-3.5c-0.19-1.18-1.6-1.27-2.56-0.98c-2.82,0.85-3.95,4.78-2.72,7.22c1.85,3.66,6.75,2.83,9.82,1.41
					c0.2-0.09,0.33,0.3,0.16,0.4c-4.95,2.97-13.04,0.92-10.72-6.09c0.62-1.89,2.13-3.74,4.26-3.88c1.21-0.08,2.44,0.46,2.46,1.8
					c0.03,2.15-3.09,4-4.88,4.31c-2.1,0.35-3.75-0.96-4.13-3.03c-0.96-5.3,5.13-9.4,9.7-9.84C81.6,110.28,81.68,110.58,81.53,110.6
					L81.53,110.6z"/>
			</g>
			<g id="XMLID_8626_">
				<path id="XMLID_8627_" class="st2" d="M41.61,165.08c4.64-0.73,11.81,4.61,9.59,9.66c-1.89,4.29-8.66,6.75-10.1,0.97
					c-0.03-0.12,0-0.29,0.1-0.37c3.77-3.05,7.54,1.25,8.21,4.96c1.04,5.75-4.13,8.14-9.12,7.25c-0.16-0.03-0.27-0.41-0.06-0.4
					c3.77,0.07,8.66-0.61,8.67-5.37c0-2.54-1.6-5.99-4.28-6.68c-0.67-0.17-1.56-0.23-2.17,0.15c-1.34,0.84-0.36,2.26,0.9,2.85
					c2.01,0.94,4.5-0.44,5.92-1.86c4.86-4.85-2.77-10.51-7.59-10.83C41.54,165.42,41.43,165.11,41.61,165.08L41.61,165.08z"/>
			</g>
			<path id="XMLID_8619_" class="st2" d="M129.84,93.84c0,0,5.86-1.02,8.08-6.06l-2.41-4.19c0,0-0.75,3.34-6.59,6.27L129.84,93.84z"
				/>
			<path id="XMLID_8617_" class="st2" d="M458.05,131.95c0,0,5.2,2.88,10.1,0.35l0.75-4.77c0,0-2.68,2.13-9.07,0.75L458.05,131.95z"
				/>
		</g>
		<g class="st22">
			<g id="XMLID_8611_">
				<path id="XMLID_8612_" class="st23" d="M452.22,178.64c-2.95,2.6-7.77,4.52-11.71,3.56c-3.03-0.74-6.11-4.01-3.46-6.86
					c1.03-1.12,5.24-3.09,6.57-1.59c0.92,1.05-0.04,2.38-1.01,3.02c-2.84,1.91-7.22,0.03-8.5-2.89c-1.93-4.37,2.44-8.17,5.98-9.87
					c0.24-0.11-0.03-0.52-0.24-0.44c-6.33,2.26-10.46,11.04-2.44,14.14c2.16,0.84,4.93,0.85,6.63-0.97c0.96-1.03,1.39-2.53,0.2-3.54
					c-1.91-1.61-5.88-0.18-7.48,1.21c-1.86,1.63-1.91,4.09-0.32,5.95c4.05,4.77,12.25,2.32,16.02-1.45
					C452.55,178.81,452.35,178.52,452.22,178.64L452.22,178.64z"/>
			</g>
			<g id="XMLID_8603_">
				<path id="XMLID_8604_" class="st23" d="M362.84,76.82c-1.67,3.68-0.97,12.93,4.91,12.38c3.14-0.29,6.51-4.85,3.82-7.52
					c-0.15-0.15-0.39-0.09-0.53,0.04c-6.98,6.61,3.51,19.04,10.93,12.03c0.23-0.22-0.22-0.35-0.39-0.23
					c-3.34,2.43-7.24,1.89-9.89-1.22c-1.09-1.28-1.88-2.87-2.12-4.54c-0.18-1.25-0.06-4.22,1.32-4.91c0.64-0.32,0.01-0.49,0.52-0.08
					c0.31,0.26,0.36,0.8,0.39,1.19c0.06,0.91-0.37,1.87-0.9,2.6c-1.17,1.61-3.23,2.48-5.05,1.41c-3.64-2.14-3.53-7.6-2.49-11.11
					C363.42,76.63,362.92,76.64,362.84,76.82L362.84,76.82z"/>
			</g>
			<path id="XMLID_8600_" class="st23" d="M362.93,49.07c0,0-5.9,0.73-9.5-3.44l1.09-4.71c0,0,1.69,2.98,8.14,4.08L362.93,49.07z"/>
			<path id="XMLID_8599_" class="st23" d="M61.12,49.07c0,0-5.9,0.73-9.5-3.44l1.09-4.71c0,0,1.69,2.98,8.14,4.08L61.12,49.07z"/>
			<g id="XMLID_8595_">
				<path id="XMLID_8596_" class="st23" d="M462.93,49.26c1.79,5.48-5.9,15.11-11.6,10.63c-3.17-2.49-3.55-9.37,1.14-10.33
					c0.27-0.05,0.52,0.16,0.63,0.38c1.98,4.18,1.05,8.96-4.26,9.35c-4.71,0.34-8.91-3.07-10.16-7.48c-0.07-0.26,0.42-0.27,0.51-0.07
					c1.65,3.66,4.83,6.76,9.1,6.6c1.51-0.05,3.08-0.55,4.06-1.76c0.53-0.66,0.82-1.46,0.9-2.3c0.06-0.7-0.08-3.15-0.73-3.55
					c-1.3-0.81-2.49,2.41-2.59,3.31c-0.19,1.69,0.31,3.77,1.6,4.96c2.13,1.97,5.08,0.72,7.01-0.89c2.6-2.16,4.4-5.36,3.76-8.81
					C462.24,48.99,462.85,49.02,462.93,49.26L462.93,49.26z"/>
			</g>
			<g id="XMLID_8582_">
				<path id="XMLID_8583_" class="st23" d="M81.53,110.6c-3.33,0.54-7.24,2.69-8.75,5.84c-1.16,2.42-0.67,6.24,2.66,6.04
					c1.3-0.08,4.91-1.8,4.63-3.5c-0.19-1.18-1.6-1.27-2.56-0.98c-2.82,0.85-3.95,4.78-2.72,7.22c1.85,3.66,6.75,2.83,9.82,1.41
					c0.2-0.09,0.33,0.3,0.16,0.4c-4.95,2.97-13.04,0.92-10.72-6.09c0.62-1.89,2.13-3.74,4.26-3.88c1.21-0.08,2.44,0.46,2.46,1.8
					c0.03,2.15-3.09,4-4.88,4.31c-2.1,0.35-3.75-0.96-4.13-3.03c-0.96-5.3,5.13-9.4,9.7-9.84C81.6,110.28,81.68,110.58,81.53,110.6
					L81.53,110.6z"/>
			</g>
			<g id="XMLID_8578_">
				<path id="XMLID_8579_" class="st23" d="M41.61,165.08c4.64-0.73,11.81,4.61,9.59,9.66c-1.89,4.29-8.66,6.75-10.1,0.97
					c-0.03-0.12,0-0.29,0.1-0.37c3.77-3.05,7.54,1.25,8.21,4.96c1.04,5.75-4.13,8.14-9.12,7.25c-0.16-0.03-0.27-0.41-0.06-0.4
					c3.77,0.07,8.66-0.61,8.67-5.37c0-2.54-1.6-5.99-4.28-6.68c-0.67-0.17-1.56-0.23-2.17,0.15c-1.34,0.84-0.36,2.26,0.9,2.85
					c2.01,0.94,4.5-0.44,5.92-1.86c4.86-4.85-2.77-10.51-7.59-10.83C41.54,165.42,41.43,165.11,41.61,165.08L41.61,165.08z"/>
			</g>
			<path id="XMLID_8571_" class="st23" d="M129.84,93.84c0,0,5.86-1.02,8.08-6.06l-2.41-4.19c0,0-0.75,3.34-6.59,6.27L129.84,93.84z
				"/>
			<path id="XMLID_8569_" class="st23" d="M458.05,131.95c0,0,5.2,2.88,10.1,0.35l0.75-4.77c0,0-2.68,2.13-9.07,0.75L458.05,131.95z
				"/>
		</g>
	</g>
</g>
</svg>
