<?xml version="1.0" encoding="utf-8"?>
<!-- Generator: Adobe Illustrator 25.4.1, SVG Export Plug-In . SVG Version: 6.00 Build 0)  -->
<svg version="1.1" xmlns="http://www.w3.org/2000/svg" xmlns:xlink="http://www.w3.org/1999/xlink" x="0px" y="0px"
	 viewBox="0 0 500 500" style="enable-background:new 0 0 500 500;" xml:space="preserve">
<style type="text/css">
	.st0{fill:#EBEBEB;}
	.st1{fill:#E0E0E0;}
	.st2{fill:#F5F5F5;}
	.st3{display:none;}
	.st4{display:inline;}
	.st5{fill:#263238;}
	.st6{fill:#E8505B;}
	.st7{opacity:0.6;}
	.st8{fill:#FFFFFF;}
	.st9{fill:#EB996E;}
	.st10{fill:#D1734A;}
	.st11{opacity:0.78;}
	.st12{fill:#455A64;}
	.st13{fill:none;}
	.st14{fill:#FAFAFA;}
	.st15{fill:none;stroke:#4E585D;stroke-miterlimit:10;}
	.st16{opacity:0.3;}
	.st17{opacity:0.5;}
</style>
<g id="Background_Complete">
	<g>
		<g>
			<g>
				<path class="st0" d="M394.12,252.32c0,0-7.92-0.57-7.19,17.19c0.73,17.76,2.54,27.23,2.54,27.23s-0.23,3.94-3.28,3.17
					c-3.05-0.77-8.79-4.61-11.62-1.74c-2.94,2.97-1.89,7.53,2,12.9c3.9,5.37,12.01,17.45,12.74,18.54c0.72,1.07,1,3.09-1.16,2.9
					c-2.16-0.19-16.76-5.14-18.69,1.93c-1.93,7.07,11.39,20.24,12.82,21.71c1.43,1.47,1.51,2.39,0.93,3.28
					c-0.58,0.89-5.33-1.24-9.54-2.47c-4.21-1.24-9.31-1.93-10.08,2.24c-0.77,4.17,5.09,16.38,27.06,29.2l10.57,5.28l10-6.38
					c20.58-14.96,25.19-27.69,24.01-31.76c-1.19-4.07-6.19-2.87-10.25-1.22c-4.06,1.65-8.58,4.24-9.24,3.42
					c-0.67-0.83-0.68-1.76,0.59-3.36c1.27-1.6,13.21-16.04,10.58-22.88c-2.63-6.84-16.66-0.46-18.79-0.05
					c-2.13,0.41-2.05-1.62-1.44-2.77c0.62-1.16,7.48-13.99,10.82-19.72c3.34-5.73,3.93-10.37,0.7-13.03
					c-3.11-2.57-8.43,1.82-11.39,2.89c-2.96,1.07-3.58-2.82-3.58-2.82s0.86-9.6-0.19-27.34c-1.05-17.75-9.06-16.32-9.06-16.32"/>
			</g>
			<g>
				<g>
					<path class="st1" d="M394.74,268.23c0,0,0.02,0.13,0.04,0.37c0.02,0.26,0.05,0.62,0.08,1.09c0.07,0.98,0.16,2.39,0.28,4.19
						c0.24,3.64,0.55,8.92,0.91,15.44c0.72,13.04,1.57,31.05,2.44,50.96c0.87,19.91,1.67,37.93,2.32,50.97
						c0.33,6.51,0.6,11.78,0.79,15.44c0.09,1.81,0.16,3.22,0.21,4.2c0.02,0.47,0.03,0.83,0.04,1.09c0.01,0.25,0,0.37,0,0.37
						s-0.02-0.13-0.04-0.37c-0.02-0.26-0.05-0.62-0.08-1.09c-0.07-0.98-0.16-2.39-0.28-4.19c-0.24-3.64-0.55-8.92-0.91-15.44
						c-0.72-13.04-1.57-31.06-2.44-50.97c-0.87-19.9-1.67-37.92-2.32-50.96c-0.33-6.51-0.6-11.78-0.79-15.44
						c-0.09-1.81-0.16-3.22-0.21-4.2c-0.02-0.47-0.03-0.83-0.04-1.09C394.73,268.35,394.74,268.23,394.74,268.23z"/>
				</g>
			</g>
			<g>
				<g>
					<path class="st1" d="M382.37,303.85c0.02-0.02,0.25,0.18,0.66,0.55c0.41,0.37,0.98,0.92,1.68,1.61
						c1.39,1.38,3.27,3.34,5.3,5.54c1.99,2.17,3.78,4.14,5.17,5.66c0.62,0.67,1.14,1.24,1.57,1.71c0.37,0.4,0.57,0.63,0.55,0.65
						c-0.02,0.02-0.25-0.17-0.66-0.54c-0.41-0.37-0.98-0.92-1.67-1.62c-1.38-1.4-3.23-3.38-5.26-5.58c-2-2.16-3.81-4.11-5.21-5.62
						c-0.62-0.67-1.15-1.23-1.58-1.7C382.55,304.1,382.35,303.87,382.37,303.85z"/>
				</g>
			</g>
			<g>
				<g>
					<path class="st1" d="M398.35,319.21c-0.08-0.08,3.79-4.13,8.63-9.04c4.85-4.92,8.84-8.83,8.92-8.76
						c0.08,0.08-3.78,4.13-8.63,9.04C402.42,315.37,398.43,319.29,398.35,319.21z"/>
				</g>
			</g>
			<g>
				<g>
					<path class="st1" d="M398.3,349.84c-0.01-0.02,0.25-0.19,0.74-0.47c0.56-0.32,1.25-0.7,2.07-1.16
						c1.74-0.98,4.15-2.34,6.75-3.94c2.6-1.59,4.91-3.11,6.57-4.23c0.78-0.52,1.43-0.96,1.97-1.32c0.47-0.31,0.74-0.47,0.75-0.44
						c0.02,0.02-0.22,0.23-0.66,0.57c-0.44,0.35-1.09,0.84-1.9,1.42c-1.62,1.18-3.91,2.74-6.53,4.34c-2.61,1.6-5.04,2.93-6.82,3.85
						c-0.89,0.46-1.62,0.81-2.13,1.05C398.6,349.75,398.32,349.87,398.3,349.84z"/>
				</g>
			</g>
			<g>
				<g>
					<path class="st1" d="M380.8,339.12c0.01-0.02,0.27,0.1,0.73,0.34c0.46,0.24,1.11,0.61,1.92,1.06c1.61,0.91,3.82,2.2,6.24,3.64
						c2.43,1.44,4.61,2.77,6.18,3.75c0.79,0.49,1.42,0.89,1.85,1.18c0.43,0.29,0.66,0.45,0.65,0.48c-0.01,0.02-0.27-0.1-0.73-0.34
						c-0.46-0.24-1.11-0.61-1.92-1.06c-1.61-0.91-3.82-2.2-6.24-3.64c-2.43-1.44-4.61-2.77-6.18-3.75
						c-0.79-0.49-1.42-0.89-1.85-1.18C381.01,339.32,380.78,339.15,380.8,339.12z"/>
				</g>
			</g>
			<g>
				<g>
					<path class="st1" d="M377.32,366.16c0.01-0.02,0.34,0.14,0.93,0.45c0.65,0.36,1.48,0.81,2.46,1.36
						c2.07,1.16,4.91,2.79,8.04,4.61c3.13,1.82,5.95,3.49,7.98,4.71c0.96,0.59,1.76,1.08,2.4,1.47c0.56,0.35,0.86,0.56,0.85,0.59
						c-0.01,0.02-0.34-0.14-0.93-0.45c-0.65-0.36-1.48-0.81-2.46-1.36c-2.07-1.16-4.91-2.79-8.04-4.61
						c-3.13-1.82-5.95-3.49-7.98-4.71c-0.96-0.59-1.76-1.08-2.4-1.47C377.61,366.39,377.31,366.18,377.32,366.16z"/>
				</g>
			</g>
			<g>
				<g>
					<path class="st1" d="M399.52,378.87c-0.01-0.02,0.31-0.24,0.92-0.62c0.67-0.41,1.54-0.93,2.57-1.56
						c2.17-1.32,5.16-3.16,8.4-5.27c3.25-2.11,6.14-4.1,8.22-5.55c0.99-0.69,1.82-1.27,2.47-1.72c0.59-0.4,0.92-0.61,0.93-0.59
						c0.02,0.02-0.28,0.28-0.84,0.72c-0.56,0.44-1.37,1.07-2.4,1.82c-2.04,1.51-4.91,3.54-8.17,5.66c-3.25,2.12-6.27,3.92-8.48,5.18
						c-1.11,0.63-2.01,1.12-2.64,1.45C399.89,378.72,399.54,378.89,399.52,378.87z"/>
				</g>
			</g>
		</g>
		<g>
			<g>
				<g>
					<polygon class="st1" points="415.41,397.11 386.17,397.11 395.71,469.35 405.86,469.35 					"/>
				</g>
			</g>
			<g>
				<g>
					<g>
						<path class="st2" d="M387.68,405.99c-0.01,0.01,0.03,0.1,0.16,0.26c0.12,0.15,0.35,0.35,0.71,0.5
							c0.69,0.3,1.91,0.33,3.09-0.38c1.18-0.65,2.21-1.93,3.79-2.5c1.57-0.6,3.51-0.49,5.38,0.11c1.89,0.58,3.52,1.54,5.01,2.43
							c1.49,0.88,2.85,1.67,4.07,2.18c1.21,0.53,2.27,0.77,3,0.87c0.37,0.05,0.65,0.06,0.85,0.06c0.19,0,0.3-0.01,0.3-0.02
							c0.02-0.1-1.65-0.08-4.01-1.21c-1.18-0.54-2.51-1.35-3.98-2.25c-1.47-0.91-3.15-1.9-5.09-2.5c-1.92-0.62-3.99-0.73-5.68-0.06
							c-0.84,0.32-1.55,0.82-2.14,1.32c-0.6,0.49-1.13,0.96-1.67,1.3c-1.07,0.69-2.19,0.72-2.85,0.49
							C387.94,406.34,387.72,405.95,387.68,405.99z"/>
					</g>
				</g>
			</g>
			<g>
				<g>
					<g>
						<path class="st2" d="M388.75,419.3c0.04,0.02,0.23-0.3,0.69-0.78c0.47-0.46,1.23-1.07,2.34-1.48c1.1-0.42,2.51-0.67,4.07-0.61
							c1.57,0.05,3.27,0.4,5.09,0.69c1.81,0.3,3.61,0.44,5.21,0.22c1.6-0.21,2.99-0.67,4.1-1.17c1.11-0.51,1.93-1.06,2.46-1.47
							c0.54-0.41,0.8-0.68,0.78-0.7c-0.05-0.08-1.18,0.93-3.38,1.86c-1.1,0.45-2.46,0.87-4.02,1.04c-1.56,0.19-3.28,0.05-5.08-0.25
							c-1.8-0.29-3.53-0.63-5.15-0.66c-1.62-0.04-3.08,0.26-4.21,0.74c-1.14,0.47-1.91,1.15-2.35,1.67
							c-0.21,0.27-0.36,0.49-0.44,0.65C388.78,419.2,388.74,419.29,388.75,419.3z"/>
					</g>
				</g>
			</g>
			<g>
				<g>
					<g>
						<path class="st2" d="M412.1,426.42c0.01-0.02-0.26-0.2-0.81-0.42c-0.54-0.22-1.37-0.44-2.42-0.52
							c-1.05-0.08-2.3-0.02-3.66,0.21c-1.36,0.22-2.83,0.6-4.36,0.92c-1.53,0.32-3.01,0.54-4.35,0.49
							c-1.34-0.05-2.53-0.34-3.46-0.75c-1.88-0.83-2.55-2.03-2.62-1.95c-0.02,0.01,0.11,0.31,0.49,0.76
							c0.38,0.45,1.03,1.02,1.99,1.49c0.95,0.47,2.18,0.81,3.58,0.88c1.4,0.08,2.92-0.14,4.47-0.46c1.55-0.33,3-0.72,4.34-0.96
							c1.33-0.24,2.55-0.34,3.57-0.31C410.9,425.88,412.07,426.51,412.1,426.42z"/>
					</g>
				</g>
			</g>
			<g>
				<g>
					<g>
						<path class="st2" d="M391.34,436.44c0.01,0.08,1.04-0.65,2.84-0.29c0.88,0.16,1.86,0.6,2.97,1.11
							c1.1,0.51,2.43,0.95,3.86,1.06c2.87,0.28,5.43-0.65,6.99-1.62c0.8-0.48,1.36-0.99,1.74-1.34c0.36-0.38,0.54-0.6,0.51-0.62
							c-0.06-0.07-0.83,0.79-2.42,1.67c-1.57,0.87-4.03,1.7-6.78,1.44c-2.77-0.16-4.89-1.81-6.81-2.03
							c-0.94-0.14-1.72-0.01-2.21,0.19C391.53,436.2,391.32,436.42,391.34,436.44z"/>
					</g>
				</g>
			</g>
			<g>
				<g>
					<g>
						<path class="st2" d="M392.96,450.3c0,0.05,0.98,0.05,2.44-0.48c1.47-0.49,3.29-1.62,5.41-2.46c1.07-0.41,2.13-0.66,3.11-0.65
							c0.97,0,1.84,0.24,2.5,0.57c1.34,0.67,1.73,1.62,1.81,1.56c0.02-0.01-0.04-0.25-0.28-0.62c-0.24-0.37-0.68-0.85-1.37-1.24
							c-0.68-0.39-1.6-0.68-2.65-0.71c-1.05-0.03-2.18,0.22-3.28,0.64c-2.2,0.88-3.96,2.04-5.37,2.59
							C393.89,450.1,392.95,450.23,392.96,450.3z"/>
					</g>
				</g>
			</g>
			<g>
				<g>
					<g>
						<path class="st2" d="M394.4,456.75c-0.02,0.06,0.68,0.31,1.85,0.6c1.17,0.29,2.8,0.6,4.63,0.78c1.83,0.18,3.49,0.19,4.69,0.14
							c1.2-0.06,1.94-0.17,1.93-0.23c-0.01-0.14-2.96-0.02-6.58-0.38C397.31,457.31,394.43,456.61,394.4,456.75z"/>
					</g>
				</g>
			</g>
		</g>
	</g>
	<g>
		<g>
			<g>
				
					<rect x="86.74" y="142.38" transform="matrix(0.9729 -0.2312 0.2312 0.9729 -44.3363 35.8581)" class="st1" width="88.16" height="129.42"/>
			</g>
			<g>
				
					<rect x="80.06" y="138.67" transform="matrix(0.9729 -0.2312 0.2312 0.9729 -43.6603 34.2119)" class="st0" width="88.16" height="129.42"/>
			</g>
			<g>
				<g>
					
						<rect x="72.89" y="137.58" transform="matrix(0.9729 -0.2312 0.2312 0.9729 -43.3171 32.4927)" class="st2" width="88.16" height="126.95"/>
				</g>
			</g>
			<g>
				<g>
					<path class="st0" d="M144.11,259.85c0,0,20.04-13.63,24.92-29.48c0,0-5.95,7.49-16.74,7.85
						C152.28,238.21,150.15,255.17,144.11,259.85z"/>
				</g>
			</g>
		</g>
		<g>
			<g>
				<g>
					<path class="st1" d="M144.57,161.99c0.03,0.14-15.19,3.88-33.99,8.35c-18.81,4.47-34.08,7.98-34.12,7.84
						c-0.03-0.14,15.18-3.88,33.99-8.35C129.26,165.36,144.54,161.85,144.57,161.99z"/>
				</g>
			</g>
		</g>
		<g>
			<g>
				<g>
					<path class="st1" d="M146.7,170.95c0.03,0.14-15.19,3.88-33.99,8.35c-18.81,4.47-34.08,7.98-34.12,7.84
						c-0.03-0.14,15.18-3.88,33.99-8.35C131.39,174.32,146.66,170.81,146.7,170.95z"/>
				</g>
			</g>
		</g>
		<g>
			<g>
				<g>
					<path class="st1" d="M148.83,179.91c0.03,0.14-15.19,3.88-33.99,8.35c-18.81,4.47-34.08,7.98-34.12,7.84
						c-0.03-0.14,15.18-3.88,33.99-8.35C133.52,183.28,148.79,179.77,148.83,179.91z"/>
				</g>
			</g>
		</g>
		<g>
			<g>
				<g>
					<path class="st1" d="M150.96,188.87c0.03,0.14-15.19,3.88-33.99,8.35c-18.81,4.47-34.08,7.98-34.12,7.84
						c-0.03-0.14,15.18-3.88,33.99-8.35C135.65,192.24,150.92,188.73,150.96,188.87z"/>
				</g>
			</g>
		</g>
		<g>
			<g>
				<g>
					<path class="st1" d="M153.09,197.83c0.03,0.14-15.19,3.88-33.99,8.35c-18.81,4.47-34.08,7.98-34.12,7.84
						c-0.03-0.14,15.18-3.88,33.99-8.35C137.78,201.2,153.05,197.69,153.09,197.83z"/>
				</g>
			</g>
		</g>
		<g>
			<g>
				<g>
					<path class="st1" d="M155.22,206.79c0.03,0.14-15.19,3.88-33.99,8.35c-18.81,4.47-34.08,7.98-34.12,7.84
						c-0.03-0.14,15.18-3.88,33.99-8.35C139.91,210.16,155.18,206.65,155.22,206.79z"/>
				</g>
			</g>
		</g>
		<g>
			<g>
				<g>
					<path class="st1" d="M157.35,215.75c0.03,0.14-15.19,3.88-33.99,8.35c-18.81,4.47-34.08,7.98-34.12,7.84
						c-0.03-0.14,15.18-3.88,33.99-8.35C142.04,219.12,157.31,215.61,157.35,215.75z"/>
				</g>
			</g>
		</g>
		<g>
			<g>
				<g>
					<path class="st1" d="M159.48,224.72c0.03,0.14-15.19,3.88-33.99,8.35c-18.81,4.47-34.08,7.98-34.12,7.84
						c-0.03-0.14,15.18-3.88,33.99-8.35C144.17,228.09,159.44,224.58,159.48,224.72z"/>
				</g>
			</g>
		</g>
	</g>
</g>
<g id="Background_Simple" class="st3">
	<g class="st4">
		<path class="st0" d="M456.48,278.95C453.17,242.8,424,209,387.84,205.74c-23.35-2.1-48.59,7.43-69.43-3.31
			c-17.36-8.95-25.51-29.22-29.5-48.34c-3.98-19.12-5.45-39.37-15.26-56.25c-11.66-20.07-33.87-32.38-56.7-36.59
			c-37.49-6.91-84.27,5.78-109.66,34.22c-25.39,28.44-38.95,88.14-27.85,124.62c5.65,54,35.27,104.57,78.05,138
			c42.78,33.44,97.93,49.91,152.19,48.08c36.28-1.22,73.19-10.82,101.95-32.97C440.4,351.04,459.8,315.1,456.48,278.95z"/>
	</g>
</g>
<g id="Floor">
	<g>
		<g>
			<g>
				<path class="st5" d="M475.26,469.26c0,0.14-101.65,0.26-227,0.26c-125.4,0-227.03-0.12-227.03-0.26S122.86,469,248.26,469
					C373.62,469,475.26,469.11,475.26,469.26z"/>
			</g>
		</g>
	</g>
</g>
<g id="Character">
	<g>
		<g>
			<g>
				<g>
					<path class="st6" d="M216.41,434.31l-2.34,25.7l-7.71,19.79c-0.56,1.43,0.21,3.03,1.67,3.48l0,0c0.82,0.26,1.7,0.11,2.38-0.41
						c4.34-3.31,20.25-15.55,20.31-17.44c0.08-2.19,4.26-26.94,4.26-26.94L216.41,434.31z"/>
				</g>
			</g>
			<g class="st7">
				<g>
					<path class="st8" d="M208.04,483.28l22.89-19.58l-0.12,1.09c-0.11,0.94-0.54,1.81-1.23,2.46c-1.85,1.73-7.05,6.39-19.08,15.64
						C209.81,483.42,208.88,483.57,208.04,483.28L208.04,483.28z"/>
				</g>
			</g>
			<g class="st7">
				<g>
					<g>
						<path class="st8" d="M226.62,454.83c-0.69,0.37-1.01,1.32-0.67,2.03c0.34,0.71,1.3,1.04,2,0.68c0.7-0.36,1.12-1.48,0.7-2.15
							c-0.42-0.66-1.57-1-2.16-0.48"/>
					</g>
				</g>
			</g>
			<g>
				<g>
					<g>
						<path class="st5" d="M215.18,472.75c-0.15,0.05-0.58-1.35-2.02-2.25c-1.42-0.94-2.87-0.74-2.89-0.9
							c-0.02-0.07,0.33-0.23,0.94-0.24c0.6-0.02,1.46,0.16,2.25,0.67c0.79,0.51,1.31,1.21,1.54,1.77
							C215.25,472.35,215.25,472.73,215.18,472.75z"/>
					</g>
				</g>
			</g>
			<g>
				<g>
					<g>
						<path class="st5" d="M212.96,475.97c-0.13,0.1-0.86-0.83-2.15-1.36c-1.27-0.56-2.44-0.44-2.47-0.61
							c-0.06-0.14,1.24-0.54,2.69,0.09C212.5,474.7,213.1,475.92,212.96,475.97z"/>
					</g>
				</g>
			</g>
			<g>
				<g>
					<g>
						<path class="st5" d="M219.08,468.73c-0.13,0.11-1.25-1.32-3.17-2.32c-1.91-1.03-3.72-1.15-3.7-1.32
							c-0.03-0.14,1.92-0.28,3.97,0.82C218.24,466.99,219.21,468.68,219.08,468.73z"/>
					</g>
				</g>
			</g>
			<g>
				<g>
					<g>
						<path class="st5" d="M220.44,460.98c-0.09,0.15-1.43-0.61-3.27-0.88c-1.83-0.3-3.35,0-3.38-0.17
							c-0.06-0.13,1.5-0.71,3.47-0.39C219.23,459.84,220.54,460.87,220.44,460.98z"/>
					</g>
				</g>
			</g>
			<g>
				<g>
					<g>
						<path class="st5" d="M221.32,453.46c-0.1,0.14-1.42-0.88-3.38-1.01c-1.95-0.18-3.42,0.62-3.5,0.47
							c-0.04-0.06,0.28-0.35,0.91-0.62c0.63-0.28,1.58-0.49,2.63-0.41c1.05,0.09,1.96,0.45,2.53,0.82
							C221.1,453.07,221.37,453.4,221.32,453.46z"/>
					</g>
				</g>
			</g>
			<g>
				<g>
					<g>
						<path class="st5" d="M218.15,451.02c-0.03,0-0.05-0.35,0.08-0.97c0.13-0.61,0.41-1.51,1.06-2.45
							c0.33-0.44,0.69-1.02,1.44-1.28c0.38-0.13,0.9,0,1.16,0.37c0.26,0.36,0.31,0.8,0.27,1.2c-0.21,1.62-1.79,3.04-3.65,3.06
							c-1.86-0.01-3.41-1.25-3.97-2.74c-0.12-0.38-0.18-0.84,0.07-1.25c0.25-0.41,0.79-0.53,1.15-0.42c0.75,0.2,1.18,0.69,1.59,1.07
							c0.8,0.81,1.26,1.62,1.52,2.19c0.26,0.57,0.32,0.92,0.29,0.93c-0.1,0.06-0.5-1.33-2.09-2.83c-0.4-0.35-0.87-0.79-1.41-0.9
							c-0.26-0.06-0.51,0.02-0.63,0.23c-0.12,0.2-0.1,0.52,0,0.83c0.48,1.22,1.9,2.35,3.47,2.33c1.57-0.01,2.95-1.25,3.13-2.56
							c0.04-0.31-0.01-0.64-0.16-0.85c-0.14-0.2-0.39-0.28-0.64-0.21c-0.52,0.14-0.92,0.64-1.24,1.06
							C218.32,449.59,218.26,451.06,218.15,451.02z"/>
					</g>
				</g>
			</g>
		</g>
		<g>
			<g>
				<g>
					<path class="st9" d="M316.78,184.73c0.02,0.02,0,0.14-0.05,0.33c-0.44,1.58-3.13,8.15-4.05,8.11c-1.03-0.04-3.08-1.44-2.9-2.37
						c0.19-0.93,3.64-8.16,3.64-8.16s0.62-1.11,2.7-0.62C316.43,182.1,316.72,184.98,316.78,184.73z"/>
				</g>
				<g>
					<path class="st9" d="M313.36,180.81c0.02,0.02,0,0.14-0.05,0.33c-0.44,1.58-3.13,8.15-4.05,8.11c-1.03-0.04-3.08-1.44-2.9-2.37
						c0.19-0.93,3.64-8.16,3.64-8.16s0.62-1.11,2.7-0.62C313.99,178.4,313.36,180.81,313.36,180.81z"/>
				</g>
				<g>
					<path class="st9" d="M310.34,178.09c0.02,0.02,0,0.14-0.05,0.33c-0.44,1.58-3.13,8.15-4.05,8.11c-1.03-0.04-3.08-1.44-2.9-2.37
						c0.19-0.93,3.64-8.16,3.64-8.16c-0.13,0.23-0.3-1.32,2.7-0.62C310.97,175.68,310.34,178.09,310.34,178.09z"/>
				</g>
				<g>
					<path class="st9" d="M306.53,175.47c0.02,0.02,0,0.14-0.05,0.33c-0.44,1.58-3.13,8.15-4.05,8.11c-1.03-0.04-3.08-1.44-2.9-2.37
						c0.19-0.93,3.64-8.16,3.64-8.16s0.62-1.11,2.7-0.62C307.16,173.06,306.53,175.47,306.53,175.47z"/>
				</g>
				<g>
					<g>
						<path class="st10" d="M310.52,188.86c0.12,0.04,0.82-1.35,1.57-3.09c0.75-1.74,1.27-3.19,1.15-3.22
							c-0.12-0.04-0.82,1.35-1.57,3.09C310.91,187.38,310.4,188.82,310.52,188.86z"/>
					</g>
				</g>
				<g>
					<g>
						<path class="st10" d="M306.61,187.35c0.11,0.05,1.08-1.93,2.17-4.43c1.08-2.49,1.87-4.56,1.76-4.6
							c-0.11-0.05-1.08,1.93-2.17,4.43C307.29,185.24,306.5,187.3,306.61,187.35z"/>
					</g>
				</g>
				<g class="st11">
					<g>
						<path class="st10" d="M302.78,185.47c0.11,0.05,1.08-1.93,2.17-4.43c1.08-2.49,1.87-4.56,1.76-4.6
							c-0.11-0.05-1.08,1.93-2.17,4.43C303.46,183.36,302.67,185.42,302.78,185.47z"/>
					</g>
				</g>
			</g>
			<g>
				<g>
					<g>
						<path class="st9" d="M311.88,198c0.15-0.39,2.78-8.17,2.78-8.17l-14.97-7.39c-0.76,1.01-3.07,11.91-3.07,11.91l0.53,3.72
							c0,0,11.38,6.54,11.69,6.6C309.14,204.73,311.88,198,311.88,198z"/>
					</g>
					<g>
						<g>
							<g>
								<path class="st9" d="M300.16,194.64l-1.53-5.67c-0.67-2.48-0.36-5.12,0.87-7.37l0.94-1.72l12.73,5.8
									c0,0-2.95,4.18-6.18,1.92l2.49,4.84L300.16,194.64z"/>
							</g>
						</g>
					</g>
					<g>
						<g>
							<path class="st10" d="M308.38,192.93c-0.08-0.01,0.03-0.66-0.18-1.77c-0.22-1.08-0.85-2.68-2.4-3.83l-1.18-0.88l1.42,0.4
								c1.01,0.28,2.11,0.59,3.28,0.92l-0.07-0.01c1.36,0.1,2.96-0.37,3.69-1.71c0.05-0.1,0.11-0.22,0.14-0.3l0.19,0.4
								c-3.67-1.49-6.96-2.88-9.28-4.02c-1.16-0.57-2.08-1.05-2.71-1.41c-0.63-0.36-0.96-0.58-0.94-0.61
								c0.04-0.08,1.48,0.59,3.84,1.61c2.36,1.03,5.66,2.35,9.34,3.83l0.29,0.12l-0.1,0.28c-0.05,0.16-0.12,0.28-0.19,0.42
								c-0.44,0.79-1.16,1.38-1.95,1.69c-0.79,0.32-1.61,0.37-2.36,0.33l-0.04,0l-0.03-0.01c-1.16-0.35-2.25-0.68-3.26-0.99
								l0.24-0.48c1.66,1.32,2.25,3.07,2.39,4.21C308.64,192.29,308.42,192.94,308.38,192.93z"/>
						</g>
					</g>
					<g>
						<g>
							<path class="st10" d="M311.44,187.28c0.13,0.01-0.09,0.7,0.1,1.62c0.11,0.43,0.47,0.95,0.99,0.97
								c0.55,0.03,1.11-0.39,1.49-1.02c0.78-1.35,1.57-2.58,2.03-3.48c0.48-0.91,0.72-1.51,0.81-1.48c0.08,0.02-0.01,0.68-0.39,1.67
								c-0.39,1-1.1,2.24-1.91,3.64c-0.42,0.71-1.21,1.37-2.09,1.27c-0.92-0.12-1.32-0.93-1.39-1.47c-0.08-0.58,0.04-1.01,0.13-1.3
								C311.32,187.42,311.4,187.27,311.44,187.28z"/>
						</g>
					</g>
				</g>
			</g>
		</g>
		<g>
			<g>
				<g>
					<g>
						<g>
							<g>
								<g>
									<g>
										<g>
											<g>
												<g>
													<g>
														<g>
															<path class="st9" d="M259.49,120.78l-4.39,45.05c-0.35,3.58-3.5,6.22-7.09,5.94l-10.33-0.82
																c-3.59-0.29-6.28-3.39-6.06-6.98c0.33-5.4,0.84-12.03,0.84-12.03s-9.61-1.49-9.73-11.1
																c-0.06-4.59,0.59-14.01,1.28-22.59c0.76-9.46,8.66-16.74,18.15-16.74h0.65C252.8,102.08,260.35,110.8,259.49,120.78z
																"/>
														</g>
													</g>
												</g>
											</g>
										</g>
									</g>
								</g>
							</g>
						</g>
						<g>
							<g>
								<g>
									<g>
										<g>
											<g>
												<g>
													<g>
														<g>
															<path class="st10" d="M232.44,151.78c0,0,6.07,0.49,12.53-3.56c0,0-2.96,6.92-12.55,6.05L232.44,151.78z"/>
														</g>
													</g>
												</g>
											</g>
										</g>
									</g>
								</g>
							</g>
						</g>
					</g>
				</g>
			</g>
			<g>
				<g>
					<g>
						<g>
							<g>
								<g>
									<g>
										<g>
											<g>
												<g>
													<g>
														<g>
															<g>
																<g>
																	<g>
																		<g>
																			<path class="st5" d="M226.09,125.33c0.17,0.18,1.21-0.59,2.69-0.59c1.48-0.02,2.56,0.74,2.72,0.56
																				c0.08-0.08-0.09-0.4-0.57-0.75c-0.46-0.34-1.26-0.67-2.18-0.67c-0.92,0.01-1.69,0.34-2.14,0.69
																				C226.16,124.93,226.01,125.25,226.09,125.33z"/>
																		</g>
																	</g>
																</g>
															</g>
														</g>
													</g>
												</g>
											</g>
										</g>
									</g>
								</g>
								<g>
									<g>
										<g>
											<g>
												<g>
													<g>
														<g>
															<g>
																<g>
																	<g>
																		<g>
																			<path class="st5" d="M240.56,125.33c0.17,0.18,1.21-0.59,2.69-0.59c1.47-0.02,2.56,0.74,2.72,0.56
																				c0.08-0.08-0.09-0.4-0.57-0.75c-0.46-0.34-1.26-0.67-2.18-0.67c-0.92,0.01-1.69,0.34-2.14,0.69
																				C240.63,124.93,240.48,125.25,240.56,125.33z"/>
																		</g>
																	</g>
																</g>
															</g>
														</g>
													</g>
												</g>
											</g>
										</g>
									</g>
								</g>
								<g>
									<g>
										<g>
											<g>
												<g>
													<g>
														<g>
															<g>
																<g>
																	<g>
																		<path class="st5" d="M235.25,133.89c0.01-0.08-0.91-0.24-2.4-0.43c-0.38-0.04-0.73-0.11-0.8-0.37
																			c-0.09-0.27,0.07-0.68,0.25-1.12c0.35-0.91,0.73-1.87,1.12-2.87c1.55-4.09,2.67-7.45,2.5-7.51
																			c-0.17-0.06-1.55,3.2-3.1,7.29c-0.37,1.01-0.73,1.97-1.07,2.89c-0.14,0.43-0.39,0.91-0.2,1.48
																			c0.1,0.28,0.38,0.49,0.62,0.55c0.24,0.07,0.45,0.08,0.64,0.09C234.32,133.96,235.24,133.97,235.25,133.89z"/>
																	</g>
																</g>
															</g>
														</g>
													</g>
												</g>
											</g>
										</g>
									</g>
								</g>
								<g>
									<g>
										<g>
											<g>
												<g>
													<g>
														<g>
															<g>
																<g>
																	<g>
																		<path class="st5" d="M239.6,134.91c-0.24-0.01-0.24,1.59-1.62,2.73c-1.37,1.14-3.08,0.96-3.09,1.19
																			c-0.02,0.1,0.38,0.31,1.1,0.33c0.71,0.02,1.74-0.2,2.58-0.9c0.84-0.7,1.2-1.63,1.25-2.29
																			C239.88,135.3,239.71,134.9,239.6,134.91z"/>
																	</g>
																</g>
															</g>
														</g>
													</g>
												</g>
											</g>
										</g>
									</g>
								</g>
							</g>
						</g>
					</g>
					<g>
						<g>
							<g>
								<g>
									<g>
										<g>
											<g>
												<g>
													<g>
														<path class="st5" d="M240.23,117.15c0.15,0.4,1.62,0.21,3.35,0.42c1.74,0.17,3.13,0.68,3.36,0.32
															c0.1-0.17-0.14-0.55-0.71-0.94c-0.56-0.39-1.45-0.76-2.49-0.87c-1.04-0.11-1.99,0.05-2.62,0.31
															C240.49,116.64,240.17,116.96,240.23,117.15z"/>
													</g>
												</g>
											</g>
										</g>
									</g>
								</g>
							</g>
						</g>
					</g>
					<g>
						<g>
							<g>
								<g>
									<g>
										<g>
											<g>
												<g>
													<g>
														<path class="st5" d="M226.64,118.39c0.26,0.34,1.28-0.01,2.5-0.03c1.22-0.06,2.26,0.23,2.5-0.13
															c0.1-0.17-0.06-0.51-0.51-0.82c-0.45-0.32-1.19-0.57-2.03-0.55c-0.84,0.03-1.57,0.33-1.99,0.67
															C226.66,117.88,226.52,118.22,226.64,118.39z"/>
													</g>
												</g>
											</g>
										</g>
									</g>
								</g>
							</g>
						</g>
					</g>
				</g>
			</g>
			<g>
				<g>
					<g>
						<path class="st5" d="M249.05,110.24c0.02,0.01,0.04,0.03,0.05,0.04c1.53,1.21,2.54,2.96,2.81,4.89
							c0.01,0.07,0.02,0.13,0.03,0.19c0.38,2.74,0.31,5.53,0.71,8.27c0.4,2.74,1.35,5.52,3.37,7.41c0.83,0.78,2.3,1.31,2.99,0.4
							c0.26-0.35,0.31-0.82,0.34-1.26c0.51-6.62,2.32-12.49,2.31-19.41c0-1.88-0.89-3.65-2.42-4.75c-1.45-1.04-3.22-2.12-4.83-1.35
							c-1.61,0.76-3.7,3.78-4.94,5.05"/>
					</g>
				</g>
			</g>
			<g>
				<g>
					<g>
						<g>
							<g>
								<g>
									<g>
										<g>
											<g>
												<g>
													<path class="st9" d="M256.25,125.12c0.16-0.07,6.6-1.95,6.39,4.62c-0.21,6.57-6.76,5-6.77,4.82
														C255.87,134.37,256.25,125.12,256.25,125.12z"/>
												</g>
											</g>
										</g>
									</g>
								</g>
							</g>
						</g>
					</g>
				</g>
				<g>
					<g>
						<g>
							<g>
								<g>
									<g>
										<g>
											<g>
												<g>
													<g>
														<path class="st10" d="M257.96,132.13c0.03-0.02,0.11,0.08,0.3,0.18c0.19,0.09,0.51,0.16,0.85,0.04
															c0.7-0.23,1.32-1.32,1.39-2.5c0.04-0.6-0.07-1.17-0.27-1.65c-0.19-0.49-0.49-0.83-0.83-0.91
															c-0.35-0.09-0.6,0.11-0.69,0.29c-0.09,0.18-0.06,0.31-0.09,0.32c-0.02,0.02-0.14-0.11-0.08-0.38
															c0.03-0.13,0.11-0.28,0.27-0.4c0.16-0.12,0.4-0.18,0.64-0.15c0.51,0.05,0.95,0.53,1.16,1.06
															c0.24,0.53,0.38,1.17,0.34,1.84c-0.08,1.32-0.8,2.54-1.76,2.78c-0.47,0.11-0.85-0.05-1.04-0.21
															C257.96,132.29,257.93,132.14,257.96,132.13z"/>
													</g>
												</g>
											</g>
										</g>
									</g>
								</g>
							</g>
						</g>
					</g>
				</g>
			</g>
			<g>
				<g>
					<g>
						<path class="st5" d="M254.64,105.68c1.62-2.63-2.81-6.4-6.06-7.42c-3.24-1.02-7.51,0.56-10.74,1.63
							c-2.04,0.68-4.07,1.62-6.21,1.53c-1.44-0.06-2.81-0.58-4.16-1.06c-1.36-0.48-2.77-0.93-4.2-0.83
							c-1.44,0.1-2.91,0.86-3.46,2.19c-0.54,1.33,0.24,3.16,1.66,3.35c-1.82-1-4.45,0.31-4.74,2.37c-0.3,2.05,1.86,4.05,3.88,3.61
							c-0.93-0.71-2.37,0.46-2.25,1.63c0.12,1.17,1.17,2.02,2.25,2.49c2.74,1.2,5.93,0.82,8.77-0.14c2.84-0.95,5.47-2.44,8.28-3.47
							c2.81-1.02,7.52-2.86,10.34-1.87c2.08,0.73,3.52,3.24,4.7,2.68c1.13-0.53,1.85-1.72,2.08-2.95
							C254.99,108.19,254.82,106.93,254.64,105.68"/>
					</g>
				</g>
			</g>
			<g>
				<g>
					<g>
						<g>
							<path class="st12" d="M220.67,104.89c0.05-0.03,0.34,0.49,1.04,1.25c0.71,0.75,1.9,1.74,3.65,2.35
								c1.72,0.6,4.06,0.79,6.27-0.25c2.24-1,4.15-3,6.35-4.89c2.2-1.9,4.79-3.31,7.38-3.55c2.58-0.25,4.97,0.7,6.28,2.18
								c1.33,1.49,1.59,3.19,1.49,4.25c-0.05,0.54-0.18,0.94-0.28,1.21c-0.12,0.26-0.19,0.39-0.21,0.38
								c-0.06-0.02,0.21-0.56,0.24-1.6c0.02-1.01-0.31-2.59-1.57-3.92c-1.25-1.32-3.48-2.15-5.89-1.89
								c-2.42,0.25-4.88,1.59-7.02,3.45c-2.16,1.85-4.13,3.9-6.52,4.94c-2.38,1.09-4.89,0.83-6.67,0.14
								c-1.82-0.69-3.01-1.79-3.68-2.62c-0.33-0.42-0.56-0.77-0.68-1.02C220.71,105.04,220.65,104.9,220.67,104.89z"/>
						</g>
					</g>
				</g>
			</g>
			<g>
				<g>
					<g>
						<g>
							<path class="st12" d="M257.92,124.84c-0.02,0.02-0.28-0.18-0.53-0.7c-0.25-0.51-0.45-1.36-0.33-2.38
								c0.15-2.12,2.02-4.39,2.26-7.31c0.15-1.44-0.11-2.85-0.73-3.92c-0.61-1.07-1.58-1.76-2.44-2.11
								c-0.87-0.36-1.67-0.37-2.19-0.3c-0.53,0.08-0.81,0.21-0.84,0.15c-0.02-0.03,0.23-0.23,0.78-0.4
								c0.54-0.15,1.42-0.23,2.41,0.11c0.97,0.33,2.07,1.04,2.8,2.24c0.73,1.18,1.01,2.74,0.86,4.29c-0.13,1.56-0.7,2.97-1.27,4.14
								c-0.56,1.18-1.03,2.23-1.18,3.17C257.17,123.74,258.02,124.81,257.92,124.84z"/>
						</g>
					</g>
				</g>
			</g>
		</g>
		<path class="st13" d="M214.87,265.96"/>
		<g>
			<path class="st9" d="M201.3,77.76c-0.35-0.29-1.59-11.04-1.59-11.04l8.97-5.28l14.04,3.24l-2.81,7.84l-14.38,7.53L201.3,77.76z"
				/>
			<g>
				<g>
					<path class="st14" d="M173.46,86.23c0,0,22.62-11.76,37.12-13.31c16.11-1.71,32.35,7.88,32.35,7.88l-3.21-42.5
						c0,0-15.15-11.31-34.42-6.5c-16.34,4.08-32.69,12-32.69,12L173.46,86.23z"/>
					<g>
						<g>
							<path class="st5" d="M173.46,86.23c0,0-0.02-0.24-0.03-0.73c-0.01-0.51-0.04-1.24-0.06-2.19c-0.05-1.96-0.12-4.81-0.22-8.45
								c-0.18-7.39-0.43-18.02-0.74-31.05l0-0.13l0.12-0.06c4.33-2.05,9.05-4.08,14.13-6.03c5.08-1.95,10.51-3.83,16.29-5.41
								c0.72-0.19,1.45-0.38,2.18-0.58c0.74-0.15,1.49-0.31,2.24-0.46c1.49-0.37,3.05-0.45,4.6-0.65c3.12-0.18,6.32-0.14,9.51,0.39
								c3.19,0.51,6.37,1.36,9.47,2.56c3.09,1.21,6.12,2.7,8.93,4.65l0.09,0.07l0.01,0.12c0.03,0.41,0.06,0.86,0.1,1.31
								c1.09,14.57,2.14,28.5,3.09,41.19l0.03,0.45l-0.4-0.22c-4.67-2.6-9.5-4.53-14.23-5.91c-4.73-1.39-9.41-2.11-13.83-2.15
								c-4.43-0.06-8.55,0.78-12.29,1.78c-3.74,1.01-7.12,2.18-10.16,3.3c-6.06,2.29-10.75,4.4-13.95,5.88
								c-1.58,0.75-2.8,1.32-3.64,1.72c-0.4,0.19-0.71,0.34-0.94,0.45C173.57,86.19,173.46,86.24,173.46,86.23
								c0.01,0,0.11-0.07,0.3-0.18c0.22-0.12,0.53-0.28,0.92-0.49c0.81-0.42,2.02-1.03,3.61-1.79c3.17-1.53,7.85-3.68,13.91-6.02
								c3.04-1.14,6.42-2.34,10.17-3.37c3.74-1.03,7.9-1.89,12.38-1.85c4.47,0.03,9.2,0.73,13.96,2.13
								c4.77,1.38,9.62,3.3,14.35,5.92l-0.37,0.23c-0.96-12.69-2.02-26.62-3.13-41.19c-0.03-0.45-0.07-0.9-0.1-1.31l0.1,0.19
								c-2.74-1.91-5.75-3.4-8.81-4.59c-3.06-1.19-6.21-2.03-9.36-2.54c-3.15-0.52-6.32-0.57-9.39-0.39
								c-1.53,0.19-3.07,0.27-4.54,0.63c-0.74,0.15-1.48,0.3-2.22,0.45c-0.73,0.19-1.45,0.38-2.18,0.57
								c-5.76,1.56-11.19,3.42-16.26,5.36c-5.07,1.94-9.8,3.95-14.11,5.97l0.11-0.19c0.21,12.97,0.38,23.55,0.5,30.9
								c0.05,3.67,0.09,6.54,0.12,8.51c0.01,0.97,0.02,1.71,0.03,2.24C173.47,85.96,173.46,86.23,173.46,86.23z"/>
						</g>
					</g>
				</g>
				<g>
					<g>
						<g>
							<path class="st1" d="M231.06,69.09c-0.14,0.01-0.74-7.17-1.34-16.03C229.12,44.2,228.76,37,228.9,37
								c0.14-0.01,0.74,7.17,1.34,16.03C230.83,61.89,231.2,69.08,231.06,69.09z"/>
						</g>
					</g>
				</g>
				<g>
					<g>
						<g>
							<path class="st1" d="M225.38,66.86c-0.14,0.01-0.74-7.17-1.34-16.03c-0.59-8.86-0.96-16.05-0.82-16.06
								c0.14-0.01,0.74,7.17,1.34,16.03C225.16,59.66,225.53,66.85,225.38,66.86z"/>
						</g>
					</g>
				</g>
				<g>
					<g>
						<g>
							<path class="st1" d="M219.91,66.08c-0.14,0.01-0.74-7.17-1.34-16.03c-0.59-8.86-0.96-16.05-0.82-16.06
								c0.14-0.01,0.74,7.17,1.34,16.03C219.69,58.88,220.05,66.07,219.91,66.08z"/>
						</g>
					</g>
				</g>
				<g>
					<g>
						<g>
							<path class="st1" d="M208.68,67.65c-0.14,0.01-0.74-7.17-1.34-16.03c-0.59-8.86-0.96-16.05-0.82-16.06
								c0.14-0.01,0.74,7.17,1.34,16.03C208.46,60.45,208.82,67.64,208.68,67.65z"/>
						</g>
					</g>
				</g>
				<g>
					<g>
						<g>
							<path class="st1" d="M203.45,69.09c-0.14,0.01-0.74-7.17-1.34-16.03c-0.6-8.86-0.96-16.05-0.82-16.06
								c0.14-0.01,0.74,7.17,1.34,16.03C203.23,61.89,203.6,69.08,203.45,69.09z"/>
						</g>
					</g>
				</g>
				<g>
					<g>
						<g>
							<path class="st1" d="M197.89,70.51c-0.14,0.01-0.74-7.17-1.34-16.03c-0.6-8.86-0.96-16.05-0.82-16.06
								c0.14-0.01,0.74,7.17,1.34,16.03C197.66,63.31,198.03,70.5,197.89,70.51z"/>
						</g>
					</g>
				</g>
				<g>
					<g>
						<g>
							<path class="st1" d="M187.3,74.88c-0.14,0.01-0.74-7.17-1.34-16.03c-0.59-8.86-0.96-16.05-0.82-16.06
								c0.14-0.01,0.74,7.17,1.34,16.03C187.07,67.68,187.44,74.87,187.3,74.88z"/>
						</g>
					</g>
				</g>
				<g>
					<g>
						<g>
							<path class="st1" d="M192.36,72.51c-0.14,0.01-0.74-7.17-1.34-16.03c-0.59-8.86-0.96-16.05-0.82-16.06
								c0.14-0.01,0.74,7.17,1.34,16.03C192.14,65.31,192.5,72.5,192.36,72.51z"/>
						</g>
					</g>
				</g>
				<g>
					<g>
						<g>
							<path class="st1" d="M181.39,76.78c-0.14,0.01-0.74-7.17-1.34-16.03c-0.59-8.86-0.96-16.05-0.82-16.06
								c0.14-0.01,0.74,7.17,1.34,16.03C181.17,69.58,181.54,76.77,181.39,76.78z"/>
						</g>
					</g>
				</g>
				<g>
					<g>
						<g>
							<path class="st1" d="M214.14,66.24c-0.14,0.01-0.74-7.17-1.34-16.03c-0.59-8.86-0.96-16.05-0.82-16.06
								c0.14-0.01,0.74,7.17,1.34,16.03C213.92,59.04,214.28,66.23,214.14,66.24z"/>
						</g>
					</g>
				</g>
				<g>
					<g>
						<g>
							<path class="st6" d="M221.67,66.58c-0.04-0.13,1.37-0.64,3.7-1.37c2.34-0.73,5.61-1.69,9.31-2.71l-0.15,0.93
								c-0.47-0.3-0.96-0.61-1.46-0.92c-7.18-4.45-13.87-6.27-13.77-6.58c0.03-0.13,1.75,0.17,4.41,1.04
								c2.66,0.88,6.25,2.39,9.91,4.65c0.52,0.31,1.01,0.64,1.49,0.95c0.24,0.16,0.31,0.48,0.15,0.71c-0.07,0.11-0.18,0.19-0.3,0.22
								c-3.71,0.99-7.01,1.83-9.4,2.38C223.17,66.44,221.7,66.71,221.67,66.58z"/>
						</g>
					</g>
				</g>
				<g>
					<g>
						<g>
							<path class="st6" d="M227.19,65.44c-0.29,0.03-0.75-2.34-1.05-5.29c-0.29-2.95-0.3-5.36-0.01-5.39
								c0.29-0.03,0.75,2.34,1.05,5.29C227.47,63,227.48,65.41,227.19,65.44z"/>
						</g>
					</g>
				</g>
				<g>
					<g>
						<g>
							<path class="st6" d="M235.1,63.55c0.03-0.01,0.11,0.18,0.23,0.58c0.08,0.39,0.17,1.04-0.11,1.8
								c-0.25,0.77-0.87,1.58-1.76,2.26c-0.45,0.34-0.96,0.65-1.53,0.92c-0.6,0.28-1.23,0.45-1.92,0.59
								c-1.38,0.28-2.96,0.25-4.56-0.13c-0.8-0.18-1.61-0.45-2.42-0.77c-0.79-0.32-1.64-0.7-2.42-1.24
								c-1.55-1.07-2.84-2.63-3.76-4.43c-0.89-1.78-1.56-3.96-1.01-6.19c0.26-1.1,0.92-2.15,1.84-2.8c0.92-0.66,1.98-0.97,2.99-1.12
								c2.02-0.28,3.99-0.1,5.78,0.38c3.6,0.94,6.37,3.1,8.03,5.32c1.71,2.25,2.16,4.57,2.29,6.08c0.12,1.53-0.01,2.38-0.07,2.37
								c-0.09,0-0.1-0.84-0.34-2.32c-0.25-1.46-0.79-3.62-2.47-5.68c-1.65-2.05-4.29-4.01-7.68-4.85c-1.68-0.42-3.54-0.57-5.38-0.3
								c-0.91,0.15-1.81,0.42-2.53,0.95c-0.72,0.52-1.22,1.31-1.44,2.22c-0.46,1.85,0.09,3.81,0.92,5.48
								c0.83,1.67,2.01,3.12,3.4,4.1c2.88,1.83,6.16,2.66,8.72,2.2c1.3-0.18,2.38-0.67,3.24-1.26c0.85-0.59,1.45-1.27,1.72-1.93
								c0.3-0.66,0.28-1.24,0.28-1.63C235.08,63.78,235.07,63.56,235.1,63.55z"/>
						</g>
					</g>
				</g>
			</g>
			<g>
				<g>
					<g>
						<g>
							<path class="st9" d="M212.39,81.81l4.51-3.65c1.97-1.59,3.25-3.89,3.57-6.4l0.24-1.92l-13.55-2.74c0,0-1.26,4.1,3.84,5.12
								c-4.52,1.95-6.21,6.05-7.45,10.49L212.39,81.81z"/>
						</g>
					</g>
				</g>
				<g>
					<g>
						<path class="st10" d="M206.8,75.68c0.06,0.04,0.36-0.55,1.17-1.31c0.8-0.74,2.24-1.65,4.14-1.67l1.45-0.02l-1.37-0.5
							c-0.98-0.36-2.04-0.75-3.16-1.17l0.06,0.03c-1.14-0.71-2.16-2.01-1.96-3.51c0.02-0.11,0.04-0.24,0.06-0.32l-0.38,0.21
							c3.8,0.94,7.25,1.73,9.76,2.16c1.26,0.22,2.28,0.36,2.99,0.44c0.71,0.08,1.1,0.1,1.11,0.05c0.01-0.09-1.53-0.39-4.01-0.94
							c-2.48-0.54-5.9-1.4-9.7-2.35l-0.3-0.07L206.6,67c-0.05,0.16-0.07,0.29-0.09,0.44c-0.11,0.89,0.13,1.78,0.58,2.48
							c0.44,0.71,1.07,1.23,1.69,1.63l0.03,0.02l0.03,0.01c1.13,0.39,2.2,0.76,3.18,1.1l0.09-0.52c-2.09,0.09-3.58,1.15-4.35,1.99
							C206.97,75.01,206.77,75.66,206.8,75.68z"/>
					</g>
				</g>
			</g>
		</g>
		<g>
			<path class="st5" d="M238.78,443.81l19.45-154.01l-3.73-23.35h-39.07l-4.66,174.51c-0.04,1.38,0.93,2.58,2.28,2.85l21.36,3.29
				C236.54,447.44,238.51,445.94,238.78,443.81z"/>
			<path class="st5" d="M257.67,294.97l35.37,35.01l-50.9,12.38l3.62,25.68l68.89-9.38c5.89-0.8,11.19-3.98,14.66-8.8v0
				c5.33-7.4,5.47-17.35,0.33-24.88l-53.67-78.78L252.01,254L257.67,294.97z"/>
			<g>
				<g>
					<path class="st15" d="M257.41,292.26"/>
				</g>
			</g>
			<g>
				<g>
					<g>
						<path class="st12" d="M255.72,286.06c0.14-0.03,0.69,1.94,1.23,4.4c0.54,2.46,0.86,4.48,0.72,4.51
							c-0.14,0.03-0.69-1.94-1.23-4.4C255.9,288.11,255.58,286.09,255.72,286.06z"/>
					</g>
				</g>
			</g>
			<g>
				<g>
					<g>
						<path class="st12" d="M250.57,345.59c0,0,0.28-0.11,0.84-0.28c0.58-0.18,1.4-0.43,2.48-0.77c2.2-0.67,5.39-1.64,9.49-2.89
							c8.24-2.48,20.08-6.04,34.54-10.39l-0.09,0.33c-11.97-12.75-26.52-28.24-42.46-45.22l0.44-0.15
							c-0.84,7.11-1.72,14.53-2.61,22.09c-4.38,36.68-8.49,69.87-11.68,93.86c-1.58,12-2.97,21.69-3.99,28.39
							c-0.57,3.34-0.94,5.94-1.33,7.68c-0.18,0.86-0.33,1.52-0.43,1.98c-0.1,0.45-0.16,0.67-0.16,0.67s0.03-0.23,0.11-0.68
							c0.09-0.47,0.21-1.13,0.38-1.99c0.35-1.74,0.69-4.35,1.23-7.69c0.96-6.7,2.29-16.4,3.83-28.4c3.09-24,7.15-57.2,11.53-93.88
							c0.9-7.57,1.78-14.99,2.62-22.09l0.07-0.55l0.38,0.4c15.92,17.01,30.43,32.52,42.38,45.29l0.22,0.24l-0.31,0.09
							c-14.48,4.28-26.34,7.78-34.59,10.22c-4.11,1.2-7.32,2.14-9.52,2.78c-1.08,0.31-1.91,0.55-2.49,0.71
							C250.86,345.52,250.57,345.59,250.57,345.59z"/>
					</g>
				</g>
			</g>
			<g>
				<g>
					<g>
						<path class="st12" d="M239.12,440.91c-0.14-0.02,3.9-32.7,9.02-73c5.13-40.31,9.39-72.96,9.54-72.94
							c0.14,0.02-3.9,32.7-9.02,73.01C243.53,408.27,239.26,440.92,239.12,440.91z"/>
					</g>
				</g>
			</g>
			<g>
				<g>
					<g>
						<path class="st12" d="M251.93,269.76c0.07-0.02,0.39,0.89,0.82,2.39c0.43,1.5,0.97,3.58,1.48,5.9
							c0.51,2.32,0.88,4.44,1.11,5.98c0.23,1.54,0.32,2.5,0.25,2.51c-0.07,0.01-0.29-0.93-0.61-2.45c-0.36-1.7-0.79-3.71-1.26-5.94
							c-0.5-2.22-0.95-4.22-1.33-5.92C252.05,270.72,251.86,269.78,251.93,269.76z"/>
					</g>
				</g>
			</g>
			<g>
				<g>
					<g>
						<path class="st12" d="M254.2,266.74c-0.06-0.03,0.5-0.48,1.44-0.16c0.44,0.16,0.96,0.59,1.07,1.27
							c0.12,0.64-0.12,1.45-0.8,1.88c-0.7,0.41-1.54,0.23-2.04-0.2c-0.54-0.44-0.61-1.16-0.46-1.6c0.14-0.47,0.44-0.76,0.66-0.88
							c0.23-0.13,0.38-0.13,0.39-0.1c0.05,0.07-0.54,0.28-0.7,1.07c-0.07,0.38,0.02,0.85,0.41,1.15c0.37,0.3,1,0.4,1.46,0.12
							c0.46-0.28,0.67-0.88,0.6-1.36c-0.06-0.49-0.4-0.84-0.75-1.01C254.77,266.57,254.22,266.83,254.2,266.74z"/>
					</g>
				</g>
			</g>
			<g>
				<g>
					<g>
						<path class="st12" d="M303.46,335.97c-0.11,0.12-2.1-1.72-4.97-3.37c-2.85-1.67-5.43-2.49-5.38-2.65
							c0.02-0.13,2.72,0.49,5.65,2.2C301.69,333.85,303.56,335.89,303.46,335.97z"/>
					</g>
				</g>
			</g>
		</g>
		<g>
			<path class="st6" d="M214.87,265.96l-3.44-61.21c0,0-5.13-22.05-9.56-30.91l23.39-17.14l6.06,2.9l11.96,10.91l12.15-7.09
				c0,0,14.54,6.12,18.36,8.42c3.83,2.3,4.59,8.42,4.59,8.42s-12.61,22.23-12.99,30.95c-0.38,8.72,12.6,31.03,12.6,31.03
				s7.11,2.11,7.51,7.83c0.35,4.95-1.95,6.72-1.95,6.72s-0.97-5.38-8.23-3.08c-7.27,2.3-22.34,15.69-33.17,16.07
				C231.32,270.17,214.87,265.96,214.87,265.96z"/>
			<path class="st6" d="M277.78,177.7l9.2,37.8l10.49-25.03l14.85,9c0,0-14.01,49.8-27.88,44.9c0,0-8.64-4.36-9.7-7.47
				c-1.06-3.11-17.07-25.68-17.07-25.68L277.78,177.7z"/>
			<g>
				<g>
					<g>
						<path class="st5" d="M277.99,242.25c-0.01,0.01-0.13-0.13-0.32-0.41c-0.23-0.33-0.5-0.74-0.84-1.24
							c-0.36-0.54-0.81-1.2-1.26-2.01c-0.45-0.81-1.03-1.69-1.53-2.74c-0.53-1.04-1.13-2.16-1.66-3.42
							c-0.58-1.24-1.1-2.61-1.64-4.05c-1.02-2.9-1.94-6.17-2.57-9.67c-0.6-3.51-0.84-6.89-0.89-9.97c0-1.54,0.01-3,0.11-4.37
							c0.05-1.37,0.2-2.63,0.32-3.79c0.27-2.31,0.56-4.17,0.84-5.44c0.12-0.59,0.23-1.07,0.31-1.46c0.08-0.33,0.12-0.51,0.14-0.5
							c0.02,0,0,0.18-0.04,0.52c-0.06,0.4-0.13,0.88-0.21,1.48c-0.21,1.28-0.45,3.14-0.67,5.44c-0.09,1.15-0.22,2.41-0.25,3.77
							c-0.08,1.36-0.08,2.81-0.06,4.34c0.07,3.05,0.33,6.41,0.92,9.89c0.62,3.47,1.52,6.71,2.51,9.6c0.52,1.44,1.02,2.8,1.58,4.04
							c0.51,1.26,1.09,2.39,1.59,3.43c0.48,1.05,1.04,1.94,1.46,2.76c0.42,0.82,0.84,1.49,1.18,2.04c0.3,0.52,0.55,0.94,0.75,1.29
							C277.92,242.08,278,242.24,277.99,242.25z"/>
					</g>
				</g>
			</g>
			<path class="st6" d="M197.86,74.71c0,0-23.4,39.31-25,45.12c-1.67,6.04,30.81,57.39,30.81,57.39s0.64,1.65,0.65,1.64l23.22-18.55
				l-27.37-38.73l14.71-38.67L197.86,74.71z"/>
			<g>
				<g>
					<g>
						<path class="st5" d="M201.11,123.15c-0.08,0.06-0.57-0.65-1.6-1.53c-1.02-0.88-2.65-1.87-4.65-2.38c-2-0.5-3.9-0.39-5.22-0.1
							c-1.32,0.29-2.09,0.68-2.13,0.59c-0.03-0.04,0.69-0.55,2.04-0.95c0.67-0.21,1.5-0.34,2.43-0.38c0.93-0.02,1.96,0.07,3,0.33
							c1.04,0.27,1.99,0.68,2.8,1.13c0.8,0.47,1.47,0.98,1.97,1.48C200.76,122.34,201.15,123.13,201.11,123.15z"/>
					</g>
				</g>
			</g>
			<g>
				<g>
					<g>
						<path class="st5" d="M211.74,180.4c-0.1,0-0.06-1.37-0.42-3.53c-0.17-1.08-0.5-2.34-0.97-3.7c-0.5-1.35-1.15-2.8-2-4.23
							c-0.87-1.42-1.85-2.67-2.82-3.73c-0.99-1.05-1.96-1.92-2.83-2.57c-1.74-1.32-2.98-1.92-2.93-2.01
							c0.02-0.03,0.33,0.1,0.89,0.37c0.28,0.13,0.62,0.3,0.99,0.53c0.38,0.23,0.82,0.47,1.26,0.81c0.92,0.63,1.93,1.49,2.96,2.54
							c1.01,1.07,2.02,2.34,2.92,3.79c0.87,1.46,1.53,2.95,2.01,4.34c0.45,1.4,0.75,2.7,0.88,3.8c0.09,0.55,0.1,1.05,0.13,1.49
							c0.04,0.44,0.03,0.82,0.01,1.13C211.81,180.06,211.78,180.4,211.74,180.4z"/>
					</g>
				</g>
			</g>
			<g>
				<g>
					<g>
						<path class="st5" d="M275.28,243.39c0,0.05-0.72-0.02-2.01,0.08c-1.28,0.12-3.14,0.46-5.26,1.37
							c-2.13,0.89-4.49,2.31-6.93,4.16c-2.45,1.84-4.98,4.08-7.92,6.1c-2.91,2.05-6.09,3.51-9.16,4.05
							c-3.06,0.57-5.88,0.44-8.19,0.1c-2.31-0.33-4.13-0.88-5.37-1.29c-0.62-0.21-1.09-0.39-1.41-0.52
							c-0.32-0.13-0.48-0.21-0.47-0.22c0.02-0.04,0.69,0.2,1.94,0.55c1.25,0.34,3.06,0.83,5.36,1.11c2.28,0.29,5.06,0.38,8.05-0.2
							c2.99-0.55,6.07-1.99,8.96-4.01c2.9-2,5.44-4.23,7.92-6.06c2.47-1.84,4.9-3.26,7.08-4.12c2.18-0.88,4.08-1.17,5.38-1.23
							c0.65-0.01,1.16,0,1.5,0.04C275.1,243.35,275.28,243.37,275.28,243.39z"/>
					</g>
				</g>
			</g>
			<g>
				<g>
					<g>
						<path class="st5" d="M286.06,232.85c-0.06,0.01-0.35-0.93-0.61-2.51c-0.26-1.58-0.44-3.79-0.31-6.23
							c0.13-2.44,0.55-4.63,0.98-6.17c0.42-1.54,0.81-2.45,0.87-2.43c0.08,0.02-0.19,0.97-0.51,2.52c-0.33,1.55-0.68,3.7-0.82,6.11
							c-0.13,2.4,0,4.59,0.16,6.16C285.98,231.86,286.14,232.83,286.06,232.85z"/>
					</g>
				</g>
			</g>
			<g class="st16">
				<path d="M229.56,257.04c0.09-2.5,3.07-3.93,5.56-3.78s4.87,1.28,7.37,1.37c4.24,0.16,7.97-2.62,11.24-5.33
					c3.27-2.7,6.84-5.61,11.08-5.78c0.53-0.02,1.2,0.1,1.35,0.61c0.14,0.47-0.26,0.91-0.63,1.24c-5.22,4.66-10.56,9.41-16.99,12.14
					c-6.44,2.74-14.28,3.16-20.14-0.67"/>
			</g>
			<g class="st16">
				<path d="M268.54,196.35c-0.75,12.1,3.32,24.43,11.13,33.7c1.31,1.55,2.75,3.08,3.4,5.01c0.64,1.93,0.2,4.4-1.57,5.39
					c-1.49,0.82-3.43,0.32-4.73-0.76c-1.3-1.09-2.1-2.65-2.82-4.19c-5.9-12.62-8.81-27.18-5.02-40.59"/>
			</g>
		</g>
	</g>
</g>
<g id="Plant">
	<g>
		<g>
			<g>
				<g>
					<g>
						<path class="st6" d="M153.2,398.42c0.97-3.36,3.04-6.6,6.25-7.99c3.34-1.44,7.21-0.62,10.62,0.62
							c3.42,1.24,6.77,2.9,10.4,3.13c3.63,0.22,7.72-1.5,8.81-4.97c1.02-3.26-0.95-6.74-3.41-9.11c-5.17-4.98-12.95-7.09-19.93-5.42
							c-6.98,1.68-12.95,7.09-15.3,13.87"/>
					</g>
				</g>
			</g>
		</g>
		<g>
			<g class="st17">
				<g>
					<g>
						<g>
							<g>
								<path d="M153.2,398.42c0.97-3.36,3.04-6.6,6.25-7.99c3.34-1.44,7.21-0.62,10.62,0.62c3.42,1.24,6.77,2.9,10.4,3.13
									c3.63,0.22,7.72-1.5,8.81-4.97c1.02-3.26-0.95-6.74-3.41-9.11c-5.17-4.98-12.95-7.09-19.93-5.42
									c-6.98,1.68-12.95,7.09-15.3,13.87"/>
							</g>
						</g>
					</g>
				</g>
			</g>
			<g>
				<g>
					<g>
						<g>
							<path class="st6" d="M124.46,412.99c-5.32-5.06-5.06-13.86-2.4-20.71c2.66-6.85,8.45-12.1,14.92-15.57
								c12.55-6.72,28.24-7.22,41.19-1.33c-6.37,0.21-12.52,3.82-15.81,9.28c-2.92,4.84-3.57,10.72-5.98,15.84
								c-2.68,5.7-7.61,10.31-13.48,12.6C137.04,415.4,130.3,415.36,124.46,412.99"/>
						</g>
					</g>
				</g>
			</g>
			<g>
				<g>
					<g>
						<g>
							<path class="st6" d="M121.9,382.61c-5.89-6.96-6.68-18.12-5.81-27.2c0.87-9.08,2.97-18.21,1.54-27.22
								c-0.85-5.33-2.92-10.43-3.62-15.78c-0.7-5.36,0.29-11.41,4.44-14.87c4.77-3.97,12.28-3.04,17.24,0.69
								c4.96,3.73,7.84,9.59,9.94,15.43c4.62,12.83,6.31,27.07,2.52,40.17c-3.79,13.1-12.69,24.82-25.74,28.77"/>
						</g>
					</g>
				</g>
			</g>
			<g>
				<g>
					<g>
						<g>
							<g>
								<path class="st5" d="M119.07,439.69c-0.02,0-0.02-0.28-0.02-0.8c0.01-0.53,0-1.3,0.04-2.3c0.08-1.99,0.27-4.88,0.71-8.43
									c0.45-3.54,1.15-7.74,2.26-12.34c1.1-4.6,2.98-9.51,5.63-14.29c2.66-4.78,5.91-8.9,9.2-12.3c3.3-3.4,6.67-6.05,9.65-8.02
									c1.47-1.02,2.9-1.79,4.12-2.51c1.26-0.66,2.35-1.2,3.25-1.64c0.89-0.37,1.6-0.67,2.12-0.89c0.49-0.2,0.74-0.3,0.75-0.28
									c0.01,0.02-0.24,0.14-0.71,0.37c-0.51,0.24-1.21,0.56-2.08,0.97c-0.88,0.46-1.96,1.02-3.2,1.7
									c-1.21,0.74-2.61,1.52-4.06,2.55c-2.94,2-6.26,4.65-9.51,8.05c-3.25,3.39-6.46,7.49-9.1,12.23
									c-5.42,9.48-6.9,19.45-7.98,26.43c-0.49,3.53-0.73,6.4-0.87,8.39c-0.06,0.96-0.1,1.72-0.13,2.29
									C119.11,439.42,119.09,439.69,119.07,439.69z"/>
							</g>
						</g>
					</g>
				</g>
			</g>
			<g>
				<g>
					<g>
						<g>
							<g>
								<path class="st6" d="M68.24,355.17c-10.9,6.58-10.87,12.57-9.05,18.22c1.82,5.65,8.51,9.58,14.06,7.46
									c3.14-1.2,5.41-3.92,7.35-6.66c1.94-2.74,3.76-5.67,6.48-7.64c2.72-1.97,6.66-2.72,9.39-0.77"/>
							</g>
						</g>
					</g>
				</g>
				<g class="st17">
					<g>
						<g>
							<g>
								<g>
									<path d="M68.24,355.17c-10.9,6.58-10.87,12.57-9.05,18.22c1.82,5.65,8.51,9.58,14.06,7.46c3.14-1.2,5.41-3.92,7.35-6.66
										c1.94-2.74,3.76-5.67,6.48-7.64c2.72-1.97,6.66-2.72,9.39-0.77"/>
								</g>
							</g>
						</g>
					</g>
				</g>
				<g>
					<g>
						<g>
							<g>
								<path class="st6" d="M60.07,362.38c2.85-3.94,9.89-5.08,14.34-3.11c4.45,1.97,7.71,5.86,10.62,9.76
									c2.92,3.89,5.75,8,9.79,10.71c4.04,2.71,9.68,3.69,13.71,0.96c2.64-1.79,4.18-4.91,4.66-8.06c0.48-3.16,0.02-6.38-0.64-9.51
									c-0.96-4.57-2.53-9.35-6.19-12.25c-4.08-3.24-9.74-3.39-14.94-3.22c-5.97,0.2-12.03,0.64-17.64,2.71
									C68.17,352.43,62.45,356.9,60.07,362.38"/>
							</g>
						</g>
					</g>
				</g>
				<g>
					<g>
						<g>
							<g>
								<g>
									<path class="st5" d="M110.01,430.96c-0.01,0-0.02-0.08-0.03-0.24c-0.01-0.19-0.02-0.42-0.04-0.7
										c-0.02-0.66-0.05-1.56-0.09-2.71c-0.07-2.39-0.17-5.78-0.29-9.95c-0.13-4.2-0.3-9.2-0.61-14.75
										c-0.31-5.55-0.72-11.64-1.56-17.99c-0.43-3.17-0.93-6.27-1.81-9.14c-0.88-2.87-2.06-5.55-3.34-8
										c-1.29-2.44-2.71-4.67-4.22-6.62c-1.51-1.94-3.07-3.63-4.6-5.05c-3.09-2.83-6.05-4.56-8.16-5.56
										c-0.53-0.24-1-0.48-1.41-0.65c-0.41-0.16-0.77-0.3-1.07-0.41c-0.26-0.11-0.48-0.19-0.65-0.26
										c-0.15-0.06-0.22-0.1-0.22-0.11c0-0.01,0.08,0.01,0.23,0.06c0.18,0.06,0.4,0.13,0.67,0.22c0.31,0.1,0.67,0.23,1.09,0.37
										c0.43,0.16,0.9,0.38,1.44,0.62c2.14,0.96,5.16,2.66,8.31,5.48c1.56,1.42,3.15,3.11,4.69,5.06
										c1.53,1.96,2.98,4.19,4.29,6.65c1.3,2.47,2.5,5.16,3.4,8.06c0.9,2.92,1.4,6.03,1.83,9.21c0.84,6.37,1.24,12.48,1.53,18.03
										c0.28,5.55,0.41,10.56,0.5,14.77c0.09,4.2,0.12,7.61,0.13,9.96c0,1.15,0,2.05,0,2.71c0,0.29-0.01,0.52-0.01,0.7
										C110.02,430.88,110.02,430.96,110.01,430.96z"/>
								</g>
							</g>
						</g>
					</g>
				</g>
			</g>
			<g>
				<g>
					<g>
						<g>
							<g>
								<path class="st5" d="M113.93,435.89c0,0-0.61-1.62-1.19-4.68c-0.57-3.06-0.99-7.59-0.5-13.16
									c0.47-5.56,1.89-12.08,4.16-19.09c2.24-7.02,5.28-14.52,7.87-22.58c1.29-4.04,2.38-8.03,3.13-11.95
									c0.76-3.92,1.24-7.74,1.55-11.4c0.61-7.32,0.52-13.94,0.35-19.49c-0.19-5.55-0.48-10.04-0.67-13.15
									c-0.09-1.53-0.16-2.73-0.21-3.57c-0.02-0.39-0.03-0.7-0.04-0.93c-0.01-0.21-0.01-0.32,0-0.32c0.01,0,0.02,0.11,0.05,0.31
									c0.02,0.23,0.05,0.54,0.09,0.93c0.07,0.85,0.17,2.04,0.3,3.57c0.24,3.1,0.59,7.59,0.82,13.15
									c0.22,5.56,0.34,12.2-0.24,19.54c-0.29,3.67-0.77,7.51-1.53,11.45c-0.75,3.94-1.84,7.96-3.14,12
									c-2.6,8.09-5.65,15.58-7.91,22.57c-2.28,6.97-3.73,13.46-4.24,18.98c-0.54,5.53-0.16,10.04,0.34,13.09
									c0.27,1.53,0.51,2.71,0.73,3.5c0.09,0.38,0.16,0.68,0.22,0.9C113.92,435.78,113.94,435.88,113.93,435.89z"/>
							</g>
						</g>
					</g>
				</g>
			</g>
			<g>
				<g>
					<g>
						<g>
							<polygon class="st12" points="140.96,440.81 89.76,440.81 88.6,430.96 140.96,430.96 							"/>
						</g>
					</g>
				</g>
			</g>
			<g>
				<g>
					<g>
						<g>
							<polygon class="st12" points="95.26,439.69 101.66,469.26 129.48,469.26 135.47,439.69 							"/>
						</g>
					</g>
				</g>
			</g>
			<g>
				<g>
					<g>
						<g>
							<g>
								<path class="st12" d="M140.96,440.81c0,0.13-11.26,0.21-25.14,0.17c-13.89-0.04-25.14-0.18-25.14-0.31
									c0-0.13,11.25-0.21,25.14-0.17C129.71,440.54,140.96,440.68,140.96,440.81z"/>
							</g>
						</g>
					</g>
				</g>
			</g>
			<g>
				<g>
					<g>
						<g>
							<g>
								<path class="st5" d="M132.18,455.41c-0.07,0.1-1.51-1.39-4.51-2.58c-1.49-0.59-3.37-1.05-5.48-1.1
									c-2.12-0.07-4.42,0.44-6.74,1.24c-2.33,0.79-4.51,1.71-6.64,2.21c-2.13,0.46-4.12,0.43-5.73,0.17
									c-1.62-0.25-2.88-0.74-3.69-1.17c-0.4-0.23-0.7-0.41-0.89-0.56c-0.19-0.14-0.29-0.23-0.28-0.24
									c0.03-0.04,0.44,0.25,1.25,0.63c0.82,0.37,2.06,0.79,3.65,1c1.59,0.2,3.53,0.2,5.59-0.27c2.05-0.51,4.23-1.44,6.58-2.24
									c2.34-0.81,4.73-1.32,6.91-1.22c2.18,0.07,4.1,0.59,5.6,1.23c1.52,0.63,2.62,1.39,3.34,1.95c0.36,0.28,0.63,0.52,0.79,0.69
									C132.1,455.3,132.19,455.39,132.18,455.41z"/>
							</g>
						</g>
					</g>
				</g>
			</g>
			<g>
				<g>
					<g>
						<g>
							<g>
								<path class="st8" d="M131.79,457.38c-0.07,0.1-1.46-1.34-4.33-2.55c-1.43-0.59-3.24-1.05-5.29-1.09
									c-2.05-0.06-4.27,0.41-6.52,1.17c-2.26,0.75-4.37,1.63-6.39,2.17c-2.02,0.55-3.93,0.74-5.51,0.62
									c-1.59-0.11-2.83-0.56-3.61-0.97c-0.39-0.22-0.68-0.4-0.86-0.55c-0.19-0.14-0.28-0.22-0.27-0.23
									c0.03-0.04,0.42,0.25,1.21,0.61c0.79,0.35,2,0.73,3.55,0.79c1.54,0.08,3.4-0.14,5.37-0.71c1.98-0.56,4.08-1.44,6.36-2.2
									c2.27-0.77,4.58-1.24,6.69-1.16c2.11,0.07,3.97,0.57,5.41,1.22c1.46,0.63,2.51,1.39,3.2,1.93c0.35,0.27,0.6,0.5,0.76,0.67
									C131.72,457.28,131.8,457.37,131.79,457.38z"/>
							</g>
						</g>
					</g>
				</g>
			</g>
			<g>
				<g>
					<g>
						<g>
							<g>
								<path class="st8" d="M132.68,453.45c-0.06,0.09-1.57-1.42-4.63-2.73c-1.52-0.65-3.44-1.22-5.62-1.35
									c-2.18-0.15-4.56,0.4-6.96,1.23c-2.41,0.81-4.65,1.79-6.87,2.24c-2.22,0.4-4.26,0.28-5.92,0.01
									c-1.67-0.29-2.97-0.77-3.8-1.2c-0.41-0.23-0.73-0.42-0.92-0.57c-0.2-0.15-0.3-0.23-0.29-0.25c0.03-0.04,0.45,0.26,1.29,0.65
									c0.85,0.38,2.13,0.79,3.78,1.03c1.64,0.22,3.64,0.3,5.78-0.11c2.12-0.46,4.37-1.45,6.8-2.26c2.42-0.83,4.88-1.4,7.14-1.21
									c2.25,0.16,4.2,0.78,5.73,1.48c1.54,0.69,2.67,1.48,3.42,2.06c0.37,0.29,0.65,0.53,0.82,0.71
									C132.61,453.34,132.69,453.43,132.68,453.45z"/>
							</g>
						</g>
					</g>
				</g>
			</g>
		</g>
		<g>
			<g>
				<g>
					<g>
						<g>
							<path class="st5" d="M141.42,440.86c0,0.13-11.52,0.24-25.72,0.24c-14.21,0-25.72-0.11-25.72-0.24
								c0-0.13,11.51-0.24,25.72-0.24C129.9,440.61,141.42,440.72,141.42,440.86z"/>
						</g>
					</g>
				</g>
			</g>
		</g>
	</g>
</g>
<g id="Capa_6">
	<g>
		<g>
			<g>
				<g>
					<path class="st6" d="M408.84,200.75c-0.08,0.04-0.47-0.62-1.15-1.91c-0.68-1.29-1.65-3.21-2.88-5.69
						c-2.46-4.98-5.95-12.23-10.25-21.28c-8.6-18.1-20.43-43.36-33.63-71.9l2.36-0.02c-1.79,4.18-3.72,8.6-5.52,13.14
						c-3.25,8.04-6.22,15.96-8.84,23.7c-1.36,3.85-2.55,7.69-3.77,11.43c-1.15,3.76-2.29,7.43-3.32,11.05
						c-4.14,14.44-7.2,27.63-9.43,38.78c-2.22,11.15-3.65,20.24-4.63,26.53c-0.49,3.14-0.82,5.59-1.11,7.25
						c-0.28,1.66-0.47,2.52-0.55,2.51c-0.09-0.01-0.08-0.89,0.03-2.57c0.12-1.67,0.29-4.15,0.62-7.32
						c0.67-6.34,1.83-15.51,3.83-26.75c2-11.24,4.89-24.54,8.93-39.09c1-3.64,2.12-7.35,3.25-11.13c1.2-3.77,2.38-7.63,3.72-11.51
						c2.6-7.8,5.57-15.78,8.84-23.86c1.82-4.56,3.76-9,5.57-13.21c0.28-0.65,1.04-0.95,1.69-0.67c0.3,0.13,0.53,0.36,0.66,0.64
						l0,0.01c13.14,28.57,24.68,53.96,32.86,72.25c4.09,9.15,7.34,16.51,9.53,21.61c1.1,2.55,1.93,4.53,2.46,5.89
						C408.67,199.99,408.91,200.71,408.84,200.75z"/>
				</g>
			</g>
		</g>
		<g>
			<g>
				<g>
					<path class="st6" d="M392.1,157.67c0.19,0.69-18.64,6.41-42.04,12.77c-23.41,6.36-42.54,10.95-42.73,10.26
						c-0.19-0.69,18.63-6.41,42.05-12.77C372.78,161.57,391.91,156.98,392.1,157.67z"/>
				</g>
			</g>
		</g>
		<g>
			<g>
				<g>
					<path class="st6" d="M379.02,78.14c-0.02-0.04,0.39-0.27,1.21-0.69c0.42-0.21,0.93-0.46,1.54-0.76
						c0.62-0.28,1.37-0.55,2.21-0.88c1.68-0.65,3.84-1.25,6.45-1.71c2.62-0.38,5.7-0.56,9.13-0.1c3.42,0.45,7.15,1.55,10.92,3.4
						c3.75,1.89,7.53,4.51,11.12,7.82c3.58,3.33,7.03,7.28,10.11,11.89c0.76,1.14,1.53,2.38,2.14,3.66
						c0.64,1.27,1.31,2.55,1.95,3.86c0.57,1.35,1.14,2.71,1.72,4.09c0.6,1.38,1,2.85,1.52,4.29c1.89,5.85,3.16,12.21,3.65,18.9
						c0.5,6.69,0.22,13.69-0.74,20.83c-0.96,7.14-2.6,14.43-4.73,21.78c-0.5,1.85-1.12,3.67-1.69,5.53c-0.6,1.85-1.32,3.7-1.98,5.57
						c-0.81,1.81-1.56,3.67-2.45,5.47c-0.46,0.89-0.92,1.79-1.38,2.69l-0.7,1.35l-0.77,1.31c-4.07,7.05-9.13,13.73-14.96,19.9
						c-5.84,6.18-12.5,11.8-19.75,16.83c-7.27,5-15.09,9.5-23.67,12.8c-8.55,3.25-17.83,5.31-27.35,4.95
						c-4.74-0.19-9.48-1.03-13.92-2.72c-4.43-1.68-8.52-4.25-11.89-7.49c-1.69-1.61-3.24-3.37-4.59-5.24
						c-1.39-1.85-2.57-3.82-3.65-5.83c-2.14-4.02-3.74-8.25-4.97-12.51c-4.76-17.09-5.2-34.5-2.64-50.5
						c1.27-8.01,3.26-15.69,5.77-22.94c0.32-0.9,0.64-1.8,0.96-2.7c0.31-0.9,0.64-1.79,1.02-2.66c0.73-1.75,1.45-3.48,2.16-5.2
						c0.8-1.68,1.59-3.35,2.38-5c0.76-1.67,1.7-3.23,2.53-4.82c3.47-6.31,7.25-12.17,11.35-17.44c0.5-0.67,1-1.33,1.5-1.99
						c0.53-0.64,1.05-1.27,1.57-1.9c1.06-1.25,2.05-2.52,3.13-3.71c1.08-1.18,2.15-2.35,3.21-3.5c1.04-1.18,2.2-2.21,3.27-3.29
						c2.13-2.2,4.45-4.09,6.62-6.04c1.14-0.9,2.27-1.8,3.38-2.68c0.56-0.44,1.11-0.87,1.66-1.3c0.57-0.4,1.14-0.8,1.7-1.2
						c1.13-0.79,2.24-1.57,3.33-2.34c1.13-0.71,2.25-1.41,3.35-2.1c0.55-0.34,1.1-0.69,1.64-1.02c0.56-0.31,1.11-0.62,1.66-0.93
						c1.1-0.61,2.18-1.21,3.24-1.79c2.15-1.12,4.28-2.12,6.3-3.1c2.08-0.88,4.06-1.76,5.99-2.53c1.95-0.72,3.81-1.41,5.59-2.07
						c1.8-0.58,3.52-1.12,5.14-1.64c6.54-1.93,11.7-3.08,15.22-3.75c1.76-0.32,3.11-0.56,4.01-0.7c0.91-0.14,1.37-0.19,1.38-0.15
						c0.01,0.04-0.44,0.18-1.33,0.41c-0.89,0.23-2.21,0.55-3.95,0.95c-3.47,0.84-8.58,2.14-15.03,4.21
						c-1.6,0.55-3.29,1.13-5.07,1.74c-1.75,0.68-3.58,1.4-5.5,2.15c-1.89,0.8-3.84,1.7-5.88,2.6c-1.99,1-4.07,2.02-6.18,3.16
						c-1.04,0.6-2.1,1.2-3.18,1.82c-0.54,0.31-1.08,0.62-1.62,0.94c-0.53,0.34-1.06,0.69-1.6,1.03c-1.08,0.69-2.17,1.4-3.28,2.11
						c-1.07,0.77-2.16,1.55-3.26,2.35c-0.55,0.4-1.1,0.8-1.66,1.2c-0.54,0.43-1.08,0.87-1.62,1.3c-1.08,0.88-2.18,1.77-3.3,2.67
						c-2.11,1.94-4.37,3.83-6.46,6.01c-1.05,1.08-2.18,2.11-3.19,3.27c-1.03,1.15-2.08,2.3-3.13,3.48
						c-1.05,1.18-2.02,2.45-3.05,3.69c-0.51,0.62-1.02,1.25-1.54,1.88c-0.48,0.66-0.97,1.31-1.46,1.98
						c-4.01,5.23-7.68,11.03-11.05,17.26c-0.81,1.58-1.72,3.12-2.46,4.76c-0.76,1.63-1.53,3.28-2.31,4.94
						c-0.69,1.69-1.39,3.4-2.09,5.12c-0.37,0.85-0.69,1.73-0.99,2.62c-0.31,0.88-0.62,1.77-0.93,2.66
						c-2.43,7.14-4.35,14.69-5.57,22.56c-1.23,7.86-1.72,16.04-1.31,24.36c0.4,8.3,1.68,16.78,4.03,25.06
						c1.21,4.13,2.75,8.19,4.8,12.02c1.03,1.91,2.15,3.77,3.46,5.51c1.27,1.76,2.72,3.4,4.29,4.89c3.14,3.01,6.9,5.38,11.04,6.94
						c4.13,1.57,8.58,2.37,13.09,2.55c9.05,0.34,18.03-1.62,26.32-4.77c8.29-3.18,16.02-7.59,23.14-12.47
						c7.11-4.92,13.66-10.42,19.39-16.45c5.73-6.03,10.7-12.54,14.69-19.39l0.76-1.27l0.68-1.31c0.45-0.87,0.91-1.74,1.36-2.61
						c0.87-1.75,1.6-3.55,2.4-5.3c0.65-1.82,1.36-3.59,1.96-5.4c0.57-1.83,1.19-3.64,1.7-5.46c2.15-7.25,3.8-14.42,4.79-21.43
						c0.99-7.01,1.31-13.86,0.87-20.4c-0.43-6.54-1.61-12.75-3.4-18.48c-0.49-1.42-0.87-2.86-1.44-4.21
						c-0.55-1.36-1.1-2.7-1.64-4.02c-0.63-1.28-1.25-2.55-1.86-3.8c-0.59-1.28-1.27-2.4-2.01-3.54c-2.95-4.53-6.28-8.45-9.72-11.74
						c-3.46-3.28-7.09-5.88-10.69-7.78c-3.62-1.86-7.2-2.99-10.51-3.5c-3.31-0.52-6.31-0.42-8.87-0.14
						c-2.56,0.38-4.7,0.88-6.39,1.44c-0.84,0.29-1.59,0.51-2.23,0.75c-0.62,0.25-1.15,0.47-1.58,0.64
						C379.48,78.03,379.04,78.18,379.02,78.14z"/>
				</g>
			</g>
		</g>
		<g>
			<g>
				<g>
					<path class="st6" d="M401.43,144.1c-0.72,0.04-1.92-12.05-2.69-26.99c-0.77-14.95-0.81-27.09-0.09-27.13
						c0.72-0.04,1.92,12.05,2.69,26.99C402.1,131.92,402.14,144.06,401.43,144.1z"/>
				</g>
			</g>
		</g>
		<g>
			<g>
				<g>
					<path class="st6" d="M417.65,110.54c0.27,0.66-7.59,4.49-17.74,8.09c-10.15,3.61-18.67,5.59-18.87,4.91
						c-0.21-0.7,7.92-3.78,18-7.36C409.12,112.61,417.38,109.87,417.65,110.54z"/>
				</g>
			</g>
		</g>
	</g>
</g>
</svg>
